<?xml version="1.0"?><svg width="640" height="480" xmlns="http://www.w3.org/2000/svg">
 <title>white baseball cap</title>
 <metadata id="metadata3657">image/svg+xml</metadata>
 <g>
  <path fill="#ff0000" fill-rule="evenodd" stroke="#000000" stroke-width="6" id="path3359" d="m517.378662,360.631989c-29.905914,-22.420807 -42.173523,-48.857849 -75.127716,-68.336426c49.68396,-9.623962 58.963226,-7.06485 90.148956,10.395294c31.378296,17.567993 45.848816,89.702942 -15.02124,57.941132z"/>
  <path fill="#ff0000" fill-rule="evenodd" stroke="#000000" stroke-width="6" stroke-miterlimit="4" id="path3355" d="m459.015991,259.476776c-93.155151,-41.82605 -202.576965,-15.298355 -293.545319,31.123749c-17.763992,9.065094 -34.82431,18.888885 -50.922371,29.110413c2.430237,-0.549316 3.176544,-31.658142 4.502998,-38.59314c-2.763824,-76.785782 25.510818,-132.575928 104.504944,-159.799538c40.259552,-3.991631 86.92688,-15.624596 126.844788,-6.093018c28.138397,12.324104 34.488861,19.630272 65.760071,49.058647c5.457367,10.713715 41.651001,95.072006 42.854889,95.192886z"/>
  <path fill="#ff0000" fill-rule="evenodd" stroke="#000000" stroke-width="6" stroke-miterlimit="4" id="path3357" d="m538.268005,308.065125c-47.526886,-32.499542 -89.633667,-74.796906 -139.324005,-78.548386c-73.025848,-4.97525 -159.341217,20.190445 -235.430801,61.686661c36.312241,48.311279 49.579269,90.521149 123.533554,65.189423c74.998627,-25.689453 178.796295,-100.517914 251.221252,-48.327698z"/>
  <path fill="#ff0000" fill-rule="evenodd" stroke="#000000" stroke-width="6" stroke-miterlimit="4" id="path3361" d="m466.725006,255.332764c-92.473999,-40.2491 -184.149017,-8.99472 -279.429001,23.628235c11.802002,-133.335602 6.125,-169.651031 157.620987,-168.213249c30.095001,3.546227 70.713013,34.650902 74.529022,50.366615c5.551971,10.655106 41.441986,73.780838 47.278992,94.218399z"/>
  <title>Layer 1</title>
 </g>
</svg>