<?xml version="1.0" encoding="UTF-8" standalone="no"?>
<!-- Created with Inkscape (http://www.inkscape.org/) -->

<svg
   xmlns:dc="http://purl.org/dc/elements/1.1/"
   xmlns:cc="http://creativecommons.org/ns#"
   xmlns:rdf="http://www.w3.org/1999/02/22-rdf-syntax-ns#"
   xmlns:svg="http://www.w3.org/2000/svg"
   xmlns="http://www.w3.org/2000/svg"
   xmlns:sodipodi="http://sodipodi.sourceforge.net/DTD/sodipodi-0.dtd"
   xmlns:inkscape="http://www.inkscape.org/namespaces/inkscape"
   width="900"
   height="640"
   id="svg2"
   version="1.1"
   inkscape:version="0.48.4 r9939"
   sodipodi:docname="bbhhta_thumb.svg"
   inkscape:export-filename="C:\wamp\www\ryan-m-cooper.github.io\mapbox-internship-application\img\portfolio\bbhhta_thumb.png"
   inkscape:export-xdpi="90"
   inkscape:export-ydpi="90">
  <defs
     id="defs4" />
  <sodipodi:namedview
     id="base"
     pagecolor="#ffffff"
     bordercolor="#666666"
     borderopacity="1.0"
     inkscape:pageopacity="0.0"
     inkscape:pageshadow="2"
     inkscape:zoom="0.70910507"
     inkscape:cx="177.19201"
     inkscape:cy="308.41316"
     inkscape:document-units="px"
     inkscape:current-layer="layer3"
     showgrid="false"
     showguides="true"
     inkscape:guide-bbox="true"
     inkscape:window-width="1366"
     inkscape:window-height="663"
     inkscape:window-x="-8"
     inkscape:window-y="1592"
     inkscape:window-maximized="1">
    <sodipodi:guide
       orientation="1,0"
       position="450,157.53447"
       id="guide3199" />
    <sodipodi:guide
       orientation="0,1"
       position="206.00662,550"
       id="guide3201" />
    <sodipodi:guide
       orientation="0,1"
       position="-1.8643133,50"
       id="guide3203" />
    <sodipodi:guide
       orientation="1,0"
       position="50,652.936"
       id="guide3223" />
    <sodipodi:guide
       orientation="1,0"
       position="750,445.63212"
       id="guide3225" />
    <sodipodi:guide
       orientation="0,1"
       position="0,300"
       id="guide3227" />
  </sodipodi:namedview>
  <metadata
     id="metadata7">
    <rdf:RDF>
      <cc:Work
         rdf:about="">
        <dc:format>image/svg+xml</dc:format>
        <dc:type
           rdf:resource="http://purl.org/dc/dcmitype/StillImage" />
        <dc:title></dc:title>
      </cc:Work>
    </rdf:RDF>
  </metadata>
  <g
     inkscape:groupmode="layer"
     id="layer2"
     inkscape:label="Layer"
     transform="translate(0,240)"
     style="display:inline">
    <rect
       style="color:#000000;fill:#f4e3d7;fill-opacity:1;fill-rule:nonzero;stroke:none;stroke-width:1.25;marker:none;visibility:visible;display:inline;overflow:visible;enable-background:accumulate"
       id="rect3206"
       width="900"
       height="640"
       x="0"
       y="-240" />
  </g>
  <g
     inkscape:label="Layer 1"
     inkscape:groupmode="layer"
     id="layer1"
     transform="translate(0,-412.36218)"
     style="display:none"
     sodipodi:insensitive="true">
    <text
       xml:space="preserve"
       style="font-size:10px;font-style:normal;font-variant:normal;font-weight:normal;font-stretch:normal;line-height:125%;letter-spacing:0px;word-spacing:0px;fill:none;stroke:none;font-family:Open Sans;-inkscape-font-specification:Open Sans"
       x="-390.63321"
       y="212.18723"
       id="text3233"
       sodipodi:linespacing="125%"
       transform="translate(0,452.36218)"><tspan
         sodipodi:role="line"
         id="tspan3235"
         x="-390.63321"
         y="212.18723">whereslkasjflksdfsdfsdfkljsdfkld</tspan></text>
    <flowRoot
       xml:space="preserve"
       id="flowRoot3237"
       style="font-size:20px;font-style:normal;font-variant:normal;font-weight:normal;font-stretch:normal;line-height:125%;letter-spacing:0px;word-spacing:0px;fill:#000000;fill-opacity:1;stroke:none;font-family:Palatino Linotype;-inkscape-font-specification:Palatino Linotype"
       transform="translate(0,452.36218)"><flowRegion
         id="flowRegion3239"><rect
           id="rect3241"
           width="308.84"
           height="76.152328"
           x="-362.42865"
           y="151.54742"
           style="font-size:20px" /></flowRegion><flowPara
         id="flowPara3243" /></flowRoot>    <flowRoot
       xml:space="preserve"
       id="flowRoot3245"
       style="font-size:28px;font-style:normal;font-variant:normal;font-weight:normal;font-stretch:normal;line-height:125%;letter-spacing:0px;word-spacing:0px;fill:#000000;fill-opacity:1;stroke:none;font-family:Palatino Linotype;-inkscape-font-specification:Palatino Linotype"
       transform="translate(0,452.36218)"><flowRegion
         id="flowRegion3247"><rect
           id="rect3249"
           width="332.81387"
           height="136.79214"
           x="-352.55707"
           y="207.95654"
           style="font-size:28px" /></flowRegion><flowPara
         id="flowPara3251" /></flowRoot>    <text
       xml:space="preserve"
       style="font-size:22px;font-style:normal;font-variant:normal;font-weight:normal;font-stretch:normal;line-height:125%;letter-spacing:0px;word-spacing:0px;fill:#000000;fill-opacity:1;stroke:none;font-family:Palatino Linotype;-inkscape-font-specification:Palatino Linotype"
       x="-308.83997"
       y="220.64861"
       id="text3253"
       sodipodi:linespacing="125%"
       transform="translate(0,452.36218)"><tspan
         sodipodi:role="line"
         id="tspan3255"
         x="-308.83997"
         y="220.64861" /></text>
    <flowRoot
       xml:space="preserve"
       id="flowRoot3258"
       style="font-size:32px;font-style:normal;font-variant:normal;font-weight:normal;font-stretch:normal;line-height:125%;letter-spacing:0px;word-spacing:0px;fill:#000000;fill-opacity:1;stroke:none;font-family:Palatino Linotype;-inkscape-font-specification:Palatino Linotype"
       transform="translate(0,452.36218)"><flowRegion
         id="flowRegion3260"><rect
           id="rect3262"
           width="389.22299"
           height="176.27853"
           x="-462.55487"
           y="188.21335"
           style="font-size:32px" /></flowRegion><flowPara
         id="flowPara3264" /></flowRoot>    <g
       style="font-size:115.16776276px;font-style:normal;font-variant:normal;font-weight:normal;font-stretch:normal;line-height:125%;letter-spacing:0px;word-spacing:0px;fill:#ffffff;fill-opacity:1;stroke:none;font-family:Open Sans;-inkscape-font-specification:Open Sans"
       id="text3266"
       transform="matrix(1.1601665,0,0,1.1601684,-11.335616,-142.07012)">
      <path
         d="m 105.16581,750.47879 -3.71146,19.11965 15.91429,0 0,7.25421 -17.26392,0 -4.723673,24.18074 -7.704093,0 4.723677,-24.18074 -17.03898,0 -4.611209,24.18074 -7.64786,0 4.498741,-24.18074 -14.733376,0 0,-7.25421 16.139233,0 3.823929,-19.11965 -15.57689,0 0,-7.14175 16.814044,0 4.611209,-24.51814 7.816562,0 -4.611209,24.51814 17.151449,0 4.723676,-24.51814 7.53539,0 -4.72368,24.51814 14.84585,0 0,7.14175 z m -28.454537,19.11965 17.038981,0 3.711461,-19.11965 -17.038981,0 z"
         id="path3271"
         inkscape:connector-curvature="0" />
      <path
         d="m 143.57381,769.48597 c 1.61203,-2.28683 4.06759,-5.28599 7.36669,-8.99748 l 19.90693,-21.08785 11.07815,0 -24.96802,26.2614 26.71128,35.37135 -11.30309,0 -21.76266,-29.12935 -7.02928,6.0733 0,23.05605 -9.22242,0 0,-87.50051 9.22242,0 0,46.39326 c -2e-5,2.06196 -0.14998,5.24857 -0.44987,9.55983 z"
         id="path3273"
         inkscape:connector-curvature="0" />
      <path
         d="m 185.07469,739.40064 10.0097,0 13.49622,35.14641 c 2.96164,8.02277 4.79863,13.8149 5.51096,17.37639 l 0.44987,0 c 0.48733,-1.91196 1.50892,-5.18291 3.06477,-9.81288 1.55578,-4.62993 6.64497,-18.86656 15.2676,-42.70992 l 10.0097,0 -26.48634,70.18035 c -2.62429,6.93555 -5.68906,11.85604 -9.1943,14.7615 -3.50529,2.90541 -7.80721,4.35812 -12.90576,4.35815 -2.84921,-3e-5 -5.66092,-0.31869 -8.43514,-0.95598 l 0,-7.47916 c 2.06192,0.44986 4.36752,0.67479 6.91681,0.67481 6.41069,-2e-5 10.98441,-3.599 13.72116,-10.79697 l 3.43029,-8.77255 z"
         id="path3275"
         inkscape:connector-curvature="0" />
      <path
         d="m 303.33535,739.40064 0,5.9046 -11.41556,1.34962 c 1.04966,1.31218 1.9869,3.02733 2.81172,5.14543 0.82471,2.11821 1.2371,4.50816 1.23715,7.16987 -5e-5,6.03585 -2.06197,10.85324 -6.18577,14.4522 -4.12389,3.59902 -9.7848,5.39852 -16.98275,5.39849 -1.83701,3e-5 -3.56153,-0.14993 -5.17355,-0.44987 -3.97391,2.09943 -5.96085,4.74244 -5.96083,7.92903 -2e-5,1.68704 0.69354,2.93357 2.08067,3.73958 1.38709,0.80603 3.76767,1.20904 7.14175,1.20904 l 10.90945,0 c 6.67308,0 11.79977,1.40586 15.38007,4.21756 3.58019,2.81172 5.37031,6.89807 5.37037,12.25907 -6e-5,6.82308 -2.73679,12.02474 -8.2102,15.60501 -5.47352,3.58022 -13.45878,5.37034 -23.9558,5.37037 -8.06026,-3e-5 -14.27414,-1.4996 -18.64166,-4.49874 -4.36753,-2.99918 -6.55129,-7.23549 -6.55129,-12.70894 0,-3.74896 1.19966,-6.9918 3.599,-9.72853 2.39932,-2.73673 5.77337,-4.59246 10.12216,-5.56719 -1.57457,-0.7123 -2.89608,-1.81823 -3.96451,-3.31782 -1.06846,-1.49957 -1.60269,-3.24283 -1.60268,-5.22979 -1e-5,-2.24935 0.59982,-4.21755 1.7995,-5.90459 1.19965,-1.68701 3.09287,-3.3178 5.67966,-4.89239 -3.18663,-1.3121 -5.78277,-3.54273 -7.78845,-6.69187 -2.00569,-3.14909 -3.00854,-6.74808 -3.00853,-10.79698 -1e-5,-6.74806 2.02442,-11.94973 6.0733,-15.60501 4.04885,-3.65516 9.78474,-5.48277 17.20768,-5.48284 3.22407,7e-5 6.1295,0.37496 8.71631,1.12469 z m -49.14875,71.97985 c -1e-5,3.33655 1.40585,5.86709 4.21757,7.59162 2.8117,1.7245 6.84182,2.58676 12.09037,2.58678 7.83527,-2e-5 13.63677,-1.17157 17.4045,-3.51464 3.76765,-2.34311 5.6515,-5.52034 5.65155,-9.53171 -5e-5,-3.33657 -1.03102,-5.65154 -3.09289,-6.94493 -2.06197,-1.29339 -5.94213,-1.94008 -11.64049,-1.94008 l -11.19062,0 c -4.23633,0 -7.53541,1.01222 -9.89723,3.03665 -2.36185,2.02443 -3.54277,4.92986 -3.54276,8.71631 z m 5.06109,-52.24163 c -2e-5,4.31133 1.21839,7.57292 3.65522,9.78476 2.4368,2.21192 5.8296,3.31785 10.17841,3.31783 9.10991,2e-5 13.66488,-4.42373 13.66492,-13.27129 -4e-5,-9.25986 -4.61125,-13.88981 -13.83363,-13.88986 -4.38629,5e-5 -7.76035,1.18097 -10.12216,3.54276 -2.36186,2.36189 -3.54278,5.86715 -3.54276,10.5158 z"
         id="path3277"
         inkscape:connector-curvature="0" />
      <path
         d="m 325.43539,801.03339 -9.33488,0 0,-61.63275 9.33488,0 z m -10.12216,-78.33433 c -10e-6,-2.13682 0.52484,-3.702 1.57456,-4.69556 1.04969,-0.99339 2.36182,-1.49012 3.93639,-1.49021 1.49957,9e-5 2.79296,0.5062 3.88017,1.51833 1.08717,1.0123 1.63077,2.56811 1.63079,4.66744 -2e-5,2.09949 -0.54362,3.66468 -1.63079,4.69556 -1.08721,1.03104 -2.3806,1.54652 -3.88017,1.54645 -1.57457,7e-5 -2.8867,-0.51541 -3.93639,-1.54645 -1.04972,-1.03088 -1.57457,-2.59607 -1.57456,-4.69556 z"
         id="path3279"
         inkscape:connector-curvature="0" />
      <path
         d="m 385.09995,784.21934 c -5e-5,5.73591 -2.13695,10.15967 -6.41071,13.27129 -4.27384,3.11163 -10.27215,4.66744 -17.99496,4.66744 -8.17273,0 -14.54594,-1.29339 -19.11965,-3.88016 l 0,-8.66008 c 2.96167,1.49959 6.1389,2.68051 9.53171,3.54276 3.39278,0.86227 6.66374,1.29339 9.81288,1.29339 4.8736,0 8.62255,-0.7779 11.24685,-2.33372 2.62423,-1.55581 3.93636,-3.92702 3.9364,-7.11364 -4e-5,-2.39931 -1.04038,-4.45186 -3.121,-6.15765 -2.08071,-1.70575 -6.13894,-3.72081 -12.17472,-6.04518 -5.73591,-2.13687 -9.81289,-4.00197 -12.23095,-5.59531 -2.41809,-1.59327 -4.21758,-3.40214 -5.39849,-5.42661 -1.18093,-2.02439 -1.77139,-4.44246 -1.77138,-7.25422 -1e-5,-5.02354 2.04317,-8.98805 6.12953,-11.89354 4.08634,-2.90538 9.69102,-4.35809 16.81405,-4.35816 6.63561,7e-5 13.12128,1.34969 19.45705,4.04887 l -3.31782,7.59162 c -6.18581,-2.54923 -11.79048,-3.82387 -16.81404,-3.82392 -4.42379,5e-5 -7.76035,0.69361 -10.0097,2.08066 -2.24939,1.38717 -3.37407,3.29913 -3.37406,5.7359 -10e-6,1.64958 0.42174,3.05544 1.26527,4.21757 0.8435,1.16221 2.20249,2.26815 4.07699,3.31782 1.87445,1.04974 5.47344,2.56807 10.79698,4.55497 7.31041,2.66179 12.24965,5.34229 14.81772,8.0415 2.56799,2.69927 3.852,6.09207 3.85205,10.1784 z"
         id="path3281"
         inkscape:connector-curvature="0" />
      <path
         d="m 449.99429,801.03339 -54.04112,0 0,-8.0415 21.65019,-21.76266 c 6.59812,-6.6731 10.9469,-11.43426 13.04635,-14.2835 2.09937,-2.84916 3.67392,-5.62338 4.72367,-8.32267 1.04966,-2.69919 1.57452,-5.60463 1.57456,-8.71631 -4e-5,-4.38621 -1.33092,-7.86336 -3.99263,-10.43146 -2.66179,-2.56796 -6.35451,-3.85197 -11.07815,-3.85205 -3.41157,8e-5 -6.64504,0.56242 -9.70041,1.68703 -3.05541,1.12476 -6.45758,3.16794 -10.20652,6.12954 l -4.94861,-6.35447 c 7.57287,-6.29816 15.82055,-9.44728 24.74307,-9.44736 7.7228,8e-5 13.77735,1.97765 18.16367,5.93271 4.38622,3.95522 6.57935,9.26935 6.57941,15.94242 -6e-5,5.21109 -1.46215,10.3659 -4.38627,15.46442 -2.92424,5.09861 -8.3977,11.5468 -16.42041,19.34458 l -17.99496,17.60133 0,0.44987 42.28816,0 z"
         id="path3283"
         inkscape:connector-curvature="0"
         style="fill:#00ff00" />
      <path
         d="m 516.35072,759.81367 c -6e-5,14.20855 -2.24006,24.81807 -6.71999,31.82859 -4.48005,7.01054 -11.33125,10.51581 -20.55363,10.51581 -8.84754,0 -15.5769,-3.58962 -20.18809,-10.76886 -4.61122,-7.17922 -6.91682,-17.70439 -6.91682,-31.57554 0,-14.32093 2.23062,-24.9492 6.69188,-31.88482 4.46123,-6.93548 11.26557,-10.40326 20.41303,-10.40334 8.92247,8e-5 15.69869,3.61782 20.32869,10.85321 4.6299,7.23554 6.94487,17.71385 6.94493,31.43495 z m -44.93117,0 c -2e-5,11.95919 1.40584,20.66612 4.21757,26.12082 2.81169,5.45473 7.29168,8.18209 13.43998,8.18208 6.22322,10e-6 10.73133,-2.76484 13.52434,-8.29455 2.79292,-5.52968 4.18941,-14.19912 4.18946,-26.00835 -5e-5,-11.80914 -1.39654,-20.45983 -4.18946,-25.95211 -2.79301,-5.49214 -7.30112,-8.23824 -13.52434,-8.23832 -6.1483,8e-5 -10.62829,2.70869 -13.43998,8.12586 -2.81173,5.41729 -4.21759,14.10547 -4.21757,26.06457 z"
         id="path3285"
         inkscape:connector-curvature="0"
         style="fill:#00ff00" />
      <path
         d="m 562.35035,801.03339 -9.10995,0 0,-58.5961 c -3e-5,-4.87357 0.14992,-9.48478 0.44987,-13.83363 -0.78731,0.78735 -1.66831,1.61212 -2.64301,2.47431 -0.97475,0.86233 -5.436,4.51755 -13.38375,10.96568 l -4.94862,-6.41071 21.76266,-16.81404 7.8728,0 z"
         id="path3287"
         inkscape:connector-curvature="0"
         style="fill:#00ff00" />
      <path
         d="m 651.59409,782.13868 -12.20283,0 0,18.89471 -8.94125,0 0,-18.89471 -39.98256,0 0,-8.15397 39.02658,-55.61568 9.89723,0 0,55.27827 12.20283,0 z m -21.14408,-8.49138 0,-27.32985 c -4e-5,-5.36094 0.1874,-11.41549 0.56234,-18.16366 l -0.44987,0 c -1.79954,3.59906 -3.48657,6.57947 -5.06109,8.94124 l -25.69905,36.55227 z"
         id="path3289"
         inkscape:connector-curvature="0"
         style="fill:#00ff00" />
    </g>
  </g>
  <g
     inkscape:groupmode="layer"
     id="layer3"
     inkscape:label="trailhead"
     transform="translate(0,40)">
    <g
       transform="matrix(42.664116,0,0,42.664116,193.41014,-44340.814)"
       id="layer1-7"
       inkscape:label="Layer 1">
      <g
         id="text3818"
         style="font-size:16.77840233px;font-style:normal;font-weight:normal;line-height:125%;letter-spacing:0px;word-spacing:0px;fill:#003893;fill-opacity:1;stroke:none;font-family:Sans">
        <path
           id="path4333"
           style="font-variant:normal;font-stretch:normal;text-align:center;text-anchor:middle;fill:#0066ff;font-family:'ESRI Transportation &amp; Civic';-inkscape-font-specification:'ESRI Transportation &amp; Civic'"
           d="m 11.903369,1051.4564 c -1.2e-5,0.2123 -0.07554,0.3968 -0.226576,0.5535 -0.151062,0.1567 -0.33275,0.235 -0.545063,0.235 l -10.21819439,0 c -0.22358971,0 -0.41090943,-0.075 -0.56195973,-0.2265 -0.15105076,-0.1511 -0.22657602,-0.3384 -0.22657602,-0.562 l 0,-10.168 c 0,-0.2236 0.0755253,-0.4109 0.22657602,-0.562 0.1510503,-0.151 0.33837002,-0.2265 0.56195973,-0.2266 l 10.21819439,0 c 0.223578,10e-5 0.408082,0.076 0.553511,0.2266 0.145407,0.1511 0.218116,0.3384 0.218128,0.562 z m -0.117257,-10.168 c -1.1e-5,-0.1901 -0.06154,-0.3496 -0.184589,-0.4783 -0.12307,-0.1286 -0.279668,-0.193 -0.469793,-0.193 l -10.21819439,0 c -0.19013671,0 -0.34955049,0.064 -0.47824181,0.193 -0.12869195,0.1287 -0.19303777,0.2882 -0.19303765,0.4783 l 0,10.168 c -1.2e-7,0.1901 0.0643457,0.3495 0.19303765,0.478 0.12869132,0.1285 0.2881051,0.1928 0.47824181,0.1928 l 10.21819439,0 c 0.17886,0 0.332642,-0.067 0.461345,-0.2013 0.12868,-0.1341 0.193026,-0.2906 0.193037,-0.4695 z m -0.251921,10.168 c -1.2e-5,0.2796 -0.134165,0.4193 -0.402461,0.4193 l -10.21819439,0 c -0.27957228,0 -0.41935802,-0.1397 -0.41935765,-0.4193 l 0,-10.168 c -3.7e-7,-0.2796 0.13978537,-0.4194 0.41935765,-0.4194 l 10.21819439,0 c 0.268296,0 0.402449,0.1398 0.402461,0.4194 z m -1.6103543,-7.6678 c -0.078522,-0.1679 -0.1961195,-0.2071 -0.352793,-0.1177 l -0.1172562,0.067 c -0.1566923,0.089 -0.1957777,0.2068 -0.1172563,0.3522 l 0.7716388,1.4266 c 0.07816,0.1676 0.195587,0.2067 0.352281,0.1172 l 0.117256,-0.067 c 0.156672,-0.09 0.195928,-0.2069 0.117768,-0.3523 z m -4.765521,-0.7721 c -0.078176,-0.1676 -0.2066967,-0.2067 -0.3855632,-0.1173 l -0.1341535,0.067 c -0.1679522,0.078 -0.2072083,0.2069 -0.1177683,0.3861 l 0.8223301,1.5602 c 0.078166,0.1679 0.2123189,0.207 0.4024605,0.1172 l 0.1341535,-0.067 c 0.1679419,-0.078 0.207198,-0.2066 0.1177683,-0.3855 z m 4.9498543,4.1106 c 0.06724,-0.1007 0.134314,-0.3019 0.20123,-0.6037 0.02252,-0.1566 -0.04456,-0.3804 -0.20123,-0.6712 -0.03346,-0.112 -0.10054,-0.2686 -0.2012305,-0.4698 -0.1007101,-0.2013 -0.2294018,-0.4473 -0.3860753,-0.7381 -0.3577517,-0.4701 -0.626229,-0.7051 -0.805433,-0.7051 -0.4024686,0 -0.6876725,0.235 -0.8556124,0.7051 -0.044726,0.1229 -0.089443,0.2598 -0.1341535,0.4109 -0.044725,0.151 -0.095076,0.3216 -0.1510507,0.5118 l -1.5099948,1.0737 0.1843331,0.3861 0.2181274,-0.1009 1.2918673,2.0973 -0.3522809,1.7117 0.8223302,0.2013 0.184333,-0.8393 0.4869464,0.7886 0.3015893,-0.1342 -0.6876646,-1.1408 0.1843331,-0.8387 0.5873055,-0.638 1.4429184,2.8024 0.570408,-0.3861 z m -4.748112,-0.4526 c 0.055636,-0.1007 0.128345,-0.3245 0.2181274,-0.6713 0.010918,-0.1567 -0.061791,-0.4028 -0.2181274,-0.7384 -0.089782,-0.2795 -0.3079094,-0.7158 -0.6543823,-1.3087 -0.3021056,-0.5144 -0.5929419,-0.7716 -0.8725097,-0.7717 -0.3693521,10e-5 -0.6658207,0.2125 -0.8894068,0.6375 -0.055985,0.1342 -0.1790447,0.5145 -0.3691781,1.1408 l -1.64414829,1.1747 0.20123019,0.4193 0.2350247,-0.1003 1.4091236,2.2985 -0.3691781,1.8623 0.8894069,0.2181 0.2012302,-0.9058 0.537126,0.8556 0.3353837,-0.151 -0.7547414,-1.2417 0.2012303,-0.9227 0.637485,-0.6882 1.5939687,3.0538 0.6042027,-0.4194 z m 3.3722704,-3.2719 c -8.6e-6,-0.1902 -0.067085,-0.3524 -0.2012302,-0.4867 -0.1341617,-0.1343 -0.2964771,-0.2015 -0.4869464,-0.2015 -0.1901439,0 -0.3522885,0.067 -0.4864344,0.2015 -0.1341608,0.1343 -0.2012375,0.2965 -0.2012302,0.4867 -7.3e-6,0.2014 0.064339,0.3692 0.1930376,0.5033 0.1286842,0.1342 0.2935597,0.2012 0.494627,0.2012 0.2013928,0 0.3664389,-0.067 0.495139,-0.2012 0.1286832,-0.1341 0.193029,-0.3019 0.1930376,-0.5033 z m -0.8387153,4.9329 -0.033794,0.2013 -1.07374,-1.7451 1.258073,-0.5535 0.2181274,-0.319 0.453152,0.6713 z m -4.0440619,-5.7384 c -3.7e-6,-0.2126 -0.072627,-0.3917 -0.2178714,-0.5371 -0.145251,-0.1454 -0.3242074,-0.2181 -0.53687,-0.2181 -0.2126684,0 -0.3917102,0.073 -0.5371259,0.2181 -0.1454206,0.1454 -0.2181297,0.3245 -0.2181275,0.5371 -2.2e-6,0.2127 0.072707,0.3918 0.2181275,0.5372 0.1454157,0.1454 0.3244575,0.2181 0.5371259,0.2181 0.2126626,0 0.391619,-0.073 0.53687,-0.2181 0.145244,-0.1454 0.2178677,-0.3245 0.2178714,-0.5372 z m -0.905792,5.4025 -0.05018,0.2182 -1.174611,-1.9125 1.3758412,-0.6042 0.2350247,-0.3523 0.5033315,0.7384 z"
           inkscape:connector-curvature="0" />
      </g>
    </g>
  </g>
</svg>
