<?xml version="1.0" encoding="utf-8"?>
<!-- Generator: Adobe Illustrator 12.0.0, SVG Export Plug-In . SVG Version: 6.00 Build 51448)  -->
<!DOCTYPE svg PUBLIC "-//W3C//DTD SVG 1.1//EN" "http://www.w3.org/Graphics/SVG/1.1/DTD/svg11.dtd" [
	<!ENTITY ns_svg "http://www.w3.org/2000/svg">
	<!ENTITY ns_xlink "http://www.w3.org/1999/xlink">
]>
<svg  version="1.1" id="Layer_1" xmlns="&ns_svg;" xmlns:xlink="&ns_xlink;" width="593.706" height="647.175"
	 viewBox="0 0 593.706 647.175" overflow="visible" enable-background="new 0 0 593.706 647.175" xml:space="preserve">
<rect x="0.187" y="0.225" fill="#EDF4F8" width="593.336" height="646.667"/>
<polygon fill="#DFDCC9" points="266.69,524.095 271.872,519.124 272.931,511.136 272.556,505.417 267.468,501.302 264.284,507.673 
	262.218,514.382 "/>
<polygon fill="#DFDCC9" points="523.63,555.677 517.316,558.343 515.607,564.069 502.702,561.644 499.62,561.839 495.646,567.776 
	481.589,563.718 471.648,565.667 464.812,573.083 458.22,576.53 436.857,572.669 424.89,571.683 416.687,578.322 413.902,583.532 
	413.613,587.067 415.294,588.532 419.382,587.937 417.154,592.825 415.72,598.899 418.982,603.87 418.507,609.655 420.187,611.673 
	425.841,614.763 427.384,618.649 430.017,620.183 431.609,623.483 430.437,626.595 427.491,628.601 423.376,629.206 
	419.747,627.966 414.527,630.729 419.679,635.661 430.724,636.374 432.732,632.409 436.398,636.438 449.304,637.063 455.9,625.901 
	457.988,626.228 465.675,641.028 468.863,640.872 469.46,637.728 471.56,638.044 472.605,640.173 475.886,640.593 479.161,645.114 
	481.808,645.28 485.792,642.708 485.564,633.694 488.536,629.935 486.279,626.058 494.669,619.636 501.222,619.655 504.812,614.05 
	505.548,605.462 501.003,600.521 500.904,597.708 503.486,593.542 518.525,589.495 520.964,587.39 521.521,584.05 526.827,584.319 
	529.353,585.56 529.929,584.655 528.591,579.724 528.767,576.165 531.738,573.679 534.57,574.017 540.798,579.187 543.439,577.806 
	544.025,579.319 537.745,569.294 534.234,559.206 528.995,556.136 "/>
<polygon fill="#DFDCC9" points="360.44,121.706 359.616,118.564 362.647,113.098 367.569,110.314 371.476,106.447 372.179,100.869 
	369.875,98.314 359.17,100.739 355.045,100.205 352.985,95.749 345.929,91.784 342.804,95.153 339.327,94.678 339.646,89.984 
	334.795,89.318 332.858,86.774 337.321,82.471 338.424,76.943 336.036,69.775 326.774,65.053 322.351,64.785 323.103,61.872 
	317.575,63.701 303.927,57.846 298.752,57.419 297.325,63.662 301.163,73.373 304.288,78.037 305.172,82.351 296.065,86.06 
	295.387,88.244 292.657,90.859 296.373,91.813 298.688,94.089 296.9,97.6 298.263,101.794 300.895,104.855 299.732,107.341 
	296.939,107.302 295.846,112.263 303.272,119.279 301.949,120.593 287.754,118.773 284.894,122.719 283.2,125.482 281.104,136.557 
	282.795,150.127 280.088,144.968 277.966,136.457 273.243,134.172 271.749,140.593 267.478,140.275 267.565,132.302 
	265.157,125.642 255.606,122.123 237.795,122.689 235.03,127.351 231.95,129.47 229.112,133.744 229.295,135.305 235.782,138.366 
	238.468,141.299 241.002,144.978 241.56,150.99 240.519,150.414 238.438,143.962 228.409,144.689 216.53,172.91 205.563,177.79 
	205.983,184.362 216.759,191.469 214.629,198.903 208.737,204.343 201.668,207.844 199.034,215.168 194.709,221.262 
	189.245,221.589 181.627,216.33 174.909,215.06 173.468,220.715 173.972,230.964 173.545,237.575 171.12,245.905 168.825,257.894 
	163.806,262.307 162.433,267.019 163.405,279.454 162.702,283.131 165.127,288.17 164.968,295.416 167.579,302.218 166.588,307.574 
	157.54,317.351 162.293,321.497 159.698,326.165 159.112,331.208 161.53,336.823 162.741,342.22 162.052,350.681 157.897,354.31 
	165.642,363.376 169.334,369.192 172.252,377.171 185.418,380.843 211.866,393.884 220.905,399.729 217.892,407.601 202.94,421.706 
	199.757,430.306 191.397,446.589 187.243,466.272 187.336,473.509 188.356,475.774 192.901,481.091 218.526,481.976 
	237.345,480.862 251.173,486.878 262.985,494.821 270.788,492.884 277.754,493.46 283.679,495.954 286.769,502.585 293.379,507.058 
	297.447,505.3 300.318,500.755 305.689,496.53 313.991,498.509 322.774,505.237 332.487,506.37 347.487,498.864 371.823,498.47 
	375.202,495.237 383.243,498.679 393.799,499.71 396.295,505.608 402.204,503.528 402.351,497.913 398.504,486.062 398.854,474.255 
	403.019,466.36 419.629,461.312 422.332,454.788 425.968,448.894 438.747,444.909 440.075,439.401 437.106,434.817 420.411,419.069 
	414.372,409.7 396.052,392.112 390.202,382.112 391.476,369.616 390.661,361.058 382.78,356.458 377.687,348.763 378.356,342.61 
	379.509,339.704 389.2,350.749 390.92,350.55 395.192,341.745 406.407,337.976 418.761,335.403 430.832,330.69 436.14,323.274 
	462.838,315.925 466.388,300.987 472.829,303.17 476.668,311.731 481.183,318.255 485.685,318.571 488.526,313.333 491.866,301.173 
	493.649,287.594 493.028,284.552 483.448,271.3 483.019,255.109 483.875,248.42 483.536,237.497 481.944,230.983 482.019,215.017 
	481.192,209.504 472.354,201.677 472.403,196.994 475.754,188.984 480.329,181.449 481.72,173.654 482.565,162.839 478.327,151.596 
	477.336,145.871 463.478,140.017 462.672,131.486 458.067,122.243 451.983,122.461 448.468,118.742 446.618,118.205 
	445.545,113.405 440.92,109.935 437.849,105.492 427.858,106.387 422.752,107.748 418.297,110.314 420.065,107.082 423.913,104.092 
	430.304,100.781 426.247,99.639 420.802,100.195 411.101,109.538 407.702,115.383 404.864,116.965 405.313,112.868 392.858,114.489 
	382.379,121.367 383.845,124.955 378.136,124.279 370.87,121.107 361.476,125.612 "/>
<polygon fill="#DFDCC9" points="460.226,103.234 460.196,107.201 461.847,110.732 461.192,113.305 458.337,110.8 454.519,111.586 
	452.384,113.275 447.244,111.673 443.757,107.946 445.544,105.482 446.169,102.331 445.128,97.341 447.901,96.862 455.466,101.328 
	454.562,98.225 451.11,95.273 449.112,92.072 450.841,89.984 454.142,91.027 454.621,94.069 459.459,94.895 462.345,96.664 "/>
<polygon fill="#DFDCC9" points="149.229,573.821 148.416,565.29 143.239,563.063 142.916,554.235 144.987,542.21 143.058,540.55 
	130.187,538.229 119.929,549.147 114.489,551.394 112.11,549.226 116.007,532.942 120.274,524.583 123.834,522.366 127.36,518.073 
	132.839,515.823 134.489,514.026 137.521,507.126 143.077,501.452 162.81,486.272 160.86,481.926 164.688,477.644 177.146,480.745 
	182.252,479.323 188.239,475.745 192.741,481.081 218.399,481.956 237.228,480.853 251.056,486.868 262.862,494.801 
	267.468,501.301 264.284,507.673 262.218,514.382 266.69,524.095 270.675,528.054 277.995,532.444 284.616,534.245 290.606,531.819 
	295.699,536.624 292.409,544.333 292.296,549.226 288.957,551.077 280.983,550.407 278.937,555.051 279.147,560.569 280.905,565.14 
	279.069,568.313 264.343,562.933 255.905,561.585 251.979,556.872 246.959,553.508 244.157,561.263 234.444,574.456 231.72,581.442 
	229.483,584.339 224.89,580.433 221.368,573.841 213.776,566.442 211.433,551.462 202.683,554.675 197.442,559.724 196.407,566.413 
	193.181,569.505 183.985,575.062 174.649,572.976 155.642,574.358 "/>
<polygon fill="#DFDCC9" points="138.653,347.976 132.692,348.157 125.485,345.003 121.131,338.962 114.133,333.147 116.583,329.597 
	113.585,327.269 116.842,311.246 112.731,310.388 107.14,314.802 103.299,319.177 96.296,317.708 90.251,313.743 90.948,302.345 
	90.44,296.671 87.628,292.208 79.694,287.584 71.603,279.801 65.202,276.222 62.051,262.199 54.549,261.423 47.897,256.003 
	47.59,249.553 50.144,238.737 50.7,236.359 67.995,231.125 74.942,229.621 79.913,229.968 79.747,230.704 89.508,239.265 
	103.116,237.99 114.479,233.728 122.433,233.479 132.96,235.09 135.671,239.86 137.618,240.246 138.366,244.821 142.907,249.006 
	149.288,250.656 153.758,255.368 152.868,262.287 150.642,269.313 150.437,276.559 154.899,281.632 162.59,283.111 165.008,288.16 
	164.851,295.396 167.472,302.198 166.476,307.545 157.433,317.317 152.761,316.823 145.313,320.54 139.489,328.425 140.651,337.649 
	"/>
<polygon fill="#DFDCC9" points="440.075,439.401 438.747,444.909 425.969,448.894 422.331,454.788 419.63,461.312 403.019,466.36 
	398.854,474.255 398.503,486.062 402.35,497.913 402.204,503.528 396.296,505.608 393.801,499.71 383.243,498.679 375.202,495.237 
	371.823,498.47 347.487,498.864 332.487,506.37 322.774,505.237 313.991,498.509 305.689,496.53 300.318,500.755 297.447,505.3 
	293.38,507.058 286.769,502.585 283.68,495.954 277.755,493.46 270.788,492.884 262.985,494.821 267.596,501.312 272.696,505.437 
	273.094,511.165 272.009,519.157 266.807,524.104 270.827,528.063 278.122,532.454 284.733,534.255 290.759,531.849 
	295.826,536.644 304.771,540.788 308.034,540.618 320.29,538.528 334.596,534.157 348.809,534.802 356.085,534.274 359.903,532.047 
	364.44,531.771 366.085,533.259 365.721,536.8 366.387,542.903 368.532,548.591 376.794,555.071 379.932,555.944 386.514,561.472 
	409.012,566.374 418.614,570.778 424.889,571.683 436.856,572.669 458.221,576.53 464.812,573.083 471.647,565.667 481.589,563.718 
	495.646,567.776 499.62,561.839 502.702,561.644 515.606,564.069 517.315,558.343 523.63,555.677 531.579,548.015 539.704,546.345 
	539.187,538.093 539.889,531.384 546.721,518.401 542.18,512.009 545.471,506.54 564.396,506.979 568.024,501.312 568.562,486.907 
	563.819,476.8 560.079,461.101 560.489,451.198 555.241,443.665 529.831,444.528 520.467,435.006 514.6,431.687 490.714,428.903 
	486.071,435.524 483.43,441.726 476.221,447.224 469.987,449.421 461.76,449.739 453.663,448.2 448.776,443.864 "/>
<polygon fill="#DFDCC9" points="512.794,74.675 511.628,65.202 506.71,60.342 502.364,58.145 499.763,68.474 502.525,72.063 
	506.48,73.85 "/>
<polygon fill="#DFDCC9" points="406.437,68.264 407.97,68.066 410.226,69.268 410.909,71.794 415.899,74.953 415.929,78.562 
	412.052,80.969 411.319,82.777 409.728,91.088 407.472,88.762 408.625,80.59 406.993,78.702 406.476,74.685 405.173,73.594 
	403.864,68.92 403.972,67.995 "/>
<polygon fill="#DFDCC9" points="387.839,65.739 388.732,66.406 389.347,69.328 391.657,70.153 393.8,73.057 395.671,73.84 
	395.851,72.351 397.888,72.578 398.058,71.098 400.544,71.386 400.72,73.474 402.751,76.713 404.103,84.807 401.505,85.451 
	395.812,83.672 394.05,85.552 390.958,85.939 385.343,79.805 379.327,76.427 378.292,73.264 380.202,73.701 382.618,70.959 
	380.7,70.729 379.558,67.568 382.359,66.027 386.755,66.555 "/>
<polygon fill="#DFDCC9" points="350.622,26.721 353.829,25.251 361.745,25.391 366.036,29.355 367.667,29.187 368.194,25.28 
	369.768,23.979 373.493,32.953 372.448,37.746 373.204,41.82 374.069,43.441 376.823,44.743 376.696,45.847 374.807,45.42 
	374.02,50.42 372.141,56.633 367.243,56.931 363.464,58.344 360.124,57.328 355.612,53.721 349.559,54.407 349.893,52.002 
	352.429,49.316 349.991,48.979 343.483,45.242 343.684,40.729 341.143,37.338 342.497,34.685 340.44,31.732 341.393,31.872 
	341.573,30.568 340.411,28.323 340.671,26.465 343.62,26.882 346.804,28.64 "/>
<polygon fill="#DFDCC9" points="374.952,58.493 375.534,54.027 376.725,52.289 378.751,52.529 377.946,61.325 373.913,66.693 
	373.175,70.551 371.428,72.419 369.396,77.082 367.657,77.806 367.858,72.917 366.456,68.762 367.696,68.354 369.952,62.768 
	372.481,59.118 "/>
<polygon fill="#DFDCC9" points="399.19,6.076 404.489,7.834 412.879,8.591 412.442,11.394 410.353,12.09 409.67,17.1 
	408.077,17.875 408.377,18.859 409.968,18.083 409.825,22.972 409.894,26.006 412.752,23.49 414.42,18.203 415.524,17.766 
	416.09,13.859 415.554,13.799 416.237,12.565 417.282,12.676 419.229,19.873 418.752,23.222 417.702,23.093 416.524,24.873 
	417.472,25.16 417.332,26.442 419.2,26.84 421.188,12.725 420.065,10.529 417.194,9.643 417.052,7.178 421.569,2.756 427.702,1.74 
	428.356,0.678 432.34,0.727 435.056,4.951 437.146,13.103 438.478,13.601 437.653,16.345 438.19,19.416 439.073,20.07 
	438.614,23.412 440.215,29.613 435.793,29.157 433.536,31.186 430.593,30.89 427.127,34.306 425.187,37.487 424.063,41.892 
	427.95,42.487 430.245,47.26 429.509,53.024 420.323,54.328 419.054,56.066 418.795,58.493 419.747,58.601 420.284,61.674 
	419.317,61.574 418.634,62.995 418.077,66.901 414.558,67.48 412.849,65.202 404.278,62.559 401.983,60.778 402.12,59.665 
	404.978,61.127 405.006,57.16 405.968,57.27 406.198,55.222 398.243,52.24 390.323,51.662 390.489,46.604 386.862,44.655 
	386.14,42.668 386.276,41.543 387.282,41.286 388.166,38.383 389.67,28.174 388.435,25.947 384.099,24.844 383.308,23.412 
	385.5,22.17 382.263,20.648 382.379,19.724 384.586,18.48 392.849,19.675 396.437,19.157 398.058,14.436 401.524,14.844 
	403.146,13.711 404.011,10.788 "/>
<polygon fill="#DFDCC9" points="298.751,57.419 303.927,57.846 317.575,63.701 323.104,61.872 325.45,61.445 326.364,60.451 
	327.917,60.283 328.761,61.931 331.72,62.736 332.102,60.134 330.968,57.309 328.741,54.704 324.686,54.118 324.763,50.729 
	325.499,45.897 332.052,42.668 332.37,40.44 330.876,40.231 331.198,35.15 333.673,28.672 332.525,26.244 339.011,20.918 
	338.896,18.63 335.528,13.967 339.386,13.193 346.882,15.4 348.087,11.394 345.939,6.342 348.761,4.465 356.275,6.272 
	359.768,2.575 359.636,0.132 358.021,0.225 293.334,0.225 290.085,0.14 289.06,6.215 285.886,16.164 288.819,16.643 291.286,15.529 
	296.451,19.981 299.83,25.082 301.72,31.465 298.531,51.306 "/>
<polygon fill="#DFDCC9" points="156.505,137.393 158.435,131.456 158.288,132.182 154.063,137.471 147.312,142.78 144.298,147.719 
	149.978,145.453 153.595,139.678 "/>
<polygon fill="#DFDCC9" points="104.249,210.339 103.005,208.508 107.78,208.985 112.55,215.983 112.956,218 "/>
<polygon fill="#DFDCC9" points="95.095,212.556 98.962,211.667 104.278,215.734 104.278,217.854 "/>
<polygon fill="#DFDCC9" points="87.14,220.217 85.007,226.101 86.944,226.54 89.328,224.948 89.874,222.565 "/>
<polygon fill="#DFDCC9" points="162.702,283.131 155.016,281.661 150.573,276.593 150.764,269.332 152.989,262.316 153.874,255.397 
	149.401,250.686 143.038,249.035 138.473,244.841 137.761,240.28 135.792,239.89 133.077,235.1 122.54,233.498 114.587,233.737 
	103.223,238.02 89.616,239.284 79.884,230.734 80.046,229.997 81.911,229.074 86.696,229.753 92.458,235.666 99.229,233.874 
	104.903,234.724 107.647,233.21 103.038,231.252 96.534,230.783 93.272,228.728 96.706,224.074 110.958,223.908 118.464,221.677 
	130.44,221.301 134.93,219.738 132.712,216.789 124.04,218.43 118.233,216.618 113.532,213.688 110.343,209.143 111.628,203.269 
	113.175,199.948 130.909,186.062 140.753,162.751 146.896,152.891 153.19,151.687 154.479,157.143 157.673,161.25 157.462,163.506 
	156.886,164.551 151.149,165.295 149.87,167.146 148.497,170.881 147.94,178.656 147.106,180.971 149.919,185.375 155.919,189.281 
	159.161,190.127 160.938,188.764 160.86,183.379 158.845,178.955 158.854,176.062 161.837,175.713 166.241,172.939 168.438,165.912 
	172.702,158.525 171.18,156.875 166.935,156.221 166.569,154.043 167.741,143.146 169.016,140.334 172.673,135.881 179.093,132.383 
	186.511,130.186 193.458,130.186 201.173,133.396 208.614,131.338 216.358,132.004 221.739,134.896 226.124,140.275 
	228.409,144.689 216.53,172.91 205.563,177.79 205.983,184.362 216.759,191.469 214.63,198.903 208.737,204.343 201.667,207.844 
	199.034,215.168 194.708,221.262 189.245,221.589 181.628,216.33 174.909,215.061 173.468,220.715 173.973,230.964 173.546,237.575 
	171.12,245.905 168.825,257.893 163.807,262.307 162.432,267.019 163.405,279.454 "/>
<polygon fill="#DFDCC9" points="149.392,353.474 157.897,354.31 162.052,350.681 162.741,342.22 161.53,336.823 159.112,331.208 
	159.698,326.165 162.292,321.497 157.539,317.351 152.897,316.833 145.421,320.569 139.61,328.435 140.782,337.679 138.796,348.005 
	"/>
<polygon fill="#DFDCC9" points="156.505,137.393 158.435,131.456 158.288,132.182 154.063,137.471 147.312,142.78 144.298,147.719 
	149.978,145.453 153.595,139.678 "/>
<polygon fill="#DFDCC9" points="104.249,210.339 103.005,208.508 107.78,208.985 112.55,215.983 112.956,218 "/>
<polygon fill="#DFDCC9" points="95.095,212.556 98.962,211.667 104.278,215.734 104.278,217.854 "/>
<polygon fill="#DFDCC9" points="87.14,220.217 85.007,226.101 86.944,226.54 89.328,224.948 89.874,222.565 "/>
<polygon fill="#DFDCC9" points="162.702,283.131 155.016,281.661 150.573,276.593 150.764,269.332 152.989,262.316 153.874,255.397 
	149.401,250.686 143.038,249.035 138.473,244.841 137.761,240.28 135.792,239.89 133.077,235.1 122.54,233.498 114.587,233.737 
	103.223,238.02 89.616,239.284 79.884,230.734 80.046,229.997 81.911,229.074 86.696,229.753 92.458,235.666 99.229,233.874 
	104.903,234.724 107.647,233.21 103.038,231.252 96.534,230.783 93.272,228.728 96.706,224.074 110.958,223.908 118.464,221.677 
	130.44,221.301 134.93,219.738 132.712,216.789 124.04,218.43 118.233,216.618 113.532,213.688 110.343,209.143 111.628,203.269 
	113.175,199.948 130.909,186.062 140.753,162.751 146.896,152.891 153.19,151.687 154.479,157.143 157.673,161.25 157.462,163.506 
	156.886,164.551 151.149,165.295 149.87,167.146 148.497,170.881 147.94,178.656 147.106,180.971 149.919,185.375 155.919,189.281 
	159.161,190.127 160.938,188.764 160.86,183.379 158.845,178.955 158.854,176.062 161.837,175.713 166.241,172.939 168.438,165.912 
	172.702,158.525 171.18,156.875 166.935,156.221 166.569,154.043 167.741,143.146 169.016,140.334 172.673,135.881 179.093,132.383 
	186.511,130.186 193.458,130.186 201.173,133.396 208.614,131.338 216.358,132.004 221.739,134.896 226.124,140.275 
	228.409,144.689 216.53,172.91 205.563,177.79 205.983,184.362 216.759,191.469 214.63,198.903 208.737,204.343 201.667,207.844 
	199.034,215.168 194.708,221.262 189.245,221.589 181.628,216.33 174.909,215.061 173.468,220.715 173.973,230.964 173.546,237.575 
	171.12,245.905 168.825,257.893 163.807,262.307 162.432,267.019 163.405,279.454 "/>
<polygon fill="#DFDCC9" points="0.187,270.757 0.187,646.892 130.209,646.892 133.308,647.044 135.978,640.085 136.437,634.06 
	130.534,630.569 129.649,627.171 129.884,623.415 132.253,617.341 137.155,613.044 146.349,608.552 145.671,601.384 
	140.763,580.729 140.681,576.511 141.707,572.884 149.382,573.851 148.565,565.319 143.386,563.083 143.039,554.265 
	145.114,542.239 143.185,540.56 130.304,538.259 120.046,549.167 114.636,551.423 112.233,549.255 116.14,532.972 120.392,524.593 
	123.952,522.396 127.491,518.103 132.959,515.847 134.606,514.036 137.638,507.165 143.229,501.481 162.931,486.292 
	160.983,481.956 164.815,477.673 177.263,480.765 182.375,479.353 188.356,475.774 187.334,473.509 187.243,466.272 
	191.397,446.589 199.757,430.306 202.94,421.706 217.892,407.601 220.905,399.729 211.866,393.884 185.416,380.843 172.253,377.171 
	169.332,369.192 165.642,363.376 157.897,354.31 149.392,353.474 138.796,348.005 132.8,348.177 125.612,345.032 121.237,338.981 
	114.25,333.167 116.707,329.636 113.692,327.298 116.964,311.257 112.839,310.413 107.282,314.831 103.416,319.206 96.437,317.737 
	90.373,313.772 91.065,302.379 90.563,296.69 87.735,292.218 79.806,287.613 71.716,279.83 65.323,276.251 62.159,262.229 
	54.675,261.452 47.897,256.003 47.707,249.563 49.996,239.844 50.25,238.767 46.69,240.041 31.69,239.343 12.892,241.491 
	5.397,252.824 0.161,266.55 "/>
<polygon fill="#DFDCC9" points="295.826,536.644 292.526,544.343 292.43,549.255 289.089,551.087 281.104,550.417 279.089,555.081 
	279.264,560.579 281.055,565.159 279.196,568.323 264.473,562.966 256.022,561.604 252.106,556.892 247.077,553.519 
	244.284,561.282 234.571,574.476 231.876,581.452 229.61,584.349 225.021,580.462 221.501,573.87 213.894,566.462 211.55,551.491 
	202.813,554.694 197.565,559.753 196.53,566.433 193.298,569.515 184.112,575.081 174.805,572.985 155.764,574.388 149.382,573.851 
	141.706,572.884 140.68,576.511 140.764,580.729 145.671,601.384 146.348,608.552 137.155,613.044 132.253,617.341 129.884,623.414 
	129.649,627.171 130.534,630.569 136.437,634.06 135.978,640.085 133.307,647.044 138.333,646.892 357.188,646.892 360.696,646.372 
	360.096,636.745 362.062,631.487 370.821,625.96 373.553,626.228 374.356,627.64 378.106,627.044 403.903,616.097 410.524,618.552 
	417.598,615.589 422.889,616.97 423.057,621.487 419.854,626.663 419.747,627.966 423.376,629.206 427.491,628.601 430.437,626.595 
	431.608,623.483 430.016,620.183 427.385,618.649 425.841,614.763 420.187,611.673 418.507,609.655 418.981,603.87 415.721,598.899 
	417.155,592.825 419.382,587.937 415.294,588.532 413.614,587.067 413.903,583.532 416.687,578.323 424.889,571.683 
	418.614,570.778 409.012,566.374 386.514,561.472 379.932,555.944 376.794,555.071 368.532,548.591 366.389,542.903 365.721,536.8 
	366.085,533.259 364.44,531.771 359.903,532.048 356.085,534.274 348.809,534.802 334.598,534.157 320.29,538.528 308.034,540.618 
	304.771,540.788 "/>
<polygon fill="#DFDCC9" points="593.522,623.882 593.522,646.892 421.354,646.892 415.948,646.995 414.528,630.729 419.679,635.661 
	430.724,636.374 432.731,632.409 436.397,636.438 449.304,637.063 455.899,625.901 457.989,626.228 465.675,641.028 
	468.864,640.872 469.459,637.728 471.56,638.044 472.604,640.173 475.886,640.593 479.161,645.114 481.808,645.28 485.793,642.708 
	485.563,633.695 488.536,629.935 486.28,626.058 494.668,619.636 501.222,619.655 504.812,614.05 505.547,605.462 501.002,600.521 
	500.905,597.708 503.487,593.542 518.526,589.495 520.963,587.39 521.521,584.05 526.827,584.319 529.353,585.56 529.929,584.655 
	528.591,579.724 528.767,576.165 531.739,573.679 534.571,574.017 540.797,579.187 543.438,577.806 544.024,579.319 
	552.375,583.802 559.562,595.31 569.733,601.126 577.957,612.659 586.472,615.729 593.394,620.614 "/>
<polygon fill="#DFDCC9" points="593.581,505.469 578.044,492.503 569.061,487.202 568.561,486.907 568.024,501.312 564.395,506.979 
	545.47,506.54 542.179,512.009 546.72,518.401 539.891,531.384 539.186,538.093 539.704,546.345 531.579,548.015 523.63,555.677 
	528.995,556.136 534.235,559.206 537.745,569.294 544.024,579.319 552.374,583.802 559.561,595.31 569.733,601.126 577.956,612.659 
	586.473,615.729 593.395,620.614 "/>
<polygon fill="#DFDCC9" points="593.522,446.694 593.522,499.716 593.562,503.726 593.5,505.499 577.892,492.503 568.438,486.907 
	563.688,476.8 559.961,461.101 564.396,453.04 569.377,446.321 574.284,446.868 578.131,449.997 588.946,449.251 593.5,445.927 "/>
<polygon fill="#DFDCC9" points="593.522,360.55 593.522,444.272 593.5,445.927 588.946,449.251 578.131,449.997 574.284,446.868 
	569.377,446.321 564.396,453.04 559.961,461.101 560.368,451.198 555.118,443.665 529.704,444.519 520.329,435.007 514.474,431.687 
	490.597,428.904 485.954,435.524 483.308,441.726 476.101,447.224 469.851,449.411 461.627,449.739 453.545,448.177 
	448.653,443.854 439.959,439.382 436.983,434.808 420.284,419.069 414.25,409.681 395.929,392.093 390.075,382.103 391.358,369.606 
	390.543,361.048 382.668,356.458 377.569,348.743 378.233,342.601 379.386,339.704 389.088,350.729 390.812,350.53 395.075,341.735 
	406.286,337.976 418.653,335.404 430.69,330.681 436.032,323.255 462.711,315.925 466.271,300.978 472.722,303.17 476.56,311.712 
	481.062,318.255 485.563,318.571 489.841,321.692 500.485,311.712 507.194,315.896 510.457,322.669 515.437,322.61 530.088,326.257 
	535.808,334.817 543.591,336.526 544.366,337.688 544.265,339.733 540.558,347.054 553.341,360.222 558.17,362.497 566.315,357.409 
	564.454,353.216 565.47,349.138 581.862,355.96 593.479,357.773 "/>
<polygon fill="#DFDCC9" points="593.522,94.715 593.522,355.967 593.422,357.744 581.979,355.96 565.577,349.138 564.571,353.216 
	566.433,357.409 558.293,362.507 553.459,360.222 540.675,347.054 544.386,339.733 544.483,337.688 543.698,336.526 
	535.935,334.827 530.187,326.257 515.558,322.62 510.567,322.679 507.325,315.905 500.606,311.731 489.959,321.692 485.685,318.571 
	488.526,313.333 491.866,301.173 493.649,287.594 493.028,284.552 483.448,271.3 483.019,255.11 483.875,248.42 483.536,237.497 
	481.944,230.983 482.019,215.017 481.192,209.504 472.354,201.677 472.403,196.994 475.752,188.984 480.329,181.449 481.72,173.654 
	482.565,162.839 478.327,151.596 477.334,145.871 487.256,151.537 489.543,147.949 489.929,142.91 481.618,139.648 487.325,136.14 
	493.679,134.36 494.284,136.667 502.116,129.528 510.782,125.612 522.325,124.121 542.862,119.16 564.293,102.797 573.131,100.194 
	587.745,93.305 593.451,92.295 "/>
<polygon fill="#DFDCC9" points="436.354,0.225 544.688,0.225 547.834,0.229 545.168,8.74 538.263,8.342 531.202,5.847 524.493,7.09 
	519.216,4.682 510.577,3.698 504.123,7.168 501.032,13.132 495.407,10.817 491.202,17.448 487.565,25.607 488.298,38.652 
	485.06,46.853 481.856,49.229 475.841,45.707 465.504,45.183 454.063,48.284 447.272,45.381 439.489,45.002 440.524,42.08 
	442.423,41.514 443.854,34.685 445.983,31.504 444.362,25.51 440.323,18.135 434.373,0.204 "/>
<polygon fill="#DFDCC9" points="0.187,180.913 0.187,117.943 0.128,115.2 14.396,116.14 22.604,118.685 27.11,122.004 
	32.169,127.79 35.72,137.253 35.164,148.188 31.843,157.641 24.782,170.443 18.142,175.365 12.957,176.557 10.021,175.404 
	9.625,181.559 7.517,185.088 1.94,185.394 0.139,183.402 "/>
<polygon fill="#DFDCC9" points="0.187,214.662 0.187,220.758 0.216,224.676 2.892,223.615 6.433,216.926 5.416,213.757 
	0.16,212.514 "/>
<path fill="#B35638" d="M440.075,439.401l-2.969-4.584l-16.695-15.748l-6.039-9.369l-18.319-17.588l-5.851-10l1.272-12.496
	l-0.813-8.559l-7.881-4.6l-5.094-7.695l0.67-6.152l1.153-2.906l9.69,11.045l1.719-0.199l4.273-8.805l11.215-3.77l3.841-0.801
	c0,0-2.227-20.793-25.352-23.918c0,0-14.062-1.875-20-21.25c-5-11.25-10-29.375-25-10.625c-8.75,10-65.099,70.838-130.987,111.044
	c0,0-2.763,2.55-3.231,3.956c-0.469,1.25-3.125,5.938-9.375,6.875c0,0-11.875,34.844-31.094,47.656
	c-1.406,1.093-2.344,2.5-0.625,4.218c1.094,1.407,12.969,19.845,13.594,30.157c0,6.875,0.156,33.281-10.156,60.781
	c-3.75,8.906-5.781,11.719-2.344,19.375c0,0,2.5,4.844,5,6.719c0,0,2.813,2.188,4.375,6.25c0.781,2.968,1.563,9.063,5,6.875
	c1.406-1.563,2.5-2.657,1.563-6.094c-0.625-2.031-1.354-2.329,2.37-4.133l9.194-5.557l3.228-3.092l1.035-6.689l5.239-5.049
	l8.75-3.213l2.345,14.98l7.592,7.398l3.521,6.592l4.595,3.906l2.237-2.896l2.724-6.986l9.713-13.193l2.803-7.754l5.02,3.363
	l3.926,4.713l8.438,1.348l14.726,5.381l1.836-3.174l-1.758-4.57l-0.211-5.518l2.047-4.645l7.973,0.67l3.34-1.852
	c0,0,0.726,2.99,1.976,4.24s3.333,2.916,11.667,2.5c5-0.416,15,0,16.666,2.5c1.667,2.5,2.5,4.165,1.25,7.5
	c-1.25,3.334-0.832,7.917,5.834,5.834c6.666-2.084,12.916-4.169,19.583-13.334c3.75-4.166,6.25-7.083,18.333-5.416
	c5.834,1.666,8.336,1.998,13.543,3.916l5.366,4.506l22.498,4.902l9.603,4.404l6.274,0.904l11.968,0.986l21.364,3.861l6.591-3.447
	l6.836-7.416l9.941-1.949l14.057,4.059l3.975-5.938l3.082-0.195l12.904,2.426l1.709-5.727l6.314-2.666l7.949-7.662l8.125-1.67
	l-0.518-8.252l0.702-6.709l6.832-12.982l-4.541-6.393l3.291-5.469l18.925,0.439l3.629-5.668l0.537-14.404l-4.742-10.107
	l-3.74-15.699l0.41-9.902l-5.248-7.533l-25.41,0.863l-9.364-9.522l-5.867-3.319l-23.886-2.783l-4.643,6.621l-2.642,6.201
	l-7.209,5.498l-6.233,2.197l-8.228,0.318l-8.097-1.539l-4.887-4.336L440.075,439.401"/>
<path fill="#FEC77C" d="M476.354,221.382c-5-2.5-7.083-6.666-10.416-14.166c-3.75-7.5-5-7.5-15-10.834
	c-37.918-9.584-18.334,31.25-12.917,41.25c10.833,28.333-10,22.917-21.667,18.334c-20.088-6.25-38.333-2.917-47.916-1.25
	c-10,2.917-28.334,10-37.084,12.5c-11.666,3.75-28.75,1.666-35-0.417c-12.083-4.167-13.242-4.583-28.75-1.667
	s-34.166,7.916-37.916,9.166c-9.584,3.334-12.917-5.416-14.167-8.749c-1.667-6.667-10-7.917-10-7.917
	c-12.5-1.25-14.583,3.75-17.083,9.167s-15,9.583-20.417,10.417c-14.583,3.75-11.25,18.072-11.25,18.072
	c2.188,5.156,1.875,9.219,1.406,11.719c-1.25,7.344-5.28,9.826-5.28,9.826l-7.477,3.736l-5.811,7.865l1.172,9.244l-1.986,10.326
	l10.025,5.174l0.57,0.295l8.506,0.836l0.496,0.58l7.248,8.486l3.692,5.816l2.918,7.979l13.164,3.672l23.074,11.377l0.419,0.206
	c65.889-40.206,122.237-101.044,130.987-111.044c15-18.75,20-0.625,25,10.625c5.938,19.375,20,21.25,20,21.25
	c23.125,3.125,25.352,23.918,25.352,23.918l1.079-0.225l7.434-1.547l12.071-4.713l5.308-7.416l26.698-7.35l3.55-14.938l6.442,2.183
	l3.838,8.562l4.515,6.523l4.502,0.316l2.842-5.238l3.34-12.16l1.783-13.579l-0.621-3.042l-9.58-13.252l-0.43-16.19l0.856-6.689
	l-0.339-10.923l-1.592-6.514l0.041-8.664L476.354,221.382z"/>
<path fill="#7895A3" d="M360.44,121.706l1.035,3.906l9.395-4.505l7.266,3.172l5.709,0.676l-1.466-3.588l10.479-6.878l12.455-1.621
	l-0.449,4.097l2.838-1.582l3.398-5.845l9.701-9.343l5.445-0.557l4.057,1.143l-6.391,3.311l-3.848,2.99l-1.769,3.232l4.455-2.566
	l5.106-1.361l9.99-0.895l3.071,4.442l4.625,3.471l1.073,4.8l1.85,0.537l3.516,3.719l6.084-0.218l4.604,9.243l0.806,8.53
	l13.858,5.854l0.991,5.725l4.238,11.243l-0.846,10.815l-1.391,7.795l-4.575,7.535l-3.351,8.01l-0.049,4.683l8.838,7.827l0.826,5.513
	l-0.029,6.054l-0.004,1.249l-5.631-0.938c-5-2.5-7.083-6.666-10.416-14.166c-3.75-7.5-5-7.5-15-10.834
	c-37.918-9.584-18.334,31.25-12.917,41.25c10.833,28.333-10,22.917-21.667,18.334c-20.088-6.25-38.333-2.917-47.916-1.25
	c-10,2.917-28.334,10-37.084,12.5c-11.666,3.75-28.75,1.666-35-0.417c-12.083-4.167-13.242-4.583-28.75-1.667
	s-34.166,7.916-37.916,9.166c-6.557,2.28-10.187-1.094-12.228-4.521c0,0-8.868-38.294-28.216-48.188l-0.288-0.198l-0.724-0.5
	l-6.606-4.561l-6.718-1.271l-0.95-0.709c-1.25-1.563-2.344-14.063-2.5-18.281c-0.156-9.063-3.594-12.344-5.156-13.281
	s-2.656-3.438-3.594-4.844c-0.3-0.45-0.695-0.818-1.093-1.11l-1.702-0.896l1.922-0.225l4.405-2.773l2.197-7.027l4.264-7.387
	l-0.368-0.4l-1.155-1.25c0,0,3.301,0.757,5.176,1.382c1.875,0.833,2.5,1.458,13.125,0.833c4.584-0.416,7.084-1.25,13.334-0.833
	s14.537,3.151,25.186-14.361l0.41,0.794l10.029-0.728l2.08,6.452l1.041,0.576l-0.558-6.013l-2.534-3.679l-2.686-2.933l-6.487-3.062
	l-0.183-1.561l2.838-4.274l3.08-2.119l2.765-4.661l17.812-0.566l9.551,3.519l2.408,6.66l-0.088,7.974l4.271,0.317l1.494-6.421
	l4.723,2.285l2.122,8.511l2.707,5.159l-1.69-13.57l2.096-11.074l1.693-2.764l2.86-3.945l14.195,1.819l1.323-1.313l-7.427-7.017
	l1.094-4.961l2.793,0.039l1.162-2.485l-2.632-3.062L296.9,97.6l1.787-3.511l-2.314-2.275l-3.716-0.954l2.729-2.615l0.679-2.185
	l9.106-3.709l-0.884-4.313l-3.125-4.664l-1.039-2.628c0,0,2.273,0.429,4.355-2.071c2.084-2.5,3.127-5,3.334-8.125
	c0.208-3.125-1.042-7.916-1.667-8.958s-2.708-6.251,2.083-3.334c4.792,2.917,6.606,4.428,9.346,15.444l5.527-1.829l-0.752,2.913
	l4.424,0.268l9.262,4.723l2.388,7.168l-1.103,5.527l-4.463,4.304l1.937,2.544l4.851,0.666l-0.318,4.693l3.477,0.476l3.125-3.369
	l7.057,3.965l2.06,4.456l4.125,0.534l10.705-2.425l2.304,2.555l-0.703,5.578l-3.906,3.867l-4.922,2.783l-3.031,5.467L360.44,121.706
	"/>
<path fill="#7B6B91" d="M62.497,264.179l-0.445-1.979l-7.504-0.777l-6.65-5.42l-0.309-6.45l2.554-10.815l0.558-2.378l17.295-5.234
	l6.947-1.504l4.971,0.347l0.774-0.289l1.224-0.604l4.785,0.678l5.762,5.913l6.771-1.792l5.674,0.85l2.744-1.514l-4.609-1.958
	l-6.504-0.469l-3.262-2.056l3.434-4.652l14.252-0.167l7.506-2.231l11.977-0.376l4.488-1.563l-2.217-2.949l-8.672,1.641l-5.807-1.812
	l-4.701-2.93l-3.189-4.546l1.285-5.874l1.547-3.32l17.734-13.887l9.844-23.311l6.142-9.86l6.296-1.204l1.289,5.456l3.193,4.107
	l-0.211,2.256l-0.576,1.045l-5.736,0.744l-1.279,1.851l-1.373,3.735l-0.557,7.776l-0.834,2.313l2.813,4.404l6,3.907l3.242,0.845
	l1.777-1.363l-0.078-5.385l-2.016-4.424l0.01-2.894l1.06-0.124c0,0,1.857,0.601,2.795,2.007s2.031,3.906,3.594,4.844
	s5,4.219,5.156,13.281c0.156,4.219,1.25,16.719,2.5,18.281l0.95,0.71l6.719,1.27l6.605,4.561l1.012,0.698
	c19.348,9.895,28.217,48.188,28.217,48.188l-0.829-1.554c-0.49-1.023-0.847-1.97-1.111-2.675c-1.668-6.667-10-7.917-10-7.917
	c-12.5-1.25-14.583,3.75-17.083,9.167c-1.078,2.336-4.016,4.439-7.443,6.142c0,0-6.932,3.025-20.891,1.566
	c-8.75-1.459-25.416-6.041-37.708-5.833c-8.75-0.208-30.208,1.458-37.292,0C80.313,268.049,65.514,266.142,62.497,264.179"/>
<polygon fill="#7B6B91" points="156.505,137.393 158.435,131.456 158.288,132.182 154.063,137.471 147.312,142.78 144.298,147.719 
	149.978,145.453 153.595,139.678 "/>
<polygon fill="#7B6B91" points="104.249,210.339 103.005,208.508 107.78,208.985 112.55,215.983 112.956,218 "/>
<polygon fill="#7B6B91" points="95.095,212.556 98.962,211.667 104.278,215.734 104.278,217.854 "/>
<polygon fill="#7B6B91" points="87.14,220.217 85.007,226.101 86.944,226.54 89.328,224.948 89.874,222.565 "/>
<path fill="#B7CD81" d="M304.667,79.888l-0.379-1.851l-3.125-4.664l-3.838-9.711l0.464-2.032c0,0,0.232-1.081,1.482,1.419
	c1.041,1.875,1.666,3.958,2.5,5.208c0.832,2.084,0.625,2.5,2.916,4.167c2.293,1.667,3.959,2.499,4.793,5.833
	C309.896,80.341,309.646,81.727,304.667,79.888"/>
<path fill="#B7CD81" d="M227.999,143.896l-1.875-3.62l-4.385-5.379l-5.381-2.893l-7.744-0.666l-7.441,2.058l-7.715-3.21h-6.947
	l-7.418,2.197l-6.42,3.498l-3.658,4.453l-1.273,2.813l-1.172,10.896l0.366,2.178l4.243,0.654c0,0,3.3,0.757,5.175,1.382
	c1.875,0.833,2.5,1.458,13.125,0.833c4.584-0.416,7.084-1.25,13.334-0.833S217.352,161.408,227.999,143.896"/>
<path fill="#B7CD81" d="M251.771,156.382c0,0-6.667,0.417-5.833,5.417c0.833,5,0,6.666,4.583,5.833s7.083-2.917,6.667-6.667
	C256.771,157.215,253.854,155.549,251.771,156.382"/>
<polyline fill="none" stroke="#8A8F9E" stroke-width="0.25" points="266.69,524.095 271.872,519.124 272.931,511.136 
	272.556,505.417 267.468,501.302 264.284,507.673 262.218,514.382 266.69,524.095 "/>
<polyline fill="none" stroke="#8A8F9E" stroke-width="0.25" points="523.63,555.677 517.316,558.343 515.607,564.069 
	502.702,561.644 499.62,561.839 495.646,567.776 481.589,563.718 471.648,565.667 464.812,573.083 458.22,576.53 436.857,572.669 
	424.89,571.683 416.687,578.322 413.902,583.532 413.613,587.067 415.294,588.532 419.382,587.937 417.154,592.825 415.72,598.899 
	418.982,603.87 418.507,609.655 420.187,611.673 425.841,614.763 427.384,618.649 430.017,620.183 431.609,623.483 430.437,626.595 
	427.491,628.601 423.376,629.206 419.747,627.966 414.527,630.729 419.679,635.661 430.724,636.374 432.732,632.409 
	436.398,636.438 449.304,637.063 455.9,625.901 457.988,626.228 465.675,641.028 468.863,640.872 469.46,637.728 471.56,638.044 
	472.605,640.173 475.886,640.593 479.161,645.114 481.808,645.28 485.792,642.708 485.564,633.694 488.536,629.935 486.279,626.058 
	494.669,619.636 501.222,619.655 504.812,614.05 505.548,605.462 501.003,600.521 500.904,597.708 503.486,593.542 518.525,589.495 
	520.964,587.39 521.521,584.05 526.827,584.319 529.353,585.56 529.929,584.655 528.591,579.724 528.767,576.165 531.738,573.679 
	534.57,574.017 540.798,579.187 543.439,577.806 544.025,579.319 537.745,569.294 534.234,559.206 528.995,556.136 523.63,555.677 
	"/>
<polyline fill="none" stroke="#8A8F9E" stroke-width="0.25" points="360.44,121.706 359.616,118.564 362.647,113.098 
	367.569,110.314 371.476,106.447 372.179,100.869 369.875,98.314 359.17,100.739 355.045,100.205 352.985,95.749 345.929,91.784 
	342.804,95.153 339.327,94.678 339.646,89.984 334.795,89.318 332.858,86.774 337.321,82.471 338.424,76.943 336.036,69.775 
	326.774,65.053 322.351,64.785 323.103,61.872 317.575,63.701 303.927,57.846 298.752,57.419 297.325,63.662 301.163,73.373 
	304.288,78.037 305.172,82.351 296.065,86.06 295.387,88.244 292.657,90.859 296.373,91.813 298.688,94.089 296.9,97.6 
	298.263,101.794 300.895,104.855 299.732,107.341 296.939,107.302 295.846,112.263 303.272,119.279 301.949,120.593 
	287.754,118.773 284.894,122.719 283.2,125.482 281.104,136.557 282.795,150.127 280.088,144.968 277.966,136.457 273.243,134.172 
	271.749,140.593 267.478,140.275 267.565,132.302 265.157,125.642 255.606,122.123 237.795,122.689 235.03,127.351 231.95,129.47 
	229.112,133.744 229.295,135.305 235.782,138.366 238.468,141.299 241.002,144.978 241.56,150.99 240.519,150.414 238.438,143.962 
	228.409,144.689 216.53,172.91 205.563,177.79 205.983,184.362 216.759,191.469 214.629,198.903 208.737,204.343 201.668,207.844 
	199.034,215.168 194.709,221.262 189.245,221.589 181.627,216.33 174.909,215.06 173.468,220.715 173.972,230.964 173.545,237.575 
	171.12,245.905 168.825,257.894 163.806,262.307 162.433,267.019 163.405,279.454 162.702,283.131 165.127,288.17 164.968,295.416 
	167.579,302.218 166.588,307.574 157.54,317.351 162.293,321.497 159.698,326.165 159.112,331.208 161.53,336.823 162.741,342.22 
	162.052,350.681 157.897,354.31 165.642,363.376 169.334,369.192 172.252,377.171 185.418,380.843 211.866,393.884 220.905,399.729 
	217.892,407.601 202.94,421.706 199.757,430.306 191.397,446.589 187.243,466.272 187.336,473.509 188.356,475.774 192.901,481.091 
	218.526,481.976 237.345,480.862 251.173,486.878 262.985,494.821 270.788,492.884 277.754,493.46 283.679,495.954 286.769,502.585 
	293.379,507.058 297.447,505.3 300.318,500.755 305.689,496.53 313.991,498.509 322.774,505.237 332.487,506.37 347.487,498.864 
	371.823,498.47 375.202,495.237 383.243,498.679 393.799,499.71 396.295,505.608 402.204,503.528 402.351,497.913 398.504,486.062 
	398.854,474.255 403.019,466.36 419.629,461.312 422.332,454.788 425.968,448.894 438.747,444.909 440.075,439.401 437.106,434.817 
	420.411,419.069 414.372,409.7 396.052,392.112 390.202,382.112 391.476,369.616 390.661,361.058 382.78,356.458 377.687,348.763 
	378.356,342.61 379.509,339.704 389.2,350.749 390.92,350.55 395.192,341.745 406.407,337.976 418.761,335.403 430.832,330.69 
	436.14,323.274 462.838,315.925 466.388,300.987 472.829,303.17 476.668,311.731 481.183,318.255 485.685,318.571 488.526,313.333 
	491.866,301.173 493.649,287.594 493.028,284.552 483.448,271.3 483.019,255.109 483.875,248.42 483.536,237.497 481.944,230.983 
	482.019,215.017 481.192,209.504 472.354,201.677 472.403,196.994 475.754,188.984 480.329,181.449 481.72,173.654 482.565,162.839 
	478.327,151.596 477.336,145.871 463.478,140.017 462.672,131.486 458.067,122.243 451.983,122.461 448.468,118.742 
	446.618,118.205 445.545,113.405 440.92,109.935 437.849,105.492 427.858,106.387 422.752,107.748 418.297,110.314 420.065,107.082 
	423.913,104.092 430.304,100.781 426.247,99.639 420.802,100.195 411.101,109.538 407.702,115.383 404.864,116.965 405.313,112.868 
	392.858,114.489 382.379,121.367 383.845,124.955 378.136,124.279 370.87,121.107 361.476,125.612 360.44,121.706 "/>
<polyline fill="none" stroke="#8A8F9E" stroke-width="0.25" points="460.226,103.234 460.196,107.201 461.847,110.732 
	461.192,113.305 458.337,110.8 454.519,111.586 452.384,113.275 447.244,111.673 443.757,107.946 445.544,105.482 446.169,102.331 
	445.128,97.341 447.901,96.862 455.466,101.328 454.562,98.225 451.11,95.273 449.112,92.072 450.841,89.984 454.142,91.027 
	454.621,94.069 459.459,94.895 462.345,96.664 460.226,103.234 "/>
<polyline fill="none" stroke="#8A8F9E" stroke-width="0.25" points="149.229,573.821 148.416,565.29 143.239,563.063 
	142.916,554.235 144.987,542.21 143.058,540.55 130.187,538.229 119.929,549.147 114.489,551.394 112.11,549.226 116.007,532.942 
	120.274,524.583 123.834,522.366 127.36,518.073 132.839,515.823 134.489,514.026 137.521,507.126 143.077,501.452 162.81,486.272 
	160.86,481.926 164.688,477.644 177.146,480.745 182.252,479.323 188.239,475.745 192.741,481.081 218.399,481.956 237.228,480.853 
	251.056,486.868 262.862,494.801 267.468,501.301 264.284,507.673 262.218,514.382 266.69,524.095 270.675,528.054 277.995,532.444 
	284.616,534.245 290.606,531.819 295.699,536.624 292.409,544.333 292.296,549.226 288.957,551.077 280.983,550.407 
	278.937,555.051 279.147,560.569 280.905,565.14 279.069,568.313 264.343,562.933 255.905,561.585 251.979,556.872 246.959,553.508 
	244.157,561.263 234.444,574.456 231.72,581.442 229.483,584.339 224.89,580.433 221.368,573.841 213.776,566.442 211.433,551.462 
	202.683,554.675 197.442,559.724 196.407,566.413 193.181,569.505 183.985,575.062 174.649,572.976 155.642,574.358 
	149.229,573.821 "/>
<polyline fill="none" stroke="#8A8F9E" stroke-width="0.25" points="138.653,347.976 132.692,348.157 125.485,345.003 
	121.131,338.962 114.133,333.147 116.583,329.597 113.585,327.269 116.842,311.246 112.731,310.388 107.14,314.802 103.299,319.177 
	96.296,317.708 90.251,313.743 90.948,302.345 90.44,296.671 87.628,292.208 79.694,287.584 71.603,279.801 65.202,276.222 
	62.051,262.199 54.549,261.423 47.897,256.003 47.59,249.553 50.144,238.737 50.7,236.359 67.995,231.125 74.942,229.621 
	79.913,229.968 79.747,230.704 89.508,239.265 103.116,237.99 114.479,233.728 122.433,233.479 132.96,235.09 135.671,239.86 
	137.618,240.246 138.366,244.821 142.907,249.006 149.288,250.656 153.758,255.368 152.868,262.287 150.642,269.313 
	150.437,276.559 154.899,281.632 162.59,283.111 165.008,288.16 164.851,295.396 167.472,302.198 166.476,307.545 157.433,317.317 
	152.761,316.823 145.313,320.54 139.489,328.425 140.651,337.649 138.653,347.976 "/>
<polyline fill="none" stroke="#8A8F9E" stroke-width="0.25" points="440.075,439.401 438.747,444.909 425.969,448.894 
	422.331,454.788 419.63,461.312 403.019,466.36 398.854,474.255 398.503,486.062 402.35,497.913 402.204,503.528 396.296,505.608 
	393.801,499.71 383.243,498.679 375.202,495.237 371.823,498.47 347.487,498.864 332.487,506.37 322.774,505.237 313.991,498.509 
	305.689,496.53 300.318,500.755 297.447,505.3 293.38,507.058 286.769,502.585 283.68,495.954 277.755,493.46 270.788,492.884 
	262.985,494.821 267.596,501.312 272.696,505.437 273.094,511.165 272.009,519.157 266.807,524.104 270.827,528.063 
	278.122,532.454 284.733,534.255 290.759,531.849 295.826,536.644 304.771,540.788 308.034,540.618 320.29,538.528 334.596,534.157 
	348.809,534.802 356.085,534.274 359.903,532.047 364.44,531.771 366.085,533.259 365.721,536.8 366.387,542.903 368.532,548.591 
	376.794,555.071 379.932,555.944 386.514,561.472 409.012,566.374 418.614,570.778 424.889,571.683 436.856,572.669 458.221,576.53 
	464.812,573.083 471.647,565.667 481.589,563.718 495.646,567.776 499.62,561.839 502.702,561.644 515.606,564.069 517.315,558.343 
	523.63,555.677 531.579,548.015 539.704,546.345 539.187,538.093 539.889,531.384 546.721,518.401 542.18,512.009 545.471,506.54 
	564.396,506.979 568.024,501.312 568.562,486.907 563.819,476.8 560.079,461.101 560.489,451.198 555.241,443.665 529.831,444.528 
	520.467,435.006 514.6,431.687 490.714,428.903 486.071,435.524 483.43,441.726 476.221,447.224 469.987,449.421 461.76,449.739 
	453.663,448.2 448.776,443.864 440.075,439.401 "/>
<polyline fill="none" stroke="#8A8F9E" stroke-width="0.25" points="512.794,74.675 511.628,65.202 506.71,60.342 502.364,58.145 
	499.763,68.474 502.525,72.063 506.48,73.85 512.794,74.675 "/>
<polyline fill="none" stroke="#8A8F9E" stroke-width="0.25" points="406.437,68.264 407.97,68.066 410.226,69.268 410.909,71.794 
	415.899,74.953 415.929,78.562 412.052,80.969 411.319,82.777 409.728,91.088 407.472,88.762 408.625,80.59 406.993,78.702 
	406.476,74.685 405.173,73.594 403.864,68.92 403.972,67.995 406.437,68.264 "/>
<polyline fill="none" stroke="#8A8F9E" stroke-width="0.25" points="387.839,65.739 388.732,66.406 389.347,69.328 391.657,70.153 
	393.8,73.057 395.671,73.84 395.851,72.351 397.888,72.578 398.058,71.098 400.544,71.386 400.72,73.474 402.751,76.713 
	404.103,84.807 401.505,85.451 395.812,83.672 394.05,85.552 390.958,85.939 385.343,79.805 379.327,76.427 378.292,73.264 
	380.202,73.701 382.618,70.959 380.7,70.729 379.558,67.568 382.359,66.027 386.755,66.555 387.839,65.739 "/>
<polyline fill="none" stroke="#8A8F9E" stroke-width="0.25" points="350.622,26.721 353.829,25.251 361.745,25.391 366.036,29.355 
	367.667,29.187 368.194,25.28 369.768,23.979 373.493,32.953 372.448,37.746 373.204,41.82 374.069,43.441 376.823,44.743 
	376.696,45.847 374.807,45.42 374.02,50.42 372.141,56.633 367.243,56.931 363.464,58.344 360.124,57.328 355.612,53.721 
	349.559,54.407 349.893,52.002 352.429,49.316 349.991,48.979 343.483,45.242 343.684,40.729 341.143,37.338 342.497,34.685 
	340.44,31.732 341.393,31.872 341.573,30.568 340.411,28.323 340.671,26.465 343.62,26.882 346.804,28.64 350.622,26.721 "/>
<polyline fill="none" stroke="#8A8F9E" stroke-width="0.25" points="374.952,58.493 375.534,54.027 376.725,52.289 378.751,52.529 
	377.946,61.325 373.913,66.693 373.175,70.551 371.428,72.419 369.396,77.082 367.657,77.806 367.858,72.917 366.456,68.762 
	367.696,68.354 369.952,62.768 372.481,59.118 374.952,58.493 "/>
<polyline fill="none" stroke="#8A8F9E" stroke-width="0.25" points="399.19,6.076 404.489,7.834 412.879,8.591 412.442,11.394 
	410.353,12.09 409.67,17.1 408.077,17.875 408.377,18.859 409.968,18.083 409.825,22.972 409.894,26.006 412.752,23.49 
	414.42,18.203 415.524,17.766 416.09,13.859 415.554,13.799 416.237,12.565 417.282,12.676 419.229,19.873 418.752,23.222 
	417.702,23.093 416.524,24.873 417.472,25.16 417.332,26.442 419.2,26.84 421.188,12.725 420.065,10.529 417.194,9.643 
	417.052,7.178 421.569,2.756 427.702,1.74 428.356,0.678 432.34,0.727 435.056,4.951 437.146,13.103 438.478,13.601 437.653,16.345 
	438.19,19.416 439.073,20.07 438.614,23.412 440.215,29.613 435.793,29.157 433.536,31.186 430.593,30.89 427.127,34.306 
	425.187,37.487 424.063,41.892 427.95,42.487 430.245,47.26 429.509,53.024 420.323,54.328 419.054,56.066 418.795,58.493 
	419.747,58.601 420.284,61.674 419.317,61.574 418.634,62.995 418.077,66.901 414.558,67.48 412.849,65.202 404.278,62.559 
	401.983,60.778 402.12,59.665 404.978,61.127 405.006,57.16 405.968,57.27 406.198,55.222 398.243,52.24 390.323,51.662 
	390.489,46.604 386.862,44.655 386.14,42.668 386.276,41.543 387.282,41.286 388.166,38.383 389.67,28.174 388.435,25.947 
	384.099,24.844 383.308,23.412 385.5,22.17 382.263,20.648 382.379,19.724 384.586,18.48 392.849,19.675 396.437,19.157 
	398.058,14.436 401.524,14.844 403.146,13.711 404.011,10.788 399.19,6.076 "/>
<polyline fill="none" stroke="#8A8F9E" stroke-width="0.25" points="298.751,57.419 303.927,57.846 317.575,63.701 323.104,61.872 
	325.45,61.445 326.364,60.451 327.917,60.283 328.761,61.931 331.72,62.736 332.102,60.134 330.968,57.309 328.741,54.704 
	324.686,54.118 324.763,50.729 325.499,45.897 332.052,42.668 332.37,40.44 330.876,40.231 331.198,35.15 333.673,28.672 
	332.525,26.244 339.011,20.918 338.896,18.63 335.528,13.967 339.386,13.193 346.882,15.4 348.087,11.394 345.939,6.342 
	348.761,4.465 356.275,6.272 359.768,2.575 359.636,0.132 358.021,0.225 293.334,0.225 290.085,0.14 289.06,6.215 285.886,16.164 
	288.819,16.643 291.286,15.529 296.451,19.981 299.83,25.082 301.72,31.465 298.531,51.306 298.751,57.419 "/>
<polyline fill="none" stroke="#8A8F9E" stroke-width="0.25" points="156.505,137.393 158.435,131.456 158.288,132.182 
	154.063,137.471 147.312,142.78 144.298,147.719 149.978,145.453 153.595,139.678 156.505,137.393 "/>
<polyline fill="none" stroke="#8A8F9E" stroke-width="0.25" points="104.249,210.339 103.005,208.508 107.78,208.985 
	112.55,215.983 112.956,218 104.249,210.339 "/>
<polyline fill="none" stroke="#8A8F9E" stroke-width="0.25" points="95.095,212.556 98.962,211.667 104.278,215.734 
	104.278,217.854 95.095,212.556 "/>
<polyline fill="none" stroke="#8A8F9E" stroke-width="0.25" points="87.14,220.217 85.007,226.101 86.944,226.54 89.328,224.948 
	89.874,222.565 87.14,220.217 "/>
<polyline fill="none" stroke="#8A8F9E" stroke-width="0.25" points="162.702,283.131 155.016,281.661 150.573,276.593 
	150.764,269.332 152.989,262.316 153.874,255.397 149.401,250.686 143.038,249.035 138.473,244.841 137.761,240.28 135.792,239.89 
	133.077,235.1 122.54,233.498 114.587,233.737 103.223,238.02 89.616,239.284 79.884,230.734 80.046,229.997 81.911,229.074 
	86.696,229.753 92.458,235.666 99.229,233.874 104.903,234.724 107.647,233.21 103.038,231.252 96.534,230.783 93.272,228.728 
	96.706,224.074 110.958,223.908 118.464,221.677 130.44,221.301 134.93,219.738 132.712,216.789 124.04,218.43 118.233,216.618 
	113.532,213.688 110.343,209.143 111.628,203.269 113.175,199.948 130.909,186.062 140.753,162.751 146.896,152.891 153.19,151.687 
	154.479,157.143 157.673,161.25 157.462,163.506 156.886,164.551 151.149,165.295 149.87,167.146 148.497,170.881 147.94,178.656 
	147.106,180.971 149.919,185.375 155.919,189.281 159.161,190.127 160.938,188.764 160.86,183.379 158.845,178.955 158.854,176.062 
	161.837,175.713 166.241,172.939 168.438,165.912 172.702,158.525 171.18,156.875 166.935,156.221 166.569,154.043 167.741,143.146 
	169.016,140.334 172.673,135.881 179.093,132.383 186.511,130.186 193.458,130.186 201.173,133.396 208.614,131.338 
	216.358,132.004 221.739,134.896 226.124,140.275 228.409,144.689 216.53,172.91 205.563,177.79 205.983,184.362 216.759,191.469 
	214.63,198.903 208.737,204.343 201.667,207.844 199.034,215.168 194.708,221.262 189.245,221.589 181.628,216.33 174.909,215.061 
	173.468,220.715 173.973,230.964 173.546,237.575 171.12,245.905 168.825,257.893 163.807,262.307 162.432,267.019 163.405,279.454 
	162.702,283.131 "/>
<polyline fill="none" stroke="#8A8F9E" stroke-width="0.25" points="149.392,353.474 157.897,354.31 162.052,350.681 
	162.741,342.22 161.53,336.823 159.112,331.208 159.698,326.165 162.292,321.497 157.539,317.351 152.897,316.833 145.421,320.569 
	139.61,328.435 140.782,337.679 138.796,348.005 149.392,353.474 "/>
<polyline fill="none" stroke="#8A8F9E" stroke-width="0.25" points="156.505,137.393 158.435,131.456 158.288,132.182 
	154.063,137.471 147.312,142.78 144.298,147.719 149.978,145.453 153.595,139.678 156.505,137.393 "/>
<polyline fill="none" stroke="#8A8F9E" stroke-width="0.25" points="104.249,210.339 103.005,208.508 107.78,208.985 
	112.55,215.983 112.956,218 104.249,210.339 "/>
<polyline fill="none" stroke="#8A8F9E" stroke-width="0.25" points="95.095,212.556 98.962,211.667 104.278,215.734 
	104.278,217.854 95.095,212.556 "/>
<polyline fill="none" stroke="#8A8F9E" stroke-width="0.25" points="87.14,220.217 85.007,226.101 86.944,226.54 89.328,224.948 
	89.874,222.565 87.14,220.217 "/>
<polyline fill="none" stroke="#8A8F9E" stroke-width="0.25" points="162.702,283.131 155.016,281.661 150.573,276.593 
	150.764,269.332 152.989,262.316 153.874,255.397 149.401,250.686 143.038,249.035 138.473,244.841 137.761,240.28 135.792,239.89 
	133.077,235.1 122.54,233.498 114.587,233.737 103.223,238.02 89.616,239.284 79.884,230.734 80.046,229.997 81.911,229.074 
	86.696,229.753 92.458,235.666 99.229,233.874 104.903,234.724 107.647,233.21 103.038,231.252 96.534,230.783 93.272,228.728 
	96.706,224.074 110.958,223.908 118.464,221.677 130.44,221.301 134.93,219.738 132.712,216.789 124.04,218.43 118.233,216.618 
	113.532,213.688 110.343,209.143 111.628,203.269 113.175,199.948 130.909,186.062 140.753,162.751 146.896,152.891 153.19,151.687 
	154.479,157.143 157.673,161.25 157.462,163.506 156.886,164.551 151.149,165.295 149.87,167.146 148.497,170.881 147.94,178.656 
	147.106,180.971 149.919,185.375 155.919,189.281 159.161,190.127 160.938,188.764 160.86,183.379 158.845,178.955 158.854,176.062 
	161.837,175.713 166.241,172.939 168.438,165.912 172.702,158.525 171.18,156.875 166.935,156.221 166.569,154.043 167.741,143.146 
	169.016,140.334 172.673,135.881 179.093,132.383 186.511,130.186 193.458,130.186 201.173,133.396 208.614,131.338 
	216.358,132.004 221.739,134.896 226.124,140.275 228.409,144.689 216.53,172.91 205.563,177.79 205.983,184.362 216.759,191.469 
	214.63,198.903 208.737,204.343 201.667,207.844 199.034,215.168 194.708,221.262 189.245,221.589 181.628,216.33 174.909,215.061 
	173.468,220.715 173.973,230.964 173.546,237.575 171.12,245.905 168.825,257.893 163.807,262.307 162.432,267.019 163.405,279.454 
	162.702,283.131 "/>
<polygon fill="none" stroke="#8A8F9E" stroke-width="0.25" points="0.187,270.757 0.187,646.892 130.209,646.892 133.308,647.044 
	135.978,640.085 136.437,634.06 130.534,630.569 129.649,627.171 129.884,623.415 132.253,617.341 137.155,613.044 146.349,608.552 
	145.671,601.384 140.763,580.729 140.681,576.511 141.707,572.884 149.382,573.851 148.565,565.319 143.386,563.083 
	143.039,554.265 145.114,542.239 143.185,540.56 130.304,538.259 120.046,549.167 114.636,551.423 112.233,549.255 116.14,532.972 
	120.392,524.593 123.952,522.396 127.491,518.103 132.959,515.847 134.606,514.036 137.638,507.165 143.229,501.481 
	162.931,486.292 160.983,481.956 164.815,477.673 177.263,480.765 182.375,479.353 188.356,475.774 187.334,473.509 
	187.243,466.272 191.397,446.589 199.757,430.306 202.94,421.706 217.892,407.601 220.905,399.729 211.866,393.884 185.416,380.843 
	172.253,377.171 169.332,369.192 165.642,363.376 157.897,354.31 149.392,353.474 138.796,348.005 132.8,348.177 125.612,345.032 
	121.237,338.981 114.25,333.167 116.707,329.636 113.692,327.298 116.964,311.257 112.839,310.413 107.282,314.831 103.416,319.206 
	96.437,317.737 90.373,313.772 91.065,302.379 90.563,296.69 87.735,292.218 79.806,287.613 71.716,279.83 65.323,276.251 
	62.159,262.229 54.675,261.452 47.897,256.003 47.707,249.563 49.996,239.844 50.25,238.767 46.69,240.041 31.69,239.343 
	12.892,241.491 5.397,252.824 0.161,266.55 "/>
<polyline fill="none" stroke="#8A8F9E" stroke-width="0.25" points="295.826,536.644 292.526,544.343 292.43,549.255 
	289.089,551.087 281.104,550.417 279.089,555.081 279.264,560.579 281.055,565.159 279.196,568.323 264.473,562.966 
	256.022,561.604 252.106,556.892 247.077,553.519 244.284,561.282 234.571,574.476 231.876,581.452 229.61,584.349 225.021,580.462 
	221.501,573.87 213.894,566.462 211.55,551.491 202.813,554.694 197.565,559.753 196.53,566.433 193.298,569.515 184.112,575.081 
	174.805,572.985 155.764,574.388 149.382,573.851 141.706,572.884 140.68,576.511 140.764,580.729 145.671,601.384 146.348,608.552 
	137.155,613.044 132.253,617.341 129.884,623.414 129.649,627.171 130.534,630.569 136.437,634.06 135.978,640.085 133.307,647.044 
	138.333,646.892 357.188,646.892 360.696,646.372 360.096,636.745 362.062,631.487 370.821,625.96 373.553,626.228 374.356,627.64 
	378.106,627.044 403.903,616.097 410.524,618.552 417.598,615.589 422.889,616.97 423.057,621.487 419.854,626.663 419.747,627.966 
	423.376,629.206 427.491,628.601 430.437,626.595 431.608,623.483 430.016,620.183 427.385,618.649 425.841,614.763 
	420.187,611.673 418.507,609.655 418.981,603.87 415.721,598.899 417.155,592.825 419.382,587.937 415.294,588.532 413.614,587.067 
	413.903,583.532 416.687,578.323 424.889,571.683 418.614,570.778 409.012,566.374 386.514,561.472 379.932,555.944 
	376.794,555.071 368.532,548.591 366.389,542.903 365.721,536.8 366.085,533.259 364.44,531.771 359.903,532.048 356.085,534.274 
	348.809,534.802 334.598,534.157 320.29,538.528 308.034,540.618 304.771,540.788 295.826,536.644 "/>
<polygon fill="none" stroke="#8A8F9E" stroke-width="0.25" points="593.522,623.882 593.522,646.892 421.354,646.892 
	415.948,646.995 414.528,630.729 419.679,635.661 430.724,636.374 432.731,632.409 436.397,636.438 449.304,637.063 
	455.899,625.901 457.989,626.228 465.675,641.028 468.864,640.872 469.459,637.728 471.56,638.044 472.604,640.173 475.886,640.593 
	479.161,645.114 481.808,645.28 485.793,642.708 485.563,633.695 488.536,629.935 486.28,626.058 494.668,619.636 501.222,619.655 
	504.812,614.05 505.547,605.462 501.002,600.521 500.905,597.708 503.487,593.542 518.526,589.495 520.963,587.39 521.521,584.05 
	526.827,584.319 529.353,585.56 529.929,584.655 528.591,579.724 528.767,576.165 531.739,573.679 534.571,574.017 540.797,579.187 
	543.438,577.806 544.024,579.319 552.375,583.802 559.562,595.31 569.733,601.126 577.957,612.659 586.472,615.729 593.394,620.614 
	"/>
<polygon fill="none" stroke="#8A8F9E" stroke-width="0.25" points="593.581,505.469 578.044,492.503 569.061,487.202 
	568.561,486.907 568.024,501.312 564.395,506.979 545.47,506.54 542.179,512.009 546.72,518.401 539.891,531.384 539.186,538.093 
	539.704,546.345 531.579,548.015 523.63,555.677 528.995,556.136 534.235,559.206 537.745,569.294 544.024,579.319 552.374,583.802 
	559.561,595.31 569.733,601.126 577.956,612.659 586.473,615.729 593.395,620.614 "/>
<polygon fill="none" stroke="#8A8F9E" stroke-width="0.25" points="593.522,446.694 593.522,499.716 593.562,503.726 593.5,505.499 
	577.892,492.503 568.438,486.907 563.688,476.8 559.961,461.101 564.396,453.04 569.377,446.321 574.284,446.868 578.131,449.997 
	588.946,449.251 593.5,445.927 "/>
<polygon fill="none" stroke="#8A8F9E" stroke-width="0.25" points="593.522,360.55 593.522,444.272 593.5,445.927 588.946,449.251 
	578.131,449.997 574.284,446.868 569.377,446.321 564.396,453.04 559.961,461.101 560.368,451.198 555.118,443.665 529.704,444.519 
	520.329,435.007 514.474,431.687 490.597,428.904 485.954,435.524 483.308,441.726 476.101,447.224 469.851,449.411 
	461.627,449.739 453.545,448.177 448.653,443.854 439.959,439.382 436.983,434.808 420.284,419.069 414.25,409.681 395.929,392.093 
	390.075,382.103 391.358,369.606 390.543,361.048 382.668,356.458 377.569,348.743 378.233,342.601 379.386,339.704 
	389.088,350.729 390.812,350.53 395.075,341.735 406.286,337.976 418.653,335.404 430.69,330.681 436.032,323.255 462.711,315.925 
	466.271,300.978 472.722,303.17 476.56,311.712 481.062,318.255 485.563,318.571 489.841,321.692 500.485,311.712 507.194,315.896 
	510.457,322.669 515.437,322.61 530.088,326.257 535.808,334.817 543.591,336.526 544.366,337.688 544.265,339.733 540.558,347.054 
	553.341,360.222 558.17,362.497 566.315,357.409 564.454,353.216 565.47,349.138 581.862,355.96 593.479,357.773 "/>
<polygon fill="none" stroke="#8A8F9E" stroke-width="0.25" points="593.522,94.715 593.522,355.967 593.422,357.744 581.979,355.96 
	565.577,349.138 564.571,353.216 566.433,357.409 558.293,362.507 553.459,360.222 540.675,347.054 544.386,339.733 
	544.483,337.688 543.698,336.526 535.935,334.827 530.187,326.257 515.558,322.62 510.567,322.679 507.325,315.905 500.606,311.731 
	489.959,321.692 485.685,318.571 488.526,313.333 491.866,301.173 493.649,287.594 493.028,284.552 483.448,271.3 483.019,255.11 
	483.875,248.42 483.536,237.497 481.944,230.983 482.019,215.017 481.192,209.504 472.354,201.677 472.403,196.994 475.752,188.984 
	480.329,181.449 481.72,173.654 482.565,162.839 478.327,151.596 477.334,145.871 487.256,151.537 489.543,147.949 489.929,142.91 
	481.618,139.648 487.325,136.14 493.679,134.36 494.284,136.667 502.116,129.528 510.782,125.612 522.325,124.121 542.862,119.16 
	564.293,102.797 573.131,100.194 587.745,93.305 593.451,92.295 "/>
<polygon fill="none" stroke="#8A8F9E" stroke-width="0.25" points="436.354,0.225 544.688,0.225 547.834,0.229 545.168,8.74 
	538.263,8.342 531.202,5.847 524.493,7.09 519.216,4.682 510.577,3.698 504.123,7.168 501.032,13.132 495.407,10.817 
	491.202,17.448 487.565,25.607 488.298,38.652 485.06,46.853 481.856,49.229 475.841,45.707 465.504,45.183 454.063,48.284 
	447.272,45.381 439.489,45.002 440.524,42.08 442.423,41.514 443.854,34.685 445.983,31.504 444.362,25.51 440.323,18.135 
	434.373,0.204 "/>
<polygon fill="none" stroke="#8A8F9E" stroke-width="0.25" points="0.187,180.913 0.187,117.943 0.128,115.2 14.396,116.14 
	22.604,118.685 27.11,122.004 32.169,127.79 35.72,137.253 35.164,148.188 31.843,157.641 24.782,170.443 18.142,175.365 
	12.957,176.557 10.021,175.404 9.625,181.559 7.517,185.088 1.94,185.394 0.139,183.402 "/>
<polygon fill="none" stroke="#8A8F9E" stroke-width="0.25" points="0.187,214.662 0.187,220.758 0.216,224.676 2.892,223.615 
	6.433,216.926 5.416,213.757 0.16,212.514 "/>
<rect x="0.187" y="0.225" fill="none" stroke="#8A8F9E" stroke-width="0.25" width="593.336" height="646.667"/>
</svg>
