<?xml version="1.0" encoding="UTF-8" standalone="no"?>
<!-- Created with Inkscape (http://www.inkscape.org/) -->

<svg
   xmlns:dc="http://purl.org/dc/elements/1.1/"
   xmlns:cc="http://creativecommons.org/ns#"
   xmlns:rdf="http://www.w3.org/1999/02/22-rdf-syntax-ns#"
   xmlns:svg="http://www.w3.org/2000/svg"
   xmlns="http://www.w3.org/2000/svg"
   xmlns:sodipodi="http://sodipodi.sourceforge.net/DTD/sodipodi-0.dtd"
   xmlns:inkscape="http://www.inkscape.org/namespaces/inkscape"
   width="900"
   height="650"
   id="svg2"
   version="1.1"
   inkscape:version="0.48.4 r9939"
   sodipodi:docname="final8_thumb.svg"
   inkscape:export-filename="C:\wamp\www\ryan-m-cooper.github.io\mapbox-internship-application\img\portfolio\final8_button.png"
   inkscape:export-xdpi="90"
   inkscape:export-ydpi="90">
  <defs
     id="defs4">
    <clipPath
       id="clipPath4352"
       clipPathUnits="userSpaceOnUse">
      <path
         id="path4354"
         d="M 0,792 612,792 612,0 0,0 0,792 z" />
    </clipPath>
  </defs>
  <sodipodi:namedview
     id="base"
     pagecolor="#ffffff"
     bordercolor="#666666"
     borderopacity="1.0"
     inkscape:pageopacity="0.0"
     inkscape:pageshadow="2"
     inkscape:zoom="0.49497475"
     inkscape:cx="431.52199"
     inkscape:cy="294.71108"
     inkscape:document-units="px"
     inkscape:current-layer="layer2"
     showgrid="false"
     showguides="true"
     inkscape:guide-bbox="true"
     inkscape:window-width="1366"
     inkscape:window-height="663"
     inkscape:window-x="-8"
     inkscape:window-y="1592"
     inkscape:window-maximized="1">
    <sodipodi:guide
       orientation="1,0"
       position="40,325"
       id="guide3764" />
    <sodipodi:guide
       orientation="0,1"
       position="450,610"
       id="guide3766" />
    <sodipodi:guide
       orientation="1,0"
       position="860,325"
       id="guide3768" />
    <sodipodi:guide
       orientation="0,1"
       position="450,40"
       id="guide3770" />
  </sodipodi:namedview>
  <metadata
     id="metadata7">
    <rdf:RDF>
      <cc:Work
         rdf:about="">
        <dc:format>image/svg+xml</dc:format>
        <dc:type
           rdf:resource="http://purl.org/dc/dcmitype/StillImage" />
        <dc:title></dc:title>
      </cc:Work>
    </rdf:RDF>
  </metadata>
  <g
     inkscape:label="bg"
     inkscape:groupmode="layer"
     id="layer1"
     transform="translate(0,-402.36217)"
     sodipodi:insensitive="true">
    <g
       id="g4610">
      <rect
         y="402.36218"
         x="0"
         height="650"
         width="900"
         id="rect2985"
         style="color:#000000;fill:#e2e0c6;fill-opacity:1;fill-rule:nonzero;stroke:none;stroke-width:11.27552605;marker:none;visibility:visible;display:inline;overflow:visible;enable-background:accumulate" />
    </g>
  </g>
  <g
     inkscape:groupmode="layer"
     id="layer2"
     inkscape:label="text">
    <g
       transform="matrix(1.0978254,0,0,-1.0978254,113.58403,751.27824)"
       inkscape:label="final8-dialect"
       id="g4346">
      <g
         id="g4348">
        <g
           clip-path="url(#clipPath4352)"
           id="g4350">
          <path
             id="path4356"
             style="fill:#f3f8fa;fill-opacity:1;fill-rule:nonzero;stroke:none"
             d="m 602.418,60.619 -593.336,0 0,646.667 593.336,0 0,-646.667 z"
             inkscape:connector-curvature="0" />
          <path
             id="path4358"
             style="fill:#e2e0c6;fill-opacity:1;fill-rule:nonzero;stroke:none"
             d="m 275.586,183.416 5.182,4.971 1.058,7.988 -0.375,5.719 -5.088,4.115 -3.183,-6.371 -2.067,-6.709 4.473,-9.713 z"
             inkscape:connector-curvature="0" />
          <path
             id="path4360"
             style="fill:#e2e0c6;fill-opacity:1;fill-rule:nonzero;stroke:none"
             d="m 532.525,151.834 -6.313,-2.666 -1.709,-5.727 -12.905,2.426 -3.082,-0.195 -3.974,-5.938 -14.058,4.059 -9.94,-1.949 -6.837,-7.416 -6.592,-3.448 -21.362,3.862 -11.968,0.986 -8.203,-6.64 -2.784,-5.209 -0.289,-3.536 1.68,-1.464 4.088,0.595 -2.227,-4.888 -1.435,-6.075 3.263,-4.97 -0.476,-5.786 1.68,-2.017 5.654,-3.09 1.543,-3.887 2.633,-1.533 1.593,-3.301 -1.173,-3.111 -2.945,-2.006 -4.116,-0.605 -3.628,1.24 -5.22,-2.764 5.151,-4.931 11.045,-0.713 2.009,3.965 3.666,-4.03 12.905,-0.625 6.597,11.162 2.088,-0.326 7.686,-14.801 3.189,0.157 0.596,3.144 2.1,-0.316 1.046,-2.129 3.28,-0.42 3.276,-4.522 2.646,-0.166 3.985,2.573 -0.228,9.013 2.972,3.76 -2.257,3.877 8.389,6.422 6.553,-0.02 3.59,5.606 0.736,8.588 -4.545,4.941 -0.098,2.813 2.582,4.166 15.039,4.047 2.438,2.105 0.558,3.34 5.306,-0.27 2.525,-1.24 0.576,0.904 -1.338,4.932 0.176,3.559 2.972,2.486 2.832,-0.338 6.227,-5.17 2.642,1.381 0.586,-1.514 -6.28,10.026 -3.511,10.088 -5.239,3.07 -5.366,0.459 z"
             inkscape:connector-curvature="0" />
          <path
             id="path4362"
             style="fill:#e2e0c6;fill-opacity:1;fill-rule:nonzero;stroke:none"
             d="m 369.336,585.805 -0.824,3.141 3.031,5.467 4.922,2.783 3.906,3.867 0.703,5.579 -2.303,2.554 -10.706,-2.425 -4.125,0.535 -2.059,4.456 -7.057,3.965 -3.125,-3.37 -3.476,0.476 0.318,4.693 -4.851,0.666 -1.936,2.544 4.463,4.304 1.102,5.527 -2.387,7.168 -9.262,4.723 -4.424,0.268 0.752,2.913 -5.527,-1.829 -13.649,5.855 -5.175,0.427 -1.426,-6.243 3.838,-9.711 3.125,-4.664 0.883,-4.314 -9.106,-3.709 -0.679,-2.184 -2.729,-2.616 3.716,-0.954 2.314,-2.275 -1.787,-3.511 1.362,-4.194 2.632,-3.062 -1.162,-2.485 -2.793,0.039 -1.094,-4.961 7.427,-7.017 -1.323,-1.313 -14.196,1.819 -2.86,-3.945 -1.693,-2.764 -2.096,-11.074 1.69,-13.57 -2.707,5.159 -2.122,8.511 -4.722,2.285 -1.494,-6.421 -4.272,0.317 0.088,7.974 -2.408,6.66 -9.551,3.519 -17.812,-0.567 -2.764,-4.661 -3.08,-2.119 -2.838,-4.274 0.182,-1.561 6.488,-3.061 2.685,-2.933 2.534,-3.679 0.558,-6.012 -1.041,0.576 -2.08,6.452 -10.029,-0.728 -11.879,-28.22 -10.967,-4.88 0.42,-6.573 10.775,-7.106 -2.13,-7.435 -5.891,-5.439 -7.07,-3.501 -2.633,-7.324 -4.326,-6.094 -5.463,-0.327 -7.619,5.259 -6.717,1.27 -1.442,-5.655 0.504,-10.249 -0.427,-6.611 -2.424,-8.331 -2.295,-11.988 -5.02,-4.413 -1.373,-4.712 0.973,-12.435 -0.703,-3.677 2.424,-5.039 -0.159,-7.246 2.612,-6.802 -0.992,-5.356 -9.047,-9.777 4.752,-4.146 -2.594,-4.668 -0.586,-5.043 2.418,-5.615 1.211,-5.397 -0.69,-8.461 -4.154,-3.629 7.744,-9.066 3.692,-5.817 2.918,-7.978 13.166,-3.672 26.449,-13.041 9.039,-5.846 -3.014,-7.871 -14.951,-14.105 -3.184,-8.6 -8.359,-16.283 -4.154,-19.684 0.092,-7.236 1.021,-2.266 4.545,-5.316 25.625,-0.885 18.818,1.113 13.828,-6.015 11.813,-7.944 7.803,1.938 6.965,-0.576 5.925,-2.494 3.09,-6.631 6.61,-4.473 4.069,1.758 2.871,4.545 5.371,4.224 8.302,-1.978 8.783,-6.729 9.713,-1.132 15,7.505 24.336,0.395 3.379,3.232 8.041,-3.441 10.555,-1.031 2.496,-5.899 5.91,2.08 0.146,5.616 -3.847,11.851 0.351,11.807 4.164,7.894 16.61,5.049 2.704,6.524 3.635,5.894 12.78,3.985 1.328,5.507 -2.969,4.584 -16.695,15.748 -6.039,9.37 -18.321,17.587 -5.849,10 1.273,12.497 -0.814,8.558 -7.881,4.6 -5.094,7.695 0.67,6.152 1.152,2.907 9.692,-11.045 1.719,0.199 4.273,8.805 11.215,3.769 12.353,2.572 12.072,4.713 5.307,7.416 26.698,7.35 3.55,14.937 6.442,-2.182 3.838,-8.562 4.515,-6.523 4.502,-0.317 2.842,5.239 3.34,12.16 1.783,13.579 -0.621,3.042 -9.58,13.252 -0.43,16.19 0.857,6.69 -0.339,10.923 -1.592,6.513 0.074,15.967 -0.826,5.513 -8.838,7.827 0.049,4.683 3.35,8.009 4.576,7.536 1.39,7.794 0.846,10.816 -4.238,11.243 -0.992,5.725 -13.858,5.854 -0.806,8.53 -4.604,9.244 -6.084,-0.218 -3.516,3.719 -1.849,0.537 -1.074,4.799 -4.625,3.471 -3.071,4.443 -9.99,-0.895 -5.107,-1.361 -4.455,-2.567 1.769,3.233 3.848,2.99 6.39,3.31 -4.056,1.143 -5.446,-0.557 -9.701,-9.342 -3.398,-5.845 -2.838,-1.582 0.449,4.097 -12.455,-1.622 -10.48,-6.877 1.466,-3.588 -5.709,0.675 -7.265,3.172 -9.395,-4.505 -1.035,3.907 z"
             inkscape:connector-curvature="0" />
          <path
             id="path4364"
             style="fill:#e2e0c6;fill-opacity:1;fill-rule:nonzero;stroke:none"
             d="m 469.121,604.276 -0.029,-3.966 1.65,-3.532 -0.654,-2.572 -2.856,2.505 -3.818,-0.786 -2.135,-1.69 -5.139,1.603 -3.488,3.726 1.787,2.464 0.625,3.152 -1.041,4.99 2.774,0.478 7.564,-4.465 -0.904,3.103 -3.451,2.951 -1.998,3.201 1.728,2.088 3.301,-1.043 0.48,-3.042 4.837,-0.825 2.886,-1.769 -2.119,-6.571 z"
             inkscape:connector-curvature="0" />
          <path
             id="path4366"
             style="fill:#e2e0c6;fill-opacity:1;fill-rule:nonzero;stroke:none"
             d="m 158.125,133.689 -0.813,8.532 -5.177,2.226 -0.323,8.828 2.071,12.026 -1.93,1.66 -12.871,2.32 -10.258,-10.918 -5.439,-2.246 -2.379,2.168 3.896,16.283 4.268,8.36 3.559,2.217 3.527,4.293 5.478,2.25 1.651,1.796 3.031,6.901 5.557,5.674 19.732,15.179 -1.949,4.347 3.828,4.282 12.457,-3.101 5.106,1.422 5.988,3.578 4.502,-5.336 25.658,-0.875 18.828,1.103 13.828,-6.015 11.807,-7.933 4.605,-6.5 -3.183,-6.372 -2.067,-6.709 4.473,-9.713 3.984,-3.959 7.321,-4.391 6.621,-1.8 5.99,2.425 5.093,-4.804 -3.29,-7.709 -0.114,-4.893 -3.338,-1.851 -7.974,0.67 -2.047,-4.644 0.211,-5.519 1.758,-4.57 -1.836,-3.174 -14.727,5.381 -8.437,1.348 -3.926,4.713 -5.021,3.364 -2.801,-7.755 -9.713,-13.193 -2.725,-6.987 -2.236,-2.896 -4.594,3.906 -3.521,6.592 -7.592,7.398 -2.344,14.981 -8.75,-3.213 -5.24,-5.049 -1.035,-6.689 -3.227,-3.092 -9.195,-5.557 -9.336,2.086 -19.008,-1.383 -6.412,0.537 z"
             inkscape:connector-curvature="0" />
          <path
             id="path4368"
             style="fill:#e2e0c6;fill-opacity:1;fill-rule:nonzero;stroke:none"
             d="m 147.549,359.535 -5.961,-0.181 -7.207,3.154 -4.355,6.041 -6.998,5.814 2.451,3.551 -2.999,2.328 3.257,16.023 -4.11,0.858 -5.592,-4.414 -3.841,-4.375 -7.003,1.469 -6.045,3.965 0.698,11.398 -0.508,5.674 -2.813,4.463 -7.933,4.624 -8.092,7.783 -6.4,3.579 -3.152,14.023 -7.502,0.776 -6.651,5.42 -0.308,6.45 2.554,10.815 0.557,2.378 17.295,5.235 6.947,1.504 4.971,-0.347 -0.166,-0.736 9.76,-8.561 13.609,1.275 11.363,4.262 7.953,0.249 10.527,-1.611 2.711,-4.771 1.948,-0.385 0.748,-4.576 4.541,-4.184 6.381,-1.651 4.469,-4.711 -0.889,-6.919 -2.227,-7.026 -0.205,-7.246 4.463,-5.073 7.69,-1.48 2.418,-5.048 -0.157,-7.237 2.621,-6.801 -0.996,-5.347 -9.043,-9.773 -4.672,0.495 -7.447,-3.717 -5.824,-7.885 1.162,-9.225 -1.998,-10.326 z"
             inkscape:connector-curvature="0" />
          <path
             id="path4370"
             style="fill:#e2e0c6;fill-opacity:1;fill-rule:nonzero;stroke:none"
             d="m 448.971,268.109 -1.328,-5.507 -12.779,-3.985 -3.637,-5.894 -2.702,-6.524 -16.611,-5.049 -4.164,-7.894 -0.352,-11.807 3.847,-11.851 -0.145,-5.616 -5.909,-2.08 -2.495,5.899 -10.557,1.031 -8.041,3.441 -3.379,-3.232 -24.336,-0.395 -15,-7.505 -9.713,1.132 -8.783,6.729 -8.302,1.978 -5.371,-4.224 -2.871,-4.545 -4.068,-1.758 -6.611,4.473 -3.089,6.631 -5.925,2.494 -6.966,0.576 -7.803,-1.938 4.61,-6.49 5.101,-4.125 0.397,-5.728 -1.085,-7.992 -5.202,-4.948 4.021,-3.959 7.295,-4.39 6.611,-1.801 6.025,2.406 5.068,-4.795 8.945,-4.144 3.263,0.17 12.256,2.089 14.305,4.372 14.213,-0.645 7.276,0.527 3.819,2.228 4.537,0.276 1.644,-1.488 -0.364,-3.541 0.666,-6.104 2.146,-5.687 8.261,-6.481 3.138,-0.873 6.582,-5.527 22.498,-4.902 9.603,-4.405 6.274,-0.904 11.968,-0.986 21.364,-3.862 6.591,3.448 6.836,7.416 9.941,1.949 14.057,-4.059 3.975,5.938 3.082,0.195 12.904,-2.426 1.709,5.727 6.314,2.666 7.95,7.662 8.125,1.67 -0.518,8.252 0.702,6.709 6.832,12.982 -4.541,6.393 3.291,5.469 18.925,-0.44 3.629,5.668 0.537,14.405 -4.742,10.107 -3.74,15.699 0.41,9.903 -5.248,7.533 -25.41,-0.864 -9.365,9.523 -5.867,3.319 -23.886,2.783 -4.642,-6.621 -2.642,-6.201 -7.209,-5.498 -6.233,-2.197 -8.228,-0.319 -8.096,1.54 -4.887,4.335 -8.701,4.463 z"
             inkscape:connector-curvature="0" />
          <path
             id="path4372"
             style="fill:#e2e0c6;fill-opacity:1;fill-rule:nonzero;stroke:none"
             d="m 521.689,632.836 -1.166,9.473 -4.918,4.86 -4.345,2.197 -2.602,-10.329 2.763,-3.589 3.955,-1.787 6.313,-0.825 z"
             inkscape:connector-curvature="0" />
          <path
             id="path4374"
             style="fill:#e2e0c6;fill-opacity:1;fill-rule:nonzero;stroke:none"
             d="m 415.332,639.247 1.533,0.197 2.256,-1.201 0.684,-2.526 4.99,-3.159 0.029,-3.609 -3.877,-2.407 -0.732,-1.809 -1.592,-8.31 -2.256,2.326 1.154,8.172 -1.632,1.888 -0.518,4.017 -1.303,1.091 -1.308,4.674 0.107,0.925 2.465,-0.269 z"
             inkscape:connector-curvature="0" />
          <path
             id="path4376"
             style="fill:#e2e0c6;fill-opacity:1;fill-rule:nonzero;stroke:none"
             d="m 396.734,641.771 0.894,-0.667 0.614,-2.921 2.311,-0.826 2.142,-2.903 1.871,-0.783 0.18,1.489 2.037,-0.227 0.17,1.48 2.486,-0.288 0.176,-2.088 2.031,-3.239 1.352,-8.094 -2.598,-0.644 -5.693,1.779 -1.762,-1.88 -3.091,-0.388 -5.616,6.135 -6.015,3.378 -1.035,3.163 1.91,-0.437 2.416,2.742 -1.918,0.229 -1.143,3.161 2.802,1.541 4.395,-0.527 1.084,0.815 z"
             inkscape:connector-curvature="0" />
          <path
             id="path4378"
             style="fill:#e2e0c6;fill-opacity:1;fill-rule:nonzero;stroke:none"
             d="m 359.518,680.79 3.207,1.47 7.916,-0.14 4.291,-3.965 1.631,0.169 0.527,3.906 1.573,1.302 3.726,-8.974 -1.045,-4.793 0.756,-4.075 0.865,-1.621 2.754,-1.301 -0.127,-1.104 -1.89,0.427 -0.787,-5 -1.879,-6.213 -4.897,-0.298 -3.78,-1.413 -3.339,1.016 -4.512,3.607 -6.054,-0.686 0.334,2.405 2.536,2.685 -2.437,0.338 -6.508,3.737 0.2,4.512 -2.541,3.392 1.355,2.653 -2.057,2.952 0.952,-0.139 0.181,1.303 -1.162,2.246 0.259,1.858 2.95,-0.417 3.183,-1.758 3.819,1.919 z"
             inkscape:connector-curvature="0" />
          <path
             id="path4380"
             style="fill:#e2e0c6;fill-opacity:1;fill-rule:nonzero;stroke:none"
             d="m 383.848,649.018 0.582,4.465 1.19,1.739 2.026,-0.241 -0.804,-8.795 -4.033,-5.369 -0.739,-3.857 -1.747,-1.868 -2.032,-4.663 -1.738,-0.724 0.201,4.889 -1.402,4.155 1.24,0.408 2.256,5.586 2.529,3.65 2.471,0.625 z"
             inkscape:connector-curvature="0" />
          <path
             id="path4382"
             style="fill:#e2e0c6;fill-opacity:1;fill-rule:nonzero;stroke:none"
             d="m 408.086,701.435 5.299,-1.758 8.389,-0.757 -0.436,-2.803 -2.09,-0.696 -0.683,-5.01 -1.592,-0.775 0.299,-0.985 1.591,0.777 -0.142,-4.889 0.068,-3.034 2.858,2.516 1.668,5.287 1.105,0.437 0.565,3.906 -0.536,0.061 0.684,1.233 1.045,-0.11 1.947,-7.197 -0.478,-3.349 -1.049,0.129 -1.178,-1.78 0.947,-0.287 -0.139,-1.283 1.868,-0.397 1.988,14.115 -1.123,2.195 -2.871,0.887 -0.143,2.465 4.518,4.422 6.133,1.016 0.654,1.062 3.983,-0.049 2.716,-4.224 2.09,-8.152 1.332,-0.498 -0.824,-2.744 0.537,-3.071 0.883,-0.655 -0.459,-3.341 1.6,-6.202 -4.422,0.457 -2.256,-2.029 -2.944,0.296 -3.466,-3.416 -1.94,-3.182 -1.123,-4.404 3.887,-0.596 2.295,-4.772 -0.737,-5.765 -9.185,-1.303 -1.27,-1.739 -0.259,-2.426 0.953,-0.108 0.537,-3.073 -0.967,0.1 -0.684,-1.421 -0.556,-3.907 -3.52,-0.579 -1.709,2.279 -8.57,2.643 -2.295,1.78 0.137,1.114 2.857,-1.462 0.028,3.967 0.962,-0.11 0.231,2.048 -7.955,2.982 -7.92,0.578 0.166,5.058 -3.627,1.948 -0.723,1.988 0.137,1.125 1.006,0.257 0.884,2.903 1.503,10.209 -1.235,2.226 -4.336,1.104 -0.791,1.432 2.193,1.242 -3.238,1.521 0.116,0.925 2.207,1.243 8.263,-1.194 3.588,0.518 1.621,4.721 3.467,-0.408 1.621,1.133 0.865,2.923 -4.82,4.712 z"
             inkscape:connector-curvature="0" />
          <path
             id="path4384"
             style="fill:#e2e0c6;fill-opacity:1;fill-rule:nonzero;stroke:none"
             d="m 307.646,650.092 5.176,-0.427 13.649,-5.855 5.528,1.829 2.347,0.426 0.914,0.995 1.553,0.168 0.843,-1.648 2.959,-0.806 0.382,2.603 -1.134,2.825 -2.226,2.605 -4.056,0.586 0.077,3.388 0.737,4.832 6.552,3.23 0.319,2.227 -1.495,0.209 0.323,5.081 2.474,6.479 -1.147,2.428 6.485,5.326 -0.114,2.288 -3.368,4.663 3.857,0.773 7.496,-2.207 1.205,4.007 -2.147,5.052 2.821,1.877 7.515,-1.808 3.492,3.698 -0.132,2.443 -1.614,-0.093 -64.688,0 -3.249,0.085 -1.025,-6.075 -3.174,-9.949 2.934,-0.479 2.467,1.113 5.165,-4.452 3.379,-5.1 1.889,-6.383 -3.188,-19.841 0.219,-6.113 z"
             inkscape:connector-curvature="0" />
          <path
             id="path4386"
             style="fill:#e2e0c6;fill-opacity:1;fill-rule:nonzero;stroke:none"
             d="m 165.4,570.118 1.93,5.937 -0.146,-0.726 -4.225,-5.289 -6.752,-5.31 -3.014,-4.938 5.68,2.266 3.617,5.775 2.91,2.285 z"
             inkscape:connector-curvature="0" />
          <path
             id="path4388"
             style="fill:#e2e0c6;fill-opacity:1;fill-rule:nonzero;stroke:none"
             d="m 113.145,497.172 -1.245,1.831 4.776,-0.478 4.769,-6.998 0.407,-2.016 -8.707,7.661 z"
             inkscape:connector-curvature="0" />
          <path
             id="path4390"
             style="fill:#e2e0c6;fill-opacity:1;fill-rule:nonzero;stroke:none"
             d="m 103.99,494.955 3.867,0.889 5.317,-4.068 0,-2.119 -9.184,5.298 z"
             inkscape:connector-curvature="0" />
          <path
             id="path4392"
             style="fill:#e2e0c6;fill-opacity:1;fill-rule:nonzero;stroke:none"
             d="m 96.035,487.294 -2.133,-5.884 1.938,-0.439 2.384,1.592 0.546,2.382 -2.735,2.349 z"
             inkscape:connector-curvature="0" />
          <path
             id="path4394"
             style="fill:#e2e0c6;fill-opacity:1;fill-rule:nonzero;stroke:none"
             d="m 171.598,424.38 -7.687,1.47 -4.442,5.068 0.19,7.261 2.226,7.015 0.885,6.919 -4.473,4.712 -6.363,1.651 -4.566,4.194 -0.712,4.56 -1.968,0.391 -2.715,4.79 -10.537,1.602 -7.954,-0.24 -11.364,-4.282 -13.606,-1.264 -9.733,8.549 0.162,0.738 1.866,0.923 4.785,-0.679 5.762,-5.913 6.771,1.792 5.674,-0.85 2.744,1.514 -4.609,1.958 -6.504,0.469 -3.262,2.055 3.434,4.654 14.252,0.166 7.505,2.231 11.977,0.376 4.489,1.562 -2.218,2.95 -8.671,-1.641 -5.807,1.812 -4.701,2.929 -3.19,4.546 1.285,5.874 1.547,3.321 17.735,13.886 9.843,23.311 6.143,9.86 6.295,1.204 1.289,-5.456 3.193,-4.107 -0.211,-2.256 -0.576,-1.045 -5.736,-0.744 -1.279,-1.851 -1.373,-3.735 -0.557,-7.776 -0.834,-2.314 2.812,-4.404 6,-3.907 3.243,-0.845 1.777,1.363 -0.078,5.385 -2.016,4.424 0.01,2.893 2.982,0.349 4.405,2.773 2.197,7.028 4.264,7.386 -1.523,1.651 -4.245,0.654 -0.365,2.178 1.172,10.896 1.274,2.813 3.657,4.453 6.42,3.498 7.418,2.197 6.948,0 7.714,-3.21 7.442,2.058 7.744,-0.666 5.381,-2.893 4.385,-5.379 2.285,-4.414 -11.879,-28.22 -10.967,-4.88 0.42,-6.573 10.775,-7.106 -2.129,-7.435 -5.892,-5.439 -7.07,-3.501 -2.633,-7.324 -4.326,-6.094 -5.463,-0.327 -7.618,5.259 -6.718,1.269 -1.442,-5.654 0.505,-10.249 -0.427,-6.611 -2.425,-8.331 -2.295,-11.987 -5.019,-4.414 -1.375,-4.712 0.974,-12.435 -0.703,-3.677 z"
             inkscape:connector-curvature="0" />
          <path
             id="path4396"
             style="fill:#e2e0c6;fill-opacity:1;fill-rule:nonzero;stroke:none"
             d="m 158.287,354.037 8.506,-0.836 4.154,3.629 0.69,8.461 -1.211,5.397 -2.418,5.615 0.586,5.043 2.594,4.668 -4.753,4.146 -4.642,0.518 -7.477,-3.737 -5.81,-7.865 1.172,-9.244 -1.987,-10.326 10.596,-5.469 z"
             inkscape:connector-curvature="0" />
          <path
             id="path4398"
             style="fill:#e2e0c6;fill-opacity:1;fill-rule:nonzero;stroke:none"
             d="m 165.4,570.118 1.93,5.937 -0.146,-0.726 -4.225,-5.289 -6.752,-5.31 -3.014,-4.938 5.68,2.266 3.617,5.775 2.91,2.285 z"
             inkscape:connector-curvature="0" />
          <path
             id="path4400"
             style="fill:#e2e0c6;fill-opacity:1;fill-rule:nonzero;stroke:none"
             d="m 113.145,497.172 -1.245,1.831 4.776,-0.478 4.769,-6.998 0.407,-2.016 -8.707,7.661 z"
             inkscape:connector-curvature="0" />
          <path
             id="path4402"
             style="fill:#e2e0c6;fill-opacity:1;fill-rule:nonzero;stroke:none"
             d="m 103.99,494.955 3.867,0.889 5.317,-4.068 0,-2.119 -9.184,5.298 z"
             inkscape:connector-curvature="0" />
          <path
             id="path4404"
             style="fill:#e2e0c6;fill-opacity:1;fill-rule:nonzero;stroke:none"
             d="m 96.035,487.294 -2.133,-5.884 1.938,-0.439 2.384,1.592 0.546,2.382 -2.735,2.349 z"
             inkscape:connector-curvature="0" />
          <path
             id="path4406"
             style="fill:#e2e0c6;fill-opacity:1;fill-rule:nonzero;stroke:none"
             d="m 171.598,424.38 -7.687,1.47 -4.442,5.068 0.19,7.261 2.226,7.015 0.885,6.919 -4.473,4.712 -6.363,1.651 -4.566,4.194 -0.712,4.56 -1.968,0.391 -2.715,4.79 -10.537,1.602 -7.954,-0.24 -11.364,-4.282 -13.606,-1.264 -9.733,8.549 0.162,0.738 1.866,0.923 4.785,-0.679 5.762,-5.913 6.771,1.792 5.674,-0.85 2.744,1.514 -4.609,1.958 -6.504,0.469 -3.262,2.055 3.434,4.654 14.252,0.166 7.505,2.231 11.977,0.376 4.489,1.562 -2.218,2.95 -8.671,-1.641 -5.807,1.812 -4.701,2.929 -3.19,4.546 1.285,5.874 1.547,3.321 17.735,13.886 9.843,23.311 6.143,9.86 6.295,1.204 1.289,-5.456 3.193,-4.107 -0.211,-2.256 -0.576,-1.045 -5.736,-0.744 -1.279,-1.851 -1.373,-3.735 -0.557,-7.776 -0.834,-2.314 2.812,-4.404 6,-3.907 3.243,-0.845 1.777,1.363 -0.078,5.385 -2.016,4.424 0.01,2.893 2.982,0.349 4.405,2.773 2.197,7.028 4.264,7.386 -1.523,1.651 -4.245,0.654 -0.365,2.178 1.172,10.896 1.274,2.813 3.657,4.453 6.42,3.498 7.418,2.197 6.948,0 7.714,-3.21 7.442,2.058 7.744,-0.666 5.381,-2.893 4.385,-5.379 2.285,-4.414 -11.879,-28.22 -10.967,-4.88 0.42,-6.573 10.775,-7.106 -2.129,-7.435 -5.892,-5.439 -7.07,-3.501 -2.633,-7.324 -4.326,-6.094 -5.463,-0.327 -7.618,5.259 -6.718,1.269 -1.442,-5.654 0.505,-10.249 -0.427,-6.611 -2.425,-8.331 -2.295,-11.987 -5.019,-4.414 -1.375,-4.712 0.974,-12.435 -0.703,-3.677 z"
             inkscape:connector-curvature="0" />
          <path
             id="path4408"
             style="fill:#e2e0c6;fill-opacity:1;fill-rule:nonzero;stroke:none"
             d="m 9.082,436.754 0,-376.135 130.022,0 3.099,-0.152 2.67,6.959 0.459,6.025 -5.902,3.49 -0.885,3.399 0.234,3.756 2.369,6.074 4.903,4.297 9.193,4.492 -0.678,7.168 -4.908,20.654 -0.082,4.219 1.027,3.627 7.674,-0.967 -0.816,8.531 -5.18,2.237 -0.346,8.818 2.075,12.025 -1.93,1.68 -12.881,2.301 -10.258,-10.908 -5.41,-2.256 -2.402,2.168 3.906,16.283 4.252,8.379 3.561,2.197 3.539,4.293 5.467,2.256 1.648,1.811 3.031,6.871 5.592,5.683 19.701,15.19 -1.947,4.336 3.832,4.283 12.447,-3.092 5.113,1.412 5.981,3.578 -1.023,2.266 -0.09,7.236 4.154,19.684 8.359,16.283 3.184,8.6 14.951,14.105 3.014,7.871 -9.039,5.846 -26.45,13.041 -13.164,3.672 -2.92,7.978 -3.691,5.817 -7.744,9.066 -8.506,0.836 -10.596,5.469 -5.996,-0.172 -7.187,3.145 -4.375,6.05 -6.987,5.815 2.457,3.531 -3.015,2.338 3.271,16.041 -4.125,0.844 -5.556,-4.418 -3.866,-4.375 -6.98,1.468 -6.063,3.965 0.692,11.394 -0.502,5.688 -2.828,4.473 -7.93,4.604 -8.09,7.784 -6.392,3.579 -3.164,14.022 -7.485,0.777 -6.777,5.449 -0.19,6.44 2.289,9.719 0.254,1.077 -3.56,-1.274 -15,0.698 -18.799,-2.148 -7.494,-11.333 -5.236,-13.726 0.025,-4.207 z"
             inkscape:connector-curvature="0" />
          <path
             id="path4410"
             style="fill:#e2e0c6;fill-opacity:1;fill-rule:nonzero;stroke:none"
             d="m 304.722,170.867 -3.3,-7.699 -0.097,-4.912 -3.341,-1.832 -7.984,0.67 -2.016,-4.664 0.175,-5.498 1.791,-4.58 -1.858,-3.164 -14.724,5.357 -8.45,1.361 -3.916,4.713 -5.029,3.373 -2.793,-7.763 -9.713,-13.194 -2.696,-6.976 -2.265,-2.897 -4.59,3.887 -3.52,6.592 -7.607,7.408 -2.344,14.971 -8.736,-3.204 -5.248,-5.058 -1.035,-6.68 -3.233,-3.082 -9.185,-5.566 -9.308,2.095 -19.041,-1.402 -6.382,0.537 -7.675,0.967 -1.027,-3.627 0.084,-4.219 4.907,-20.654 0.677,-7.168 -9.192,-4.492 -4.903,-4.297 -2.369,-6.073 -0.234,-3.757 0.885,-3.399 5.902,-3.49 -0.459,-6.025 -2.671,-6.959 5.027,0.152 218.855,0 3.508,0.52 -0.601,9.627 1.966,5.257 8.76,5.528 2.731,-0.268 0.804,-1.412 3.75,0.596 25.797,10.947 6.621,-2.455 7.073,2.963 5.291,-1.381 0.168,-4.518 -3.202,-5.175 -0.107,-1.303 3.628,-1.24 4.116,0.605 2.945,2.006 1.172,3.111 -1.593,3.301 -2.631,1.533 -1.544,3.887 -5.654,3.09 -1.68,2.017 0.475,5.786 -3.261,4.97 1.435,6.075 2.226,4.888 -4.088,-0.595 -1.679,1.464 0.289,3.536 2.783,5.209 8.202,6.64 -6.274,0.904 -9.603,4.405 -22.498,4.902 -6.582,5.527 -3.138,0.873 -8.261,6.481 -2.144,5.687 -0.668,6.104 0.364,3.541 -1.644,1.488 -4.537,-0.277 -3.819,-2.227 -7.276,-0.527 -14.211,0.645 -14.307,-4.372 -12.256,-2.089 -3.263,-0.17 -8.945,4.144 z"
             inkscape:connector-curvature="0" />
          <path
             id="path4412"
             style="fill:#e2e0c6;fill-opacity:1;fill-rule:nonzero;stroke:none"
             d="m 602.418,83.629 0,-23.01 -172.168,0 -5.406,-0.103 -1.42,16.265 5.15,-4.931 11.045,-0.713 2.008,3.965 3.666,-4.03 12.906,-0.625 6.596,11.162 2.09,-0.326 7.685,-14.801 3.19,0.157 0.594,3.144 2.101,-0.316 1.045,-2.129 3.281,-0.42 3.276,-4.522 2.646,-0.166 3.985,2.573 -0.229,9.012 2.973,3.761 -2.256,3.877 8.387,6.422 6.554,-0.02 3.59,5.606 0.735,8.588 -4.545,4.941 -0.096,2.813 2.582,4.166 15.039,4.047 2.436,2.105 0.558,3.34 5.307,-0.27 2.525,-1.24 0.576,0.904 -1.338,4.932 0.176,3.559 2.973,2.486 2.832,-0.338 6.225,-5.17 2.642,1.381 0.586,-1.514 8.351,-4.482 7.186,-11.508 10.172,-5.816 8.224,-11.533 8.514,-3.071 6.922,-4.885 0.129,-3.267 z"
             inkscape:connector-curvature="0" />
          <path
             id="path4414"
             style="fill:#e2e0c6;fill-opacity:1;fill-rule:nonzero;stroke:none"
             d="m 602.477,202.042 -15.538,12.966 -8.983,5.301 -0.5,0.295 -0.536,-14.405 -3.63,-5.668 -18.925,0.44 -3.291,-5.469 4.541,-6.393 -6.829,-12.982 -0.705,-6.709 0.519,-8.252 -8.125,-1.67 -7.95,-7.662 5.366,-0.459 5.24,-3.07 3.51,-10.088 6.279,-10.026 8.35,-4.482 7.186,-11.508 10.173,-5.816 8.223,-11.533 8.516,-3.071 6.922,-4.885 0.187,115.146 z"
             inkscape:connector-curvature="0" />
          <path
             id="path4416"
             style="fill:#e2e0c6;fill-opacity:1;fill-rule:nonzero;stroke:none"
             d="m 602.418,260.816 0,-53.021 0.039,-4.01 -0.061,-1.773 -15.609,12.996 -9.453,5.596 -4.75,10.107 -3.728,15.699 4.435,8.061 4.981,6.718 4.908,-0.546 3.846,-3.129 10.816,0.746 4.554,3.324 0.022,-0.768 z"
             inkscape:connector-curvature="0" />
          <path
             id="path4418"
             style="fill:#e2e0c6;fill-opacity:1;fill-rule:nonzero;stroke:none"
             d="m 602.418,346.961 0,-83.723 -0.022,-1.654 -4.554,-3.324 -10.816,-0.746 -3.846,3.129 -4.908,0.546 -4.981,-6.718 -4.435,-8.061 0.408,9.903 -5.25,7.533 -25.414,-0.854 -9.375,9.512 -5.856,3.32 -23.877,2.782 -4.642,-6.62 -2.647,-6.201 -7.207,-5.498 -6.25,-2.187 -8.224,-0.329 -8.082,1.563 -4.891,4.322 -8.695,4.473 -2.975,4.574 -16.699,15.738 -6.034,9.389 -18.322,17.588 -5.853,9.99 1.283,12.496 -0.816,8.559 -7.875,4.59 -5.098,7.715 0.664,6.142 1.152,2.897 9.702,-11.026 1.724,0.199 4.264,8.795 11.211,3.76 12.367,2.571 12.037,4.724 5.342,7.426 26.678,7.33 3.56,14.947 6.451,-2.192 3.838,-8.542 4.502,-6.543 4.502,-0.317 4.277,-3.121 10.645,9.981 6.709,-4.184 3.263,-6.773 4.979,0.058 14.651,-3.646 5.72,-8.561 7.783,-1.709 0.776,-1.162 -0.102,-2.045 -3.707,-7.32 12.783,-13.168 4.829,-2.275 8.146,5.088 -1.861,4.193 1.015,4.078 16.393,-6.822 11.617,-1.814 0.043,-2.776 z"
             inkscape:connector-curvature="0" />
          <path
             id="path4420"
             style="fill:#e2e0c6;fill-opacity:1;fill-rule:nonzero;stroke:none"
             d="m 602.418,612.796 0,-261.252 -0.101,-1.777 -11.442,1.784 -16.402,6.822 -1.006,-4.078 1.861,-4.193 -8.14,-5.098 -4.834,2.285 -12.784,13.168 3.711,7.32 0.098,2.045 -0.785,1.162 -7.764,1.7 -5.748,8.57 -14.629,3.637 -4.99,-0.059 -3.242,6.773 -6.719,4.174 -10.648,-9.961 -4.274,3.121 2.842,5.239 3.34,12.16 1.783,13.579 -0.621,3.042 -9.58,13.252 -0.43,16.189 0.857,6.691 -0.339,10.923 -1.592,6.513 0.074,15.967 -0.826,5.513 -8.838,7.827 0.049,4.683 3.348,8.009 4.578,7.536 1.39,7.794 0.846,10.816 -4.238,11.243 -0.994,5.725 9.922,-5.666 2.287,3.588 0.386,5.039 -8.31,3.261 5.707,3.509 6.353,1.779 0.606,-2.306 7.832,7.138 8.666,3.916 11.543,1.492 20.537,4.961 21.43,16.363 8.838,2.602 14.615,6.89 5.706,1.01 0.071,-2.42 z"
             inkscape:connector-curvature="0" />
          <path
             id="path4422"
             style="fill:#e2e0c6;fill-opacity:1;fill-rule:nonzero;stroke:none"
             d="m 445.25,707.286 108.334,0 3.145,-0.004 -2.666,-8.511 -6.905,0.398 -7.06,2.495 -6.709,-1.243 -5.278,2.408 -8.638,0.984 -6.454,-3.47 -3.091,-5.964 -5.625,2.314 -4.205,-6.63 -3.637,-8.16 0.732,-13.045 -3.238,-8.2 -3.203,-2.376 -6.016,3.522 -10.337,0.524 -11.44,-3.101 -6.791,2.903 -7.783,0.379 1.035,2.922 1.898,0.566 1.432,6.829 2.129,3.181 -1.621,5.994 -4.039,7.375 -5.95,17.931 1.981,-0.021 z"
             inkscape:connector-curvature="0" />
          <path
             id="path4424"
             style="fill:#e2e0c6;fill-opacity:1;fill-rule:nonzero;stroke:none"
             d="m 9.082,526.598 0,62.969 -0.059,2.744 14.268,-0.94 8.209,-2.545 4.506,-3.319 5.058,-5.786 3.551,-9.463 -0.555,-10.935 -3.322,-9.453 -7.06,-12.803 -6.641,-4.921 -5.184,-1.192 -2.937,1.152 -0.395,-6.154 -2.109,-3.529 -5.576,-0.306 -1.802,1.991 0.048,2.49 z"
             inkscape:connector-curvature="0" />
          <path
             id="path4426"
             style="fill:#e2e0c6;fill-opacity:1;fill-rule:nonzero;stroke:none"
             d="m 9.082,492.849 0,-6.096 0.029,-3.918 2.676,1.061 3.541,6.689 -1.016,3.169 -5.256,1.243 0.026,-2.148 z"
             inkscape:connector-curvature="0" />
          <path
             id="path4428"
             style="fill:#b2432f;fill-opacity:1;fill-rule:nonzero;stroke:none"
             d="m 448.971,268.109 -2.969,4.584 -16.695,15.748 -6.039,9.37 -18.32,17.587 -5.85,10 1.272,12.497 -0.813,8.558 -7.881,4.6 -5.094,7.695 0.67,6.152 1.153,2.907 9.691,-11.045 1.718,0.199 4.274,8.805 11.215,3.769 3.841,0.801 c 0,0 -2.227,20.793 -25.352,23.918 0,0 -14.062,1.875 -20,21.25 -5,11.25 -10,29.375 -25,10.625 -8.75,-10 -65.099,-70.838 -130.987,-111.044 0,0 -2.763,-2.55 -3.232,-3.956 -0.469,-1.25 -3.125,-5.938 -9.375,-6.875 0,0 -11.875,-34.844 -31.094,-47.656 -1.406,-1.093 -2.343,-2.5 -0.625,-4.218 1.094,-1.407 12.969,-19.845 13.594,-30.157 0,-6.875 0.156,-33.282 -10.156,-60.782 -3.75,-8.906 -5.781,-11.718 -2.344,-19.375 0,0 2.5,-4.843 5,-6.718 0,0 2.813,-2.188 4.375,-6.25 0.781,-2.968 1.563,-9.063 5,-6.875 1.406,1.562 2.5,2.657 1.563,6.093 -0.625,2.032 -1.354,2.33 2.37,4.133 l 9.194,5.557 3.228,3.092 1.035,6.689 5.239,5.049 8.75,3.213 2.345,-14.981 7.592,-7.398 3.52,-6.592 4.595,-3.906 2.237,2.896 2.724,6.987 9.713,13.193 2.802,7.754 5.02,-3.363 3.926,-4.713 8.438,-1.348 14.726,-5.381 1.836,3.174 -1.758,4.57 -0.211,5.518 2.047,4.645 7.973,-0.67 3.339,1.851 c 0,0 0.726,-2.99 1.976,-4.24 1.25,-1.25 3.333,-2.916 11.667,-2.5 5,0.416 15,0 16.666,-2.5 1.667,-2.5 2.5,-4.165 1.25,-7.5 -1.25,-3.334 -0.832,-7.917 5.834,-5.834 6.666,2.084 12.916,4.169 19.583,13.334 3.75,4.166 6.25,7.083 18.333,5.416 5.834,-1.666 8.336,-1.998 13.543,-3.916 l 5.366,-4.506 22.498,-4.902 9.603,-4.405 6.274,-0.904 11.968,-0.986 21.364,-3.862 6.591,3.448 6.836,7.416 9.941,1.949 14.057,-4.059 3.975,5.938 3.082,0.195 12.904,-2.426 1.709,5.727 6.314,2.666 7.95,7.662 8.125,1.67 -0.518,8.252 0.702,6.709 6.832,12.982 -4.541,6.393 3.291,5.469 18.925,-0.44 3.629,5.668 0.537,14.405 -4.742,10.107 -3.74,15.699 0.41,9.903 -5.248,7.533 -25.41,-0.864 -9.365,9.523 -5.867,3.319 -23.886,2.783 -4.642,-6.621 -2.642,-6.201 -7.209,-5.498 -6.233,-2.197 -8.228,-0.319 -8.096,1.54 -4.887,4.335 -8.701,4.463"
             inkscape:connector-curvature="0" />
          <path
             id="path4430"
             style="fill:#fbc065;fill-opacity:1;fill-rule:nonzero;stroke:none"
             d="m 485.25,486.129 c -5,2.5 -7.083,6.666 -10.416,14.166 -3.75,7.5 -5,7.5 -15,10.834 -37.918,9.584 -18.334,-31.25 -12.917,-41.25 10.833,-28.333 -10,-22.917 -21.667,-18.334 -20.088,6.25 -38.333,2.917 -47.916,1.25 -10,-2.917 -28.334,-10 -37.084,-12.5 -11.666,-3.75 -28.75,-1.666 -35,0.417 -12.083,4.167 -13.242,4.583 -28.75,1.667 -15.508,-2.916 -34.166,-7.916 -37.916,-9.166 -9.584,-3.334 -12.917,5.416 -14.167,8.749 -1.667,6.667 -10,7.917 -10,7.917 -12.5,1.25 -14.583,-3.75 -17.083,-9.167 -2.5,-5.417 -15,-9.583 -20.417,-10.417 -14.583,-3.75 -11.25,-18.072 -11.25,-18.072 2.187,-5.157 1.875,-9.219 1.406,-11.719 -1.25,-7.344 -5.28,-9.826 -5.28,-9.826 l -7.477,-3.737 -5.81,-7.865 1.172,-9.244 -1.987,-10.326 10.026,-5.174 0.57,-0.295 8.506,-0.836 0.496,-0.58 7.248,-8.486 3.692,-5.817 2.918,-7.978 13.165,-3.672 23.074,-11.377 0.419,-0.206 c 65.888,40.206 122.237,101.044 130.987,111.044 15,18.75 20,0.625 25,-10.625 5.937,-19.375 20,-21.25 20,-21.25 23.125,-3.125 25.352,-23.918 25.352,-23.918 l 1.079,0.225 7.433,1.546 12.072,4.713 5.307,7.416 26.698,7.35 3.55,14.937 6.443,-2.182 3.837,-8.562 4.515,-6.523 4.502,-0.317 2.842,5.239 3.34,12.16 1.783,13.579 -0.621,3.042 -9.58,13.252 -0.43,16.19 0.857,6.69 -0.339,10.923 -1.592,6.513 0.041,8.664 -5.631,0.938 z"
             inkscape:connector-curvature="0" />
          <path
             id="path4432"
             style="fill:#7a929d;fill-opacity:1;fill-rule:nonzero;stroke:none"
             d="m 369.336,585.805 1.035,-3.907 9.395,4.505 7.265,-3.172 5.709,-0.675 -1.466,3.588 10.48,6.877 12.455,1.622 -0.449,-4.097 2.838,1.582 3.398,5.845 9.701,9.342 5.446,0.557 4.056,-1.143 -6.39,-3.31 -3.848,-2.99 -1.769,-3.233 4.455,2.567 5.107,1.361 9.99,0.895 3.071,-4.443 4.625,-3.471 1.074,-4.799 1.849,-0.537 3.516,-3.719 6.084,0.218 4.604,-9.244 0.806,-8.53 13.858,-5.854 0.992,-5.725 4.238,-11.243 -0.846,-10.816 -1.39,-7.794 -4.576,-7.536 -3.35,-8.009 -0.049,-4.683 8.838,-7.827 0.826,-5.513 -0.029,-6.054 -0.004,-1.249 -5.631,0.938 c -5,2.5 -7.083,6.666 -10.416,14.166 -3.75,7.5 -5,7.5 -15,10.834 -37.918,9.584 -18.334,-31.25 -12.917,-41.25 10.833,-28.333 -10,-22.917 -21.667,-18.334 -20.088,6.25 -38.333,2.917 -47.916,1.25 -10,-2.917 -28.334,-10 -37.084,-12.5 -11.666,-3.75 -28.75,-1.666 -35,0.417 -12.083,4.167 -13.242,4.583 -28.75,1.667 -15.508,-2.916 -34.166,-7.916 -37.916,-9.166 -6.557,-2.28 -10.187,1.094 -12.228,4.52 0,0 -8.868,38.294 -28.215,48.189 l -0.288,0.198 -0.724,0.5 -6.607,4.561 -6.717,1.27 -0.951,0.709 c -1.25,1.563 -2.343,14.063 -2.5,18.281 -0.156,9.063 -3.593,12.344 -5.156,13.282 -1.562,0.937 -2.656,3.437 -3.594,4.843 -0.299,0.451 -0.695,0.819 -1.092,1.111 l -1.702,0.896 1.921,0.225 4.406,2.773 2.197,7.028 4.264,7.386 -0.369,0.401 -1.155,1.25 c 0,0 3.301,-0.757 5.176,-1.382 1.875,-0.833 2.5,-1.458 13.125,-0.833 4.584,0.416 7.084,1.25 13.334,0.833 6.25,-0.417 14.537,-3.151 25.186,14.361 l 0.41,-0.794 10.029,0.728 2.08,-6.452 1.041,-0.576 -0.558,6.012 -2.534,3.679 -2.685,2.933 -6.488,3.061 -0.182,1.561 2.838,4.274 3.08,2.119 2.764,4.661 17.812,0.567 9.551,-3.519 2.408,-6.66 -0.088,-7.974 4.272,-0.317 1.494,6.421 4.722,-2.285 2.122,-8.511 2.707,-5.159 -1.69,13.57 2.096,11.074 1.693,2.764 2.86,3.945 14.196,-1.819 1.323,1.313 -7.427,7.017 1.094,4.961 2.793,-0.039 1.162,2.485 -2.632,3.062 -1.362,4.194 1.787,3.511 -2.314,2.275 -3.716,0.954 2.729,2.616 0.679,2.184 9.106,3.709 -0.883,4.314 -3.125,4.664 -1.039,2.628 c 0,0 2.273,-0.429 4.355,2.071 2.084,2.5 3.127,5 3.334,8.125 0.208,3.125 -1.042,7.916 -1.667,8.958 -0.625,1.042 -2.708,6.251 2.083,3.334 4.792,-2.917 6.606,-4.428 9.346,-15.444 l 5.527,1.829 -0.752,-2.913 4.424,-0.268 9.262,-4.723 2.387,-7.168 -1.102,-5.527 -4.463,-4.304 1.936,-2.544 4.851,-0.666 -0.318,-4.693 3.476,-0.476 3.125,3.37 7.057,-3.965 2.059,-4.456 4.125,-0.535 10.706,2.425 2.303,-2.554 -0.703,-5.579 -3.906,-3.867 -4.922,-2.783 -3.031,-5.467 0.824,-3.141"
             inkscape:connector-curvature="0" />
          <path
             id="path4434"
             style="fill:#736093;fill-opacity:1;fill-rule:nonzero;stroke:none"
             d="m 71.393,443.332 -0.446,1.979 -7.504,0.777 -6.65,5.42 -0.309,6.45 2.554,10.815 0.558,2.378 17.295,5.235 6.947,1.504 4.971,-0.347 0.774,0.289 1.224,0.604 4.785,-0.678 5.762,-5.913 6.771,1.792 5.674,-0.85 2.744,1.514 -4.609,1.958 -6.504,0.469 -3.262,2.055 3.434,4.653 14.252,0.167 7.505,2.231 11.977,0.376 4.488,1.562 -2.217,2.95 -8.671,-1.641 -5.807,1.812 -4.701,2.929 -3.19,4.546 1.285,5.874 1.547,3.321 17.735,13.886 9.843,23.311 6.142,9.86 6.296,1.204 1.289,-5.456 3.193,-4.107 -0.211,-2.256 -0.576,-1.045 -5.736,-0.744 -1.279,-1.851 -1.373,-3.735 -0.557,-7.776 -0.834,-2.314 2.812,-4.404 6,-3.907 3.243,-0.845 1.777,1.363 -0.078,5.385 -2.016,4.424 0.01,2.893 1.06,0.124 c 0,0 1.857,-0.6 2.794,-2.007 0.938,-1.406 2.032,-3.906 3.594,-4.843 1.563,-0.938 5,-4.219 5.156,-13.282 0.157,-4.218 1.25,-16.718 2.5,-18.281 l 0.951,-0.71 6.718,-1.269 6.606,-4.561 1.012,-0.698 c 19.347,-9.895 28.216,-48.189 28.216,-48.189 l -0.829,1.554 c -0.49,1.024 -0.846,1.97 -1.111,2.675 -1.668,6.667 -10,7.917 -10,7.917 -12.5,1.25 -14.583,-3.75 -17.083,-9.167 -1.078,-2.336 -4.016,-4.44 -7.443,-6.142 0,0 -6.932,-3.025 -20.891,-1.566 -8.75,1.459 -25.416,6.041 -37.708,5.833 -8.75,0.208 -30.208,-1.458 -37.292,0 -4.791,0.625 -19.591,2.532 -22.607,4.495"
             inkscape:connector-curvature="0" />
          <path
             id="path4436"
             style="fill:#736093;fill-opacity:1;fill-rule:nonzero;stroke:none"
             d="m 165.4,570.118 1.93,5.937 -0.146,-0.726 -4.225,-5.289 -6.752,-5.31 -3.014,-4.938 5.68,2.266 3.617,5.775 2.91,2.285 z"
             inkscape:connector-curvature="0" />
          <path
             id="path4438"
             style="fill:#736093;fill-opacity:1;fill-rule:nonzero;stroke:none"
             d="m 113.145,497.172 -1.245,1.831 4.776,-0.478 4.769,-6.998 0.407,-2.016 -8.707,7.661 z"
             inkscape:connector-curvature="0" />
          <path
             id="path4440"
             style="fill:#736093;fill-opacity:1;fill-rule:nonzero;stroke:none"
             d="m 103.99,494.955 3.867,0.889 5.317,-4.068 0,-2.119 -9.184,5.298 z"
             inkscape:connector-curvature="0" />
          <path
             id="path4442"
             style="fill:#736093;fill-opacity:1;fill-rule:nonzero;stroke:none"
             d="m 96.035,487.294 -2.133,-5.884 1.938,-0.439 2.384,1.592 0.546,2.382 -2.735,2.349 z"
             inkscape:connector-curvature="0" />
          <path
             id="path4444"
             style="fill:#b2d26b;fill-opacity:1;fill-rule:nonzero;stroke:none"
             d="m 313.563,627.623 -0.379,1.851 -3.125,4.664 -3.838,9.711 0.464,2.032 c 0,0 0.232,1.081 1.482,-1.419 1.041,-1.875 1.666,-3.958 2.5,-5.208 0.832,-2.084 0.625,-2.5 2.916,-4.167 2.293,-1.667 3.959,-2.499 4.793,-5.833 0.416,-2.084 0.166,-3.47 -4.813,-1.631"
             inkscape:connector-curvature="0" />
          <path
             id="path4446"
             style="fill:#b2d26b;fill-opacity:1;fill-rule:nonzero;stroke:none"
             d="m 236.895,563.615 -1.875,3.62 -4.385,5.379 -5.381,2.893 -7.744,0.666 -7.442,-2.058 -7.714,3.21 -6.948,0 -7.418,-2.197 -6.42,-3.498 -3.658,-4.453 -1.273,-2.813 -1.172,-10.896 0.366,-2.178 4.243,-0.654 c 0,0 3.3,-0.757 5.175,-1.382 1.875,-0.833 2.5,-1.458 13.125,-0.833 4.584,0.416 7.084,1.25 13.334,0.833 6.25,-0.417 14.539,-3.151 25.187,14.361"
             inkscape:connector-curvature="0" />
          <path
             id="path4448"
             style="fill:#b2d26b;fill-opacity:1;fill-rule:nonzero;stroke:none"
             d="m 260.667,551.129 c 0,0 -6.667,-0.417 -5.833,-5.417 0.833,-5 0,-6.666 4.583,-5.833 4.583,0.833 7.083,2.917 6.667,6.667 -0.417,3.75 -3.334,5.416 -5.417,4.583"
             inkscape:connector-curvature="0" />
          <path
             id="path4450"
             style="fill:none;stroke:#858a9d;stroke-width:0.25;stroke-linecap:butt;stroke-linejoin:miter;stroke-miterlimit:4;stroke-opacity:1;stroke-dasharray:none"
             d="m 275.586,183.416 5.182,4.971 1.058,7.988 -0.375,5.719 -5.088,4.115 -3.183,-6.371 -2.067,-6.709 4.473,-9.713"
             inkscape:connector-curvature="0" />
          <path
             id="path4452"
             style="fill:none;stroke:#858a9d;stroke-width:0.25;stroke-linecap:butt;stroke-linejoin:miter;stroke-miterlimit:4;stroke-opacity:1;stroke-dasharray:none"
             d="m 532.525,151.834 -6.313,-2.666 -1.709,-5.727 -12.905,2.426 -3.082,-0.195 -3.974,-5.938 -14.058,4.059 -9.94,-1.949 -6.837,-7.416 -6.592,-3.448 -21.362,3.862 -11.968,0.986 -8.203,-6.64 -2.784,-5.209 -0.289,-3.536 1.68,-1.464 4.088,0.595 -2.227,-4.888 -1.435,-6.075 3.263,-4.97 -0.476,-5.786 1.68,-2.017 5.654,-3.09 1.543,-3.887 2.633,-1.533 1.593,-3.301 -1.173,-3.111 -2.945,-2.006 -4.116,-0.605 -3.628,1.24 -5.22,-2.764 5.151,-4.931 11.045,-0.713 2.009,3.965 3.666,-4.03 12.905,-0.625 6.597,11.162 2.088,-0.326 7.686,-14.801 3.189,0.157 0.596,3.144 2.1,-0.316 1.046,-2.129 3.28,-0.42 3.276,-4.522 2.646,-0.166 3.985,2.573 -0.228,9.013 2.972,3.76 -2.257,3.877 8.389,6.422 6.553,-0.02 3.59,5.606 0.736,8.588 -4.545,4.941 -0.098,2.813 2.582,4.166 15.039,4.047 2.438,2.105 0.558,3.34 5.306,-0.27 2.525,-1.24 0.576,0.904 -1.338,4.932 0.176,3.559 2.972,2.486 2.832,-0.338 6.227,-5.17 2.642,1.381 0.586,-1.514 -6.28,10.026 -3.511,10.088 -5.239,3.07 -5.366,0.459"
             inkscape:connector-curvature="0" />
          <path
             id="path4454"
             style="fill:none;stroke:#858a9d;stroke-width:0.25;stroke-linecap:butt;stroke-linejoin:miter;stroke-miterlimit:4;stroke-opacity:1;stroke-dasharray:none"
             d="m 369.336,585.805 -0.824,3.141 3.031,5.467 4.922,2.783 3.906,3.867 0.703,5.579 -2.303,2.554 -10.706,-2.425 -4.125,0.535 -2.059,4.456 -7.057,3.965 -3.125,-3.37 -3.476,0.476 0.318,4.693 -4.851,0.666 -1.936,2.544 4.463,4.304 1.102,5.527 -2.387,7.168 -9.262,4.723 -4.424,0.268 0.752,2.913 -5.527,-1.829 -13.649,5.855 -5.175,0.427 -1.426,-6.243 3.838,-9.711 3.125,-4.664 0.883,-4.314 -9.106,-3.709 -0.679,-2.184 -2.729,-2.616 3.716,-0.954 2.314,-2.275 -1.787,-3.511 1.362,-4.194 2.632,-3.062 -1.162,-2.485 -2.793,0.039 -1.094,-4.961 7.427,-7.017 -1.323,-1.313 -14.196,1.819 -2.86,-3.945 -1.693,-2.764 -2.096,-11.074 1.69,-13.57 -2.707,5.159 -2.122,8.511 -4.722,2.285 -1.494,-6.421 -4.272,0.317 0.088,7.974 -2.408,6.66 -9.551,3.519 -17.812,-0.567 -2.764,-4.661 -3.08,-2.119 -2.838,-4.274 0.182,-1.561 6.488,-3.061 2.685,-2.933 2.534,-3.679 0.558,-6.012 -1.041,0.576 -2.08,6.452 -10.029,-0.728 -11.879,-28.22 -10.967,-4.88 0.42,-6.573 10.775,-7.106 -2.13,-7.435 -5.891,-5.439 -7.07,-3.501 -2.633,-7.324 -4.326,-6.094 -5.463,-0.327 -7.619,5.259 -6.717,1.27 -1.442,-5.655 0.504,-10.249 -0.427,-6.611 -2.424,-8.331 -2.295,-11.988 -5.02,-4.413 -1.373,-4.712 0.973,-12.435 -0.703,-3.677 2.424,-5.039 -0.159,-7.246 2.612,-6.802 -0.992,-5.356 -9.047,-9.777 4.752,-4.146 -2.594,-4.668 -0.586,-5.043 2.418,-5.615 1.211,-5.397 -0.69,-8.461 -4.154,-3.629 7.744,-9.066 3.692,-5.817 2.918,-7.978 13.166,-3.672 26.449,-13.041 9.039,-5.846 -3.014,-7.871 -14.951,-14.105 -3.184,-8.6 -8.359,-16.283 -4.154,-19.684 0.092,-7.236 1.021,-2.266 4.545,-5.316 25.625,-0.885 18.818,1.113 13.828,-6.015 11.813,-7.944 7.803,1.938 6.965,-0.576 5.925,-2.494 3.09,-6.631 6.61,-4.473 4.069,1.758 2.871,4.545 5.371,4.224 8.302,-1.978 8.783,-6.729 9.713,-1.132 15,7.505 24.336,0.395 3.379,3.232 8.041,-3.441 10.555,-1.031 2.496,-5.899 5.91,2.08 0.146,5.616 -3.847,11.851 0.351,11.807 4.164,7.894 16.61,5.049 2.704,6.524 3.635,5.894 12.78,3.985 1.328,5.507 -2.969,4.584 -16.695,15.748 -6.039,9.37 -18.321,17.587 -5.849,10 1.273,12.497 -0.814,8.558 -7.881,4.6 -5.094,7.695 0.67,6.152 1.152,2.907 9.692,-11.045 1.719,0.199 4.273,8.805 11.215,3.769 12.353,2.572 12.072,4.713 5.307,7.416 26.698,7.35 3.55,14.937 6.442,-2.182 3.838,-8.562 4.515,-6.523 4.502,-0.317 2.842,5.239 3.34,12.16 1.783,13.579 -0.621,3.042 -9.58,13.252 -0.43,16.19 0.857,6.69 -0.339,10.923 -1.592,6.513 0.074,15.967 -0.826,5.513 -8.838,7.827 0.049,4.683 3.35,8.009 4.576,7.536 1.39,7.794 0.846,10.816 -4.238,11.243 -0.992,5.725 -13.858,5.854 -0.806,8.53 -4.604,9.244 -6.084,-0.218 -3.516,3.719 -1.849,0.537 -1.074,4.799 -4.625,3.471 -3.071,4.443 -9.99,-0.895 -5.107,-1.361 -4.455,-2.567 1.769,3.233 3.848,2.99 6.39,3.31 -4.056,1.143 -5.446,-0.557 -9.701,-9.342 -3.398,-5.845 -2.838,-1.582 0.449,4.097 -12.455,-1.622 -10.48,-6.877 1.466,-3.588 -5.709,0.675 -7.265,3.172 -9.395,-4.505 -1.035,3.907"
             inkscape:connector-curvature="0" />
          <path
             id="path4456"
             style="fill:none;stroke:#858a9d;stroke-width:0.25;stroke-linecap:butt;stroke-linejoin:miter;stroke-miterlimit:4;stroke-opacity:1;stroke-dasharray:none"
             d="m 469.121,604.276 -0.029,-3.966 1.65,-3.532 -0.654,-2.572 -2.856,2.505 -3.818,-0.786 -2.135,-1.69 -5.139,1.603 -3.488,3.726 1.787,2.464 0.625,3.152 -1.041,4.99 2.774,0.478 7.564,-4.465 -0.904,3.103 -3.451,2.951 -1.998,3.201 1.728,2.088 3.301,-1.043 0.48,-3.042 4.837,-0.825 2.886,-1.769 -2.119,-6.571"
             inkscape:connector-curvature="0" />
          <path
             id="path4458"
             style="fill:none;stroke:#858a9d;stroke-width:0.25;stroke-linecap:butt;stroke-linejoin:miter;stroke-miterlimit:4;stroke-opacity:1;stroke-dasharray:none"
             d="m 158.125,133.689 -0.813,8.532 -5.177,2.226 -0.323,8.828 2.071,12.026 -1.93,1.66 -12.871,2.32 -10.258,-10.918 -5.439,-2.246 -2.379,2.168 3.896,16.283 4.268,8.36 3.559,2.217 3.527,4.293 5.478,2.25 1.651,1.796 3.031,6.901 5.557,5.674 19.732,15.179 -1.949,4.347 3.828,4.282 12.457,-3.101 5.106,1.422 5.988,3.578 4.502,-5.336 25.658,-0.875 18.828,1.103 13.828,-6.015 11.807,-7.933 4.605,-6.5 -3.183,-6.372 -2.067,-6.709 4.473,-9.713 3.984,-3.959 7.321,-4.391 6.621,-1.8 5.99,2.425 5.093,-4.804 -3.29,-7.709 -0.114,-4.893 -3.338,-1.851 -7.974,0.67 -2.047,-4.644 0.211,-5.519 1.758,-4.57 -1.836,-3.174 -14.727,5.381 -8.437,1.348 -3.926,4.713 -5.021,3.364 -2.801,-7.755 -9.713,-13.193 -2.725,-6.987 -2.236,-2.896 -4.594,3.906 -3.521,6.592 -7.592,7.398 -2.344,14.981 -8.75,-3.213 -5.24,-5.049 -1.035,-6.689 -3.227,-3.092 -9.195,-5.557 -9.336,2.086 -19.008,-1.383 -6.412,0.537"
             inkscape:connector-curvature="0" />
          <path
             id="path4460"
             style="fill:none;stroke:#858a9d;stroke-width:0.25;stroke-linecap:butt;stroke-linejoin:miter;stroke-miterlimit:4;stroke-opacity:1;stroke-dasharray:none"
             d="m 147.549,359.535 -5.961,-0.181 -7.207,3.154 -4.355,6.041 -6.998,5.814 2.451,3.551 -2.999,2.328 3.257,16.023 -4.11,0.858 -5.592,-4.414 -3.841,-4.375 -7.003,1.469 -6.045,3.965 0.698,11.398 -0.508,5.674 -2.813,4.463 -7.933,4.624 -8.092,7.783 -6.4,3.579 -3.152,14.023 -7.502,0.776 -6.651,5.42 -0.308,6.45 2.554,10.815 0.557,2.378 17.295,5.235 6.947,1.504 4.971,-0.347 -0.166,-0.736 9.76,-8.561 13.609,1.275 11.363,4.262 7.953,0.249 10.527,-1.611 2.711,-4.771 1.948,-0.385 0.748,-4.576 4.541,-4.184 6.381,-1.651 4.469,-4.711 -0.889,-6.919 -2.227,-7.026 -0.205,-7.246 4.463,-5.073 7.69,-1.48 2.418,-5.048 -0.157,-7.237 2.621,-6.801 -0.996,-5.347 -9.043,-9.773 -4.672,0.495 -7.447,-3.717 -5.824,-7.885 1.162,-9.225 -1.998,-10.326"
             inkscape:connector-curvature="0" />
          <path
             id="path4462"
             style="fill:none;stroke:#858a9d;stroke-width:0.25;stroke-linecap:butt;stroke-linejoin:miter;stroke-miterlimit:4;stroke-opacity:1;stroke-dasharray:none"
             d="m 448.971,268.109 -1.328,-5.507 -12.779,-3.985 -3.637,-5.894 -2.702,-6.524 -16.611,-5.049 -4.164,-7.894 -0.352,-11.807 3.847,-11.851 -0.145,-5.616 -5.909,-2.08 -2.495,5.899 -10.557,1.031 -8.041,3.441 -3.379,-3.232 -24.336,-0.395 -15,-7.505 -9.713,1.132 -8.783,6.729 -8.302,1.978 -5.371,-4.224 -2.871,-4.545 -4.068,-1.758 -6.611,4.473 -3.089,6.631 -5.925,2.494 -6.966,0.576 -7.803,-1.938 4.61,-6.49 5.101,-4.125 0.397,-5.728 -1.085,-7.992 -5.202,-4.948 4.021,-3.959 7.295,-4.39 6.611,-1.801 6.025,2.406 5.068,-4.795 8.945,-4.144 3.263,0.17 12.256,2.089 14.305,4.372 14.213,-0.645 7.276,0.527 3.819,2.228 4.537,0.276 1.644,-1.488 -0.364,-3.541 0.666,-6.104 2.146,-5.687 8.261,-6.481 3.138,-0.873 6.582,-5.527 22.498,-4.902 9.603,-4.405 6.274,-0.904 11.968,-0.986 21.364,-3.862 6.591,3.448 6.836,7.416 9.941,1.949 14.057,-4.059 3.975,5.938 3.082,0.195 12.904,-2.426 1.709,5.727 6.314,2.666 7.95,7.662 8.125,1.67 -0.518,8.252 0.702,6.709 6.832,12.982 -4.541,6.393 3.291,5.469 18.925,-0.44 3.629,5.668 0.537,14.405 -4.742,10.107 -3.74,15.699 0.41,9.903 -5.248,7.533 -25.41,-0.864 -9.365,9.523 -5.867,3.319 -23.886,2.783 -4.642,-6.621 -2.642,-6.201 -7.209,-5.498 -6.233,-2.197 -8.228,-0.319 -8.096,1.54 -4.887,4.335 -8.701,4.463"
             inkscape:connector-curvature="0" />
          <path
             id="path4464"
             style="fill:none;stroke:#858a9d;stroke-width:0.25;stroke-linecap:butt;stroke-linejoin:miter;stroke-miterlimit:4;stroke-opacity:1;stroke-dasharray:none"
             d="m 521.689,632.836 -1.166,9.473 -4.918,4.86 -4.345,2.197 -2.602,-10.329 2.763,-3.589 3.955,-1.787 6.313,-0.825"
             inkscape:connector-curvature="0" />
          <path
             id="path4466"
             style="fill:none;stroke:#858a9d;stroke-width:0.25;stroke-linecap:butt;stroke-linejoin:miter;stroke-miterlimit:4;stroke-opacity:1;stroke-dasharray:none"
             d="m 415.332,639.247 1.533,0.197 2.256,-1.201 0.684,-2.526 4.99,-3.159 0.029,-3.609 -3.877,-2.407 -0.732,-1.809 -1.592,-8.31 -2.256,2.326 1.154,8.172 -1.632,1.888 -0.518,4.017 -1.303,1.091 -1.308,4.674 0.107,0.925 2.465,-0.269"
             inkscape:connector-curvature="0" />
          <path
             id="path4468"
             style="fill:none;stroke:#858a9d;stroke-width:0.25;stroke-linecap:butt;stroke-linejoin:miter;stroke-miterlimit:4;stroke-opacity:1;stroke-dasharray:none"
             d="m 396.734,641.771 0.894,-0.667 0.614,-2.921 2.311,-0.826 2.142,-2.903 1.871,-0.783 0.18,1.489 2.037,-0.227 0.17,1.48 2.486,-0.288 0.176,-2.088 2.031,-3.239 1.352,-8.094 -2.598,-0.644 -5.693,1.779 -1.762,-1.88 -3.091,-0.388 -5.616,6.135 -6.015,3.378 -1.035,3.163 1.91,-0.437 2.416,2.742 -1.918,0.229 -1.143,3.161 2.802,1.541 4.395,-0.527 1.084,0.815"
             inkscape:connector-curvature="0" />
          <path
             id="path4470"
             style="fill:none;stroke:#858a9d;stroke-width:0.25;stroke-linecap:butt;stroke-linejoin:miter;stroke-miterlimit:4;stroke-opacity:1;stroke-dasharray:none"
             d="m 359.518,680.79 3.207,1.47 7.916,-0.14 4.291,-3.965 1.631,0.169 0.527,3.906 1.573,1.302 3.726,-8.974 -1.045,-4.793 0.756,-4.075 0.865,-1.621 2.754,-1.301 -0.127,-1.104 -1.89,0.427 -0.787,-5 -1.879,-6.213 -4.897,-0.298 -3.78,-1.413 -3.339,1.016 -4.512,3.607 -6.054,-0.686 0.334,2.405 2.536,2.685 -2.437,0.338 -6.508,3.737 0.2,4.512 -2.541,3.392 1.355,2.653 -2.057,2.952 0.952,-0.139 0.181,1.303 -1.162,2.246 0.259,1.858 2.95,-0.417 3.183,-1.758 3.819,1.919"
             inkscape:connector-curvature="0" />
          <path
             id="path4472"
             style="fill:none;stroke:#858a9d;stroke-width:0.25;stroke-linecap:butt;stroke-linejoin:miter;stroke-miterlimit:4;stroke-opacity:1;stroke-dasharray:none"
             d="m 383.848,649.018 0.582,4.465 1.19,1.739 2.026,-0.241 -0.804,-8.795 -4.033,-5.369 -0.739,-3.857 -1.747,-1.868 -2.032,-4.663 -1.738,-0.724 0.201,4.889 -1.402,4.155 1.24,0.408 2.256,5.586 2.529,3.65 2.471,0.625"
             inkscape:connector-curvature="0" />
          <path
             id="path4474"
             style="fill:none;stroke:#858a9d;stroke-width:0.25;stroke-linecap:butt;stroke-linejoin:miter;stroke-miterlimit:4;stroke-opacity:1;stroke-dasharray:none"
             d="m 408.086,701.435 5.299,-1.758 8.389,-0.757 -0.436,-2.803 -2.09,-0.696 -0.683,-5.01 -1.592,-0.775 0.299,-0.985 1.591,0.777 -0.142,-4.889 0.068,-3.034 2.858,2.516 1.668,5.287 1.105,0.437 0.565,3.906 -0.536,0.061 0.684,1.233 1.045,-0.11 1.947,-7.197 -0.478,-3.349 -1.049,0.129 -1.178,-1.78 0.947,-0.287 -0.139,-1.283 1.868,-0.397 1.988,14.115 -1.123,2.195 -2.871,0.887 -0.143,2.465 4.518,4.422 6.133,1.016 0.654,1.062 3.983,-0.049 2.716,-4.224 2.09,-8.152 1.332,-0.498 -0.824,-2.744 0.537,-3.071 0.883,-0.655 -0.459,-3.341 1.6,-6.202 -4.422,0.457 -2.256,-2.029 -2.944,0.296 -3.466,-3.416 -1.94,-3.182 -1.123,-4.404 3.887,-0.596 2.295,-4.772 -0.737,-5.765 -9.185,-1.303 -1.27,-1.739 -0.259,-2.426 0.953,-0.108 0.537,-3.073 -0.967,0.1 -0.684,-1.421 -0.556,-3.907 -3.52,-0.579 -1.709,2.279 -8.57,2.643 -2.295,1.78 0.137,1.114 2.857,-1.462 0.028,3.967 0.962,-0.11 0.231,2.048 -7.955,2.982 -7.92,0.578 0.166,5.058 -3.627,1.948 -0.723,1.988 0.137,1.125 1.006,0.257 0.884,2.903 1.503,10.209 -1.235,2.226 -4.336,1.104 -0.791,1.432 2.193,1.242 -3.238,1.521 0.116,0.925 2.207,1.243 8.263,-1.194 3.588,0.518 1.621,4.721 3.467,-0.408 1.621,1.133 0.865,2.923 -4.82,4.712"
             inkscape:connector-curvature="0" />
          <path
             id="path4476"
             style="fill:none;stroke:#858a9d;stroke-width:0.25;stroke-linecap:butt;stroke-linejoin:miter;stroke-miterlimit:4;stroke-opacity:1;stroke-dasharray:none"
             d="m 307.646,650.092 5.176,-0.427 13.649,-5.855 5.528,1.829 2.347,0.426 0.914,0.995 1.553,0.168 0.843,-1.648 2.959,-0.806 0.382,2.603 -1.134,2.825 -2.226,2.605 -4.056,0.586 0.077,3.388 0.737,4.832 6.552,3.23 0.319,2.227 -1.495,0.209 0.323,5.081 2.474,6.479 -1.147,2.428 6.485,5.326 -0.114,2.288 -3.368,4.663 3.857,0.773 7.496,-2.207 1.205,4.007 -2.147,5.052 2.821,1.877 7.515,-1.808 3.492,3.698 -0.132,2.443 -1.614,-0.093 -64.688,0 -3.249,0.085 -1.025,-6.075 -3.174,-9.949 2.934,-0.479 2.467,1.113 5.165,-4.452 3.379,-5.1 1.889,-6.383 -3.188,-19.841 0.219,-6.113"
             inkscape:connector-curvature="0" />
          <path
             id="path4478"
             style="fill:none;stroke:#858a9d;stroke-width:0.25;stroke-linecap:butt;stroke-linejoin:miter;stroke-miterlimit:4;stroke-opacity:1;stroke-dasharray:none"
             d="m 165.4,570.118 1.93,5.937 -0.146,-0.726 -4.225,-5.289 -6.752,-5.31 -3.014,-4.938 5.68,2.266 3.617,5.775 2.91,2.285"
             inkscape:connector-curvature="0" />
          <path
             id="path4480"
             style="fill:none;stroke:#858a9d;stroke-width:0.25;stroke-linecap:butt;stroke-linejoin:miter;stroke-miterlimit:4;stroke-opacity:1;stroke-dasharray:none"
             d="m 113.145,497.172 -1.245,1.831 4.776,-0.478 4.769,-6.998 0.407,-2.016 -8.707,7.661"
             inkscape:connector-curvature="0" />
          <path
             id="path4482"
             style="fill:none;stroke:#858a9d;stroke-width:0.25;stroke-linecap:butt;stroke-linejoin:miter;stroke-miterlimit:4;stroke-opacity:1;stroke-dasharray:none"
             d="m 103.99,494.955 3.867,0.889 5.317,-4.068 0,-2.119 -9.184,5.298"
             inkscape:connector-curvature="0" />
          <path
             id="path4484"
             style="fill:none;stroke:#858a9d;stroke-width:0.25;stroke-linecap:butt;stroke-linejoin:miter;stroke-miterlimit:4;stroke-opacity:1;stroke-dasharray:none"
             d="m 96.035,487.294 -2.133,-5.884 1.938,-0.439 2.384,1.592 0.546,2.382 -2.735,2.349"
             inkscape:connector-curvature="0" />
          <path
             id="path4486"
             style="fill:none;stroke:#858a9d;stroke-width:0.25;stroke-linecap:butt;stroke-linejoin:miter;stroke-miterlimit:4;stroke-opacity:1;stroke-dasharray:none"
             d="m 171.598,424.38 -7.687,1.47 -4.442,5.068 0.19,7.261 2.226,7.015 0.885,6.919 -4.473,4.712 -6.363,1.651 -4.566,4.194 -0.712,4.56 -1.968,0.391 -2.715,4.79 -10.537,1.602 -7.954,-0.24 -11.364,-4.282 -13.606,-1.264 -9.733,8.549 0.162,0.738 1.866,0.923 4.785,-0.679 5.762,-5.913 6.771,1.792 5.674,-0.85 2.744,1.514 -4.609,1.958 -6.504,0.469 -3.262,2.055 3.434,4.654 14.252,0.166 7.505,2.231 11.977,0.376 4.489,1.562 -2.218,2.95 -8.671,-1.641 -5.807,1.812 -4.701,2.929 -3.19,4.546 1.285,5.874 1.547,3.321 17.735,13.886 9.843,23.311 6.143,9.86 6.295,1.204 1.289,-5.456 3.193,-4.107 -0.211,-2.256 -0.576,-1.045 -5.736,-0.744 -1.279,-1.851 -1.373,-3.735 -0.557,-7.776 -0.834,-2.314 2.812,-4.404 6,-3.907 3.243,-0.845 1.777,1.363 -0.078,5.385 -2.016,4.424 0.01,2.893 2.982,0.349 4.405,2.773 2.197,7.028 4.264,7.386 -1.523,1.651 -4.245,0.654 -0.365,2.178 1.172,10.896 1.274,2.813 3.657,4.453 6.42,3.498 7.418,2.197 6.948,0 7.714,-3.21 7.442,2.058 7.744,-0.666 5.381,-2.893 4.385,-5.379 2.285,-4.414 -11.879,-28.22 -10.967,-4.88 0.42,-6.573 10.775,-7.106 -2.129,-7.435 -5.892,-5.439 -7.07,-3.501 -2.633,-7.324 -4.326,-6.094 -5.463,-0.327 -7.618,5.259 -6.718,1.269 -1.442,-5.654 0.505,-10.249 -0.427,-6.611 -2.425,-8.331 -2.295,-11.987 -5.019,-4.414 -1.375,-4.712 0.974,-12.435 -0.703,-3.677"
             inkscape:connector-curvature="0" />
          <path
             id="path4488"
             style="fill:none;stroke:#858a9d;stroke-width:0.25;stroke-linecap:butt;stroke-linejoin:miter;stroke-miterlimit:4;stroke-opacity:1;stroke-dasharray:none"
             d="m 158.287,354.037 8.506,-0.836 4.154,3.629 0.69,8.461 -1.211,5.397 -2.418,5.615 0.586,5.043 2.594,4.668 -4.753,4.146 -4.642,0.518 -7.477,-3.737 -5.81,-7.865 1.172,-9.244 -1.987,-10.326 10.596,-5.469"
             inkscape:connector-curvature="0" />
          <path
             id="path4490"
             style="fill:none;stroke:#858a9d;stroke-width:0.25;stroke-linecap:butt;stroke-linejoin:miter;stroke-miterlimit:4;stroke-opacity:1;stroke-dasharray:none"
             d="m 165.4,570.118 1.93,5.937 -0.146,-0.726 -4.225,-5.289 -6.752,-5.31 -3.014,-4.938 5.68,2.266 3.617,5.775 2.91,2.285"
             inkscape:connector-curvature="0" />
          <path
             id="path4492"
             style="fill:none;stroke:#858a9d;stroke-width:0.25;stroke-linecap:butt;stroke-linejoin:miter;stroke-miterlimit:4;stroke-opacity:1;stroke-dasharray:none"
             d="m 113.145,497.172 -1.245,1.831 4.776,-0.478 4.769,-6.998 0.407,-2.016 -8.707,7.661"
             inkscape:connector-curvature="0" />
          <path
             id="path4494"
             style="fill:none;stroke:#858a9d;stroke-width:0.25;stroke-linecap:butt;stroke-linejoin:miter;stroke-miterlimit:4;stroke-opacity:1;stroke-dasharray:none"
             d="m 103.99,494.955 3.867,0.889 5.317,-4.068 0,-2.119 -9.184,5.298"
             inkscape:connector-curvature="0" />
          <path
             id="path4496"
             style="fill:none;stroke:#858a9d;stroke-width:0.25;stroke-linecap:butt;stroke-linejoin:miter;stroke-miterlimit:4;stroke-opacity:1;stroke-dasharray:none"
             d="m 96.035,487.294 -2.133,-5.884 1.938,-0.439 2.384,1.592 0.546,2.382 -2.735,2.349"
             inkscape:connector-curvature="0" />
          <path
             id="path4498"
             style="fill:none;stroke:#858a9d;stroke-width:0.25;stroke-linecap:butt;stroke-linejoin:miter;stroke-miterlimit:4;stroke-opacity:1;stroke-dasharray:none"
             d="m 171.598,424.38 -7.687,1.47 -4.442,5.068 0.19,7.261 2.226,7.015 0.885,6.919 -4.473,4.712 -6.363,1.651 -4.566,4.194 -0.712,4.56 -1.968,0.391 -2.715,4.79 -10.537,1.602 -7.954,-0.24 -11.364,-4.282 -13.606,-1.264 -9.733,8.549 0.162,0.738 1.866,0.923 4.785,-0.679 5.762,-5.913 6.771,1.792 5.674,-0.85 2.744,1.514 -4.609,1.958 -6.504,0.469 -3.262,2.055 3.434,4.654 14.252,0.166 7.505,2.231 11.977,0.376 4.489,1.562 -2.218,2.95 -8.671,-1.641 -5.807,1.812 -4.701,2.929 -3.19,4.546 1.285,5.874 1.547,3.321 17.735,13.886 9.843,23.311 6.143,9.86 6.295,1.204 1.289,-5.456 3.193,-4.107 -0.211,-2.256 -0.576,-1.045 -5.736,-0.744 -1.279,-1.851 -1.373,-3.735 -0.557,-7.776 -0.834,-2.314 2.812,-4.404 6,-3.907 3.243,-0.845 1.777,1.363 -0.078,5.385 -2.016,4.424 0.01,2.893 2.982,0.349 4.405,2.773 2.197,7.028 4.264,7.386 -1.523,1.651 -4.245,0.654 -0.365,2.178 1.172,10.896 1.274,2.813 3.657,4.453 6.42,3.498 7.418,2.197 6.948,0 7.714,-3.21 7.442,2.058 7.744,-0.666 5.381,-2.893 4.385,-5.379 2.285,-4.414 -11.879,-28.22 -10.967,-4.88 0.42,-6.573 10.775,-7.106 -2.129,-7.435 -5.892,-5.439 -7.07,-3.501 -2.633,-7.324 -4.326,-6.094 -5.463,-0.327 -7.618,5.259 -6.718,1.269 -1.442,-5.654 0.505,-10.249 -0.427,-6.611 -2.425,-8.331 -2.295,-11.987 -5.019,-4.414 -1.375,-4.712 0.974,-12.435 -0.703,-3.677"
             inkscape:connector-curvature="0" />
          <path
             id="path4500"
             style="fill:none;stroke:#858a9d;stroke-width:0.25;stroke-linecap:butt;stroke-linejoin:miter;stroke-miterlimit:4;stroke-opacity:1;stroke-dasharray:none"
             d="m 9.082,436.754 0,-376.135 130.022,0 3.099,-0.152 2.67,6.959 0.459,6.025 -5.902,3.49 -0.885,3.399 0.234,3.756 2.369,6.074 4.903,4.297 9.193,4.492 -0.678,7.168 -4.908,20.654 -0.082,4.219 1.027,3.627 7.674,-0.967 -0.816,8.531 -5.18,2.237 -0.346,8.818 2.075,12.025 -1.93,1.68 -12.881,2.301 -10.258,-10.908 -5.41,-2.256 -2.402,2.168 3.906,16.283 4.252,8.379 3.561,2.197 3.539,4.293 5.467,2.256 1.648,1.811 3.031,6.871 5.592,5.683 19.701,15.19 -1.947,4.336 3.832,4.283 12.447,-3.092 5.113,1.412 5.981,3.578 -1.023,2.266 -0.09,7.236 4.154,19.684 8.359,16.283 3.184,8.6 14.951,14.105 3.014,7.871 -9.039,5.846 -26.45,13.041 -13.164,3.672 -2.92,7.978 -3.691,5.817 -7.744,9.066 -8.506,0.836 -10.596,5.469 -5.996,-0.172 -7.187,3.145 -4.375,6.05 -6.987,5.815 2.457,3.531 -3.015,2.338 3.271,16.041 -4.125,0.844 -5.556,-4.418 -3.866,-4.375 -6.98,1.468 -6.063,3.965 0.692,11.394 -0.502,5.688 -2.828,4.473 -7.93,4.604 -8.09,7.784 -6.392,3.579 -3.164,14.022 -7.485,0.777 -6.777,5.449 -0.19,6.44 2.289,9.719 0.254,1.077 -3.56,-1.274 -15,0.698 -18.799,-2.148 -7.494,-11.333 -5.236,-13.726 0.025,-4.207 z"
             inkscape:connector-curvature="0" />
          <path
             id="path4502"
             style="fill:none;stroke:#858a9d;stroke-width:0.25;stroke-linecap:butt;stroke-linejoin:miter;stroke-miterlimit:4;stroke-opacity:1;stroke-dasharray:none"
             d="m 304.722,170.867 -3.3,-7.699 -0.097,-4.912 -3.341,-1.832 -7.984,0.67 -2.016,-4.664 0.175,-5.498 1.791,-4.58 -1.858,-3.164 -14.724,5.357 -8.45,1.361 -3.916,4.713 -5.029,3.373 -2.793,-7.763 -9.713,-13.194 -2.696,-6.976 -2.265,-2.897 -4.59,3.887 -3.52,6.592 -7.607,7.408 -2.344,14.971 -8.736,-3.204 -5.248,-5.058 -1.035,-6.68 -3.233,-3.082 -9.185,-5.566 -9.308,2.095 -19.041,-1.402 -6.382,0.537 -7.675,0.967 -1.027,-3.627 0.084,-4.219 4.907,-20.654 0.677,-7.168 -9.192,-4.492 -4.903,-4.297 -2.369,-6.073 -0.234,-3.757 0.885,-3.399 5.902,-3.49 -0.459,-6.025 -2.671,-6.959 5.027,0.152 218.855,0 3.508,0.52 -0.601,9.627 1.966,5.257 8.76,5.528 2.731,-0.268 0.804,-1.412 3.75,0.596 25.797,10.947 6.621,-2.455 7.073,2.963 5.291,-1.381 0.168,-4.518 -3.202,-5.175 -0.107,-1.303 3.628,-1.24 4.116,0.605 2.945,2.006 1.172,3.111 -1.593,3.301 -2.631,1.533 -1.544,3.887 -5.654,3.09 -1.68,2.017 0.475,5.786 -3.261,4.97 1.435,6.075 2.226,4.888 -4.088,-0.595 -1.679,1.464 0.289,3.536 2.783,5.209 8.202,6.64 -6.274,0.904 -9.603,4.405 -22.498,4.902 -6.582,5.527 -3.138,0.873 -8.261,6.481 -2.144,5.687 -0.668,6.104 0.364,3.541 -1.644,1.488 -4.537,-0.277 -3.819,-2.227 -7.276,-0.527 -14.211,0.645 -14.307,-4.372 -12.256,-2.089 -3.263,-0.17 -8.945,4.144"
             inkscape:connector-curvature="0" />
          <path
             id="path4504"
             style="fill:none;stroke:#858a9d;stroke-width:0.25;stroke-linecap:butt;stroke-linejoin:miter;stroke-miterlimit:4;stroke-opacity:1;stroke-dasharray:none"
             d="m 602.418,83.629 0,-23.01 -172.168,0 -5.406,-0.103 -1.42,16.265 5.15,-4.931 11.045,-0.713 2.008,3.965 3.666,-4.03 12.906,-0.625 6.596,11.162 2.09,-0.326 7.685,-14.801 3.19,0.157 0.594,3.144 2.101,-0.316 1.045,-2.129 3.281,-0.42 3.276,-4.522 2.646,-0.166 3.985,2.573 -0.229,9.012 2.973,3.761 -2.256,3.877 8.387,6.422 6.554,-0.02 3.59,5.606 0.735,8.588 -4.545,4.941 -0.096,2.813 2.582,4.166 15.039,4.047 2.436,2.105 0.558,3.34 5.307,-0.27 2.525,-1.24 0.576,0.904 -1.338,4.932 0.176,3.559 2.973,2.486 2.832,-0.338 6.225,-5.17 2.642,1.381 0.586,-1.514 8.351,-4.482 7.186,-11.508 10.172,-5.816 8.224,-11.533 8.514,-3.071 6.922,-4.885 0.129,-3.267 z"
             inkscape:connector-curvature="0" />
          <path
             id="path4506"
             style="fill:none;stroke:#858a9d;stroke-width:0.25;stroke-linecap:butt;stroke-linejoin:miter;stroke-miterlimit:4;stroke-opacity:1;stroke-dasharray:none"
             d="m 602.477,202.042 -15.538,12.966 -8.983,5.301 -0.5,0.295 -0.536,-14.405 -3.63,-5.668 -18.925,0.44 -3.291,-5.469 4.541,-6.393 -6.829,-12.982 -0.705,-6.709 0.519,-8.252 -8.125,-1.67 -7.95,-7.662 5.366,-0.459 5.24,-3.07 3.51,-10.088 6.279,-10.026 8.35,-4.482 7.186,-11.508 10.173,-5.816 8.223,-11.533 8.516,-3.071 6.922,-4.885 0.187,115.146 z"
             inkscape:connector-curvature="0" />
          <path
             id="path4508"
             style="fill:none;stroke:#858a9d;stroke-width:0.25;stroke-linecap:butt;stroke-linejoin:miter;stroke-miterlimit:4;stroke-opacity:1;stroke-dasharray:none"
             d="m 602.418,260.816 0,-53.021 0.039,-4.01 -0.061,-1.773 -15.609,12.996 -9.453,5.596 -4.75,10.107 -3.728,15.699 4.435,8.061 4.981,6.718 4.908,-0.546 3.846,-3.129 10.816,0.746 4.554,3.324 0.022,-0.768 z"
             inkscape:connector-curvature="0" />
          <path
             id="path4510"
             style="fill:none;stroke:#858a9d;stroke-width:0.25;stroke-linecap:butt;stroke-linejoin:miter;stroke-miterlimit:4;stroke-opacity:1;stroke-dasharray:none"
             d="m 602.418,346.961 0,-83.723 -0.022,-1.654 -4.554,-3.324 -10.816,-0.746 -3.846,3.129 -4.908,0.546 -4.981,-6.718 -4.435,-8.061 0.408,9.903 -5.25,7.533 -25.414,-0.854 -9.375,9.512 -5.856,3.32 -23.877,2.782 -4.642,-6.62 -2.647,-6.201 -7.207,-5.498 -6.25,-2.187 -8.224,-0.329 -8.082,1.563 -4.891,4.322 -8.695,4.473 -2.975,4.574 -16.699,15.738 -6.034,9.389 -18.322,17.588 -5.853,9.99 1.283,12.496 -0.816,8.559 -7.875,4.59 -5.098,7.715 0.664,6.142 1.152,2.897 9.702,-11.026 1.724,0.199 4.264,8.795 11.211,3.76 12.367,2.571 12.037,4.724 5.342,7.426 26.678,7.33 3.56,14.947 6.451,-2.192 3.838,-8.542 4.502,-6.543 4.502,-0.317 4.277,-3.121 10.645,9.981 6.709,-4.184 3.263,-6.773 4.979,0.058 14.651,-3.646 5.72,-8.561 7.783,-1.709 0.776,-1.162 -0.102,-2.045 -3.707,-7.32 12.783,-13.168 4.829,-2.275 8.146,5.088 -1.861,4.193 1.015,4.078 16.393,-6.822 11.617,-1.814 0.043,-2.776 z"
             inkscape:connector-curvature="0" />
          <path
             id="path4512"
             style="fill:none;stroke:#858a9d;stroke-width:0.25;stroke-linecap:butt;stroke-linejoin:miter;stroke-miterlimit:4;stroke-opacity:1;stroke-dasharray:none"
             d="m 602.418,612.796 0,-261.252 -0.101,-1.777 -11.442,1.784 -16.402,6.822 -1.006,-4.078 1.861,-4.193 -8.14,-5.098 -4.834,2.285 -12.784,13.168 3.711,7.32 0.098,2.045 -0.785,1.162 -7.764,1.7 -5.748,8.57 -14.629,3.637 -4.99,-0.059 -3.242,6.773 -6.719,4.174 -10.648,-9.961 -4.274,3.121 2.842,5.239 3.34,12.16 1.783,13.579 -0.621,3.042 -9.58,13.252 -0.43,16.189 0.857,6.691 -0.339,10.923 -1.592,6.513 0.074,15.967 -0.826,5.513 -8.838,7.827 0.049,4.683 3.348,8.009 4.578,7.536 1.39,7.794 0.846,10.816 -4.238,11.243 -0.994,5.725 9.922,-5.666 2.287,3.588 0.386,5.039 -8.31,3.261 5.707,3.509 6.353,1.779 0.606,-2.306 7.832,7.138 8.666,3.916 11.543,1.492 20.537,4.961 21.43,16.363 8.838,2.602 14.615,6.89 5.706,1.01 0.071,-2.42 z"
             inkscape:connector-curvature="0" />
          <path
             id="path4514"
             style="fill:none;stroke:#858a9d;stroke-width:0.25;stroke-linecap:butt;stroke-linejoin:miter;stroke-miterlimit:4;stroke-opacity:1;stroke-dasharray:none"
             d="m 445.25,707.286 108.334,0 3.145,-0.004 -2.666,-8.511 -6.905,0.398 -7.06,2.495 -6.709,-1.243 -5.278,2.408 -8.638,0.984 -6.454,-3.47 -3.091,-5.964 -5.625,2.314 -4.205,-6.63 -3.637,-8.16 0.732,-13.045 -3.238,-8.2 -3.203,-2.376 -6.016,3.522 -10.337,0.524 -11.44,-3.101 -6.791,2.903 -7.783,0.379 1.035,2.922 1.898,0.566 1.432,6.829 2.129,3.181 -1.621,5.994 -4.039,7.375 -5.95,17.931 1.981,-0.021 z"
             inkscape:connector-curvature="0" />
          <path
             id="path4516"
             style="fill:none;stroke:#858a9d;stroke-width:0.25;stroke-linecap:butt;stroke-linejoin:miter;stroke-miterlimit:4;stroke-opacity:1;stroke-dasharray:none"
             d="m 9.082,526.598 0,62.969 -0.059,2.744 14.268,-0.94 8.209,-2.545 4.506,-3.319 5.058,-5.786 3.551,-9.463 -0.555,-10.935 -3.322,-9.453 -7.06,-12.803 -6.641,-4.921 -5.184,-1.192 -2.937,1.152 -0.395,-6.154 -2.109,-3.529 -5.576,-0.306 -1.802,1.991 0.048,2.49 z"
             inkscape:connector-curvature="0" />
          <path
             id="path4518"
             style="fill:none;stroke:#858a9d;stroke-width:0.25;stroke-linecap:butt;stroke-linejoin:miter;stroke-miterlimit:4;stroke-opacity:1;stroke-dasharray:none"
             d="m 9.082,492.849 0,-6.096 0.029,-3.918 2.676,1.061 3.541,6.689 -1.016,3.169 -5.256,1.243 0.026,-2.148 z"
             inkscape:connector-curvature="0" />
          <path
             id="path4520"
             style="fill:none;stroke:#858a9d;stroke-width:0.25;stroke-linecap:butt;stroke-linejoin:miter;stroke-miterlimit:4;stroke-opacity:1;stroke-dasharray:none"
             d="m 602.418,60.619 -593.336,0 0,646.667 593.336,0 0,-646.667 z"
             inkscape:connector-curvature="0" />
        </g>
      </g>
    </g>
  </g>
  <g
     inkscape:groupmode="layer"
     id="layer5"
     inkscape:label="mask"
     sodipodi:insensitive="true">
    <rect
       style="color:#000000;fill:#e2e0c6;fill-opacity:1;fill-rule:nonzero;stroke:none;stroke-width:6;marker:none;visibility:visible;display:inline;overflow:visible;enable-background:accumulate"
       id="rect5121-3"
       width="115.56351"
       height="672.7616"
       x="744.10156"
       y="-8.6194601" />
    <rect
       style="color:#000000;fill:#e2e0c6;fill-opacity:1;fill-rule:nonzero;stroke:none;stroke-width:6;marker:none;visibility:visible;display:inline;overflow:visible;enable-background:accumulate"
       id="rect5121-3-1"
       width="115.56351"
       height="672.7616"
       x="40.101562"
       y="-8.6194601" />
  </g>
</svg>
