<?xml version="1.0" encoding="UTF-8" standalone="no"?>
<!-- Created with Inkscape (http://www.inkscape.org/) -->

<svg
   xmlns:dc="http://purl.org/dc/elements/1.1/"
   xmlns:cc="http://creativecommons.org/ns#"
   xmlns:rdf="http://www.w3.org/1999/02/22-rdf-syntax-ns#"
   xmlns:svg="http://www.w3.org/2000/svg"
   xmlns="http://www.w3.org/2000/svg"
   xmlns:sodipodi="http://sodipodi.sourceforge.net/DTD/sodipodi-0.dtd"
   xmlns:inkscape="http://www.inkscape.org/namespaces/inkscape"
   width="900"
   height="650"
   id="svg2"
   version="1.1"
   inkscape:version="0.48.4 r9939"
   sodipodi:docname="story-map_thumb.svg"
   inkscape:export-filename="C:\wamp\www\ryan-m-cooper.github.io\mapbox-internship-application\img\portfolio\story-map_thumb.png"
   inkscape:export-xdpi="90"
   inkscape:export-ydpi="90">
  <defs
     id="defs4" />
  <sodipodi:namedview
     id="base"
     pagecolor="#ffffff"
     bordercolor="#666666"
     borderopacity="1.0"
     inkscape:pageopacity="0.0"
     inkscape:pageshadow="2"
     inkscape:zoom="0.7"
     inkscape:cx="312.57261"
     inkscape:cy="314.91413"
     inkscape:document-units="px"
     inkscape:current-layer="layer11"
     showgrid="false"
     showguides="false"
     inkscape:guide-bbox="true"
     inkscape:window-width="1366"
     inkscape:window-height="663"
     inkscape:window-x="-8"
     inkscape:window-y="1592"
     inkscape:window-maximized="1">
    <sodipodi:guide
       orientation="1,0"
       position="40,325"
       id="guide3764" />
    <sodipodi:guide
       orientation="0,1"
       position="450,610"
       id="guide3766" />
    <sodipodi:guide
       orientation="1,0"
       position="860,325"
       id="guide3768" />
    <sodipodi:guide
       orientation="0,1"
       position="450,40"
       id="guide3770" />
    <sodipodi:guide
       orientation="0,1"
       position="450,320"
       id="guide7767" />
    <sodipodi:guide
       orientation="1,0"
       position="450,320"
       id="guide7769" />
    <sodipodi:guide
       orientation="1,0"
       position="430,330"
       id="guide7771" />
    <sodipodi:guide
       orientation="1,0"
       position="470,330"
       id="guide7773" />
    <sodipodi:guide
       orientation="1,0"
       position="200,326"
       id="guide7775" />
    <sodipodi:guide
       orientation="1,0"
       position="700,320"
       id="guide7777" />
    <sodipodi:guide
       orientation="1,0"
       position="220,320"
       id="guide7781" />
    <sodipodi:guide
       orientation="1,0"
       position="680,320"
       id="guide7783" />
    <sodipodi:guide
       orientation="0,1"
       position="450,380"
       id="guide7785" />
    <sodipodi:guide
       orientation="1,0"
       position="380,380"
       id="guide7787" />
    <sodipodi:guide
       orientation="1,0"
       position="520,380"
       id="guide7789" />
    <sodipodi:guide
       orientation="1,0"
       position="435,250"
       id="guide7812" />
  </sodipodi:namedview>
  <metadata
     id="metadata7">
    <rdf:RDF>
      <cc:Work
         rdf:about="">
        <dc:format>image/svg+xml</dc:format>
        <dc:type
           rdf:resource="http://purl.org/dc/dcmitype/StillImage" />
        <dc:title></dc:title>
      </cc:Work>
    </rdf:RDF>
  </metadata>
  <g
     inkscape:label="bg"
     inkscape:groupmode="layer"
     id="layer1"
     transform="translate(0,-402.36217)"
     sodipodi:insensitive="true">
    <rect
       style="color:#000000;fill:#8e44ad;fill-opacity:1;fill-rule:nonzero;stroke:none;stroke-width:11.27552605;marker:none;visibility:visible;display:inline;overflow:visible;enable-background:accumulate"
       id="rect2985"
       width="900"
       height="650"
       x="0"
       y="402.36218" />
  </g>
  <g
     inkscape:groupmode="layer"
     id="layer11"
     inkscape:label="MARKER">
    <g
       id="g7849"
       transform="matrix(15.168061,0,0,15.168061,267.14951,-15460.279)">
      <path
         id="path7851"
         transform="translate(0,1028.4)"
         d="M 12,0 C 7.5817,0 4,3.5817 4,8 c 0,1.421 0.3816,2.75 1.0312,3.906 0.1079,0.192 0.221,0.381 0.3438,0.563 L 12,24 18.625,12.469 c 0.102,-0.151 0.19,-0.311 0.281,-0.469 l 0.063,-0.094 C 19.618,10.75 20,9.421 20,8 20,3.5817 16.418,0 12,0 z m 0,4 c 2.209,0 4,1.7909 4,4 0,2.209 -1.791,4 -4,4 C 9.7909,12 8,10.209 8,8 8,5.7909 9.7909,4 12,4 z"
         inkscape:connector-curvature="0"
         style="fill:#e74c3c" />
      <path
         id="path7853"
         transform="translate(0,1028.4)"
         d="M 12,3 C 9.2386,3 7,5.2386 7,8 c 0,2.761 2.2386,5 5,5 2.761,0 5,-2.239 5,-5 0,-2.7614 -2.239,-5 -5,-5 z m 0,2 c 1.657,0 3,1.3431 3,3 0,1.6569 -1.343,3 -3,3 C 10.343,11 9,9.6569 9,8 9,6.3431 10.343,5 12,5 z"
         inkscape:connector-curvature="0"
         style="fill:#c0392b" />
    </g>
  </g>
  <g
     inkscape:groupmode="layer"
     id="layer2"
     inkscape:label="book">
    <path
       style="fill:none;stroke:#2c3e50;stroke-width:15.3816967;stroke-linecap:round;stroke-linejoin:round;stroke-miterlimit:4;stroke-opacity:1;stroke-dasharray:none"
       d="M 129.69085,514.30915 424.5067,501.49107 c 0,0 0,12.81808 25.63616,12.81808 25.63616,0 25.63616,-12.81808 25.63616,-12.81808 l 294.81585,12.81808"
       id="path7779"
       inkscape:connector-curvature="0" />
  </g>
  <g
     inkscape:groupmode="layer"
     id="layer10"
     inkscape:label="page">
    <path
       style="fill:#ffffff;fill-opacity:1;stroke:none"
       d="m 129.69085,506.6183 c 0,0 156.38058,-25.26993 233.28906,-69.21763 55.64606,-31.79775 104.3758,-1.83115 89.72656,76.90848 -25.63616,0 -28.19977,-20.50893 -28.19977,-20.50893 z"
       id="path7792"
       inkscape:connector-curvature="0"
       sodipodi:nodetypes="csccc" />
    <path
       style="fill:#ffffff;fill-opacity:1;stroke:none"
       d="m 771.93419,506.6183 c 0,0 -156.38058,-25.26993 -233.28906,-69.21763 -55.64606,-31.79775 -104.3758,-1.83115 -89.72657,76.90848 25.63616,0 28.19978,-20.50893 28.19978,-20.50893 z"
       id="path7792-9"
       inkscape:connector-curvature="0"
       sodipodi:nodetypes="csccc" />
  </g>
</svg>
