<?xml version="1.0" encoding="UTF-8" standalone="no"?>
<!-- Created with Inkscape (http://www.inkscape.org/) -->

<svg
   xmlns:dc="http://purl.org/dc/elements/1.1/"
   xmlns:cc="http://creativecommons.org/ns#"
   xmlns:rdf="http://www.w3.org/1999/02/22-rdf-syntax-ns#"
   xmlns:svg="http://www.w3.org/2000/svg"
   xmlns="http://www.w3.org/2000/svg"
   xmlns:sodipodi="http://sodipodi.sourceforge.net/DTD/sodipodi-0.dtd"
   xmlns:inkscape="http://www.inkscape.org/namespaces/inkscape"
   width="900"
   height="650"
   id="svg2"
   version="1.1"
   inkscape:version="0.48.4 r9939"
   sodipodi:docname="tordoir-brabant_template.svg"
   inkscape:export-filename="C:\wamp\www\ryan-m-cooper.github.io\mapbox-internship-application\img\portfolio\tordoir-brabant.png"
   inkscape:export-xdpi="90"
   inkscape:export-ydpi="90">
  <defs
     id="defs4">
    <inkscape:perspective
       sodipodi:type="inkscape:persp3d"
       inkscape:vp_x="0 : 0.5 : 1"
       inkscape:vp_y="0 : 1000 : 0"
       inkscape:vp_z="1 : 0.5 : 1"
       inkscape:persp3d-origin="0.5 : 0.33333333 : 1"
       id="perspective3446-4" />
    <inkscape:perspective
       sodipodi:type="inkscape:persp3d"
       inkscape:vp_x="0 : 0.5 : 1"
       inkscape:vp_y="0 : 1000 : 0"
       inkscape:vp_z="1 : 0.5 : 1"
       inkscape:persp3d-origin="0.5 : 0.33333333 : 1"
       id="perspective3446-2" />
    <inkscape:perspective
       sodipodi:type="inkscape:persp3d"
       inkscape:vp_x="0 : 0.5 : 1"
       inkscape:vp_y="0 : 1000 : 0"
       inkscape:vp_z="1 : 0.5 : 1"
       inkscape:persp3d-origin="0.5 : 0.33333333 : 1"
       id="perspective3446" />
    <inkscape:perspective
       sodipodi:type="inkscape:persp3d"
       inkscape:vp_x="0 : 0.5 : 1"
       inkscape:vp_y="0 : 1000 : 0"
       inkscape:vp_z="1 : 0.5 : 1"
       inkscape:persp3d-origin="0.5 : 0.33333333 : 1"
       id="perspective3406-9" />
    <inkscape:perspective
       sodipodi:type="inkscape:persp3d"
       inkscape:vp_x="0 : 0.5 : 1"
       inkscape:vp_y="0 : 1000 : 0"
       inkscape:vp_z="1 : 0.5 : 1"
       inkscape:persp3d-origin="0.5 : 0.33333333 : 1"
       id="perspective3406-0" />
    <inkscape:perspective
       sodipodi:type="inkscape:persp3d"
       inkscape:vp_x="0 : 0.5 : 1"
       inkscape:vp_y="0 : 1000 : 0"
       inkscape:vp_z="1 : 0.5 : 1"
       inkscape:persp3d-origin="0.5 : 0.33333333 : 1"
       id="perspective3406" />
    <inkscape:perspective
       sodipodi:type="inkscape:persp3d"
       inkscape:vp_x="0 : 0.5 : 1"
       inkscape:vp_y="0 : 1000 : 0"
       inkscape:vp_z="1 : 0.5 : 1"
       inkscape:persp3d-origin="0.5 : 0.33333333 : 1"
       id="perspective3344-3" />
    <inkscape:perspective
       sodipodi:type="inkscape:persp3d"
       inkscape:vp_x="0 : 0.5 : 1"
       inkscape:vp_y="0 : 1000 : 0"
       inkscape:vp_z="1 : 0.5 : 1"
       inkscape:persp3d-origin="0.5 : 0.33333333 : 1"
       id="perspective3344-7" />
    <inkscape:perspective
       sodipodi:type="inkscape:persp3d"
       inkscape:vp_x="0 : 0.5 : 1"
       inkscape:vp_y="0 : 1000 : 0"
       inkscape:vp_z="1 : 0.5 : 1"
       inkscape:persp3d-origin="0.5 : 0.33333333 : 1"
       id="perspective3344" />
    <inkscape:perspective
       sodipodi:type="inkscape:persp3d"
       inkscape:vp_x="0 : 0.5 : 1"
       inkscape:vp_y="0 : 1000 : 0"
       inkscape:vp_z="1 : 0.5 : 1"
       inkscape:persp3d-origin="0.5 : 0.33333333 : 1"
       id="perspective4334" />
    <inkscape:perspective
       sodipodi:type="inkscape:persp3d"
       inkscape:vp_x="0 : 0.5 : 1"
       inkscape:vp_y="0 : 1000 : 0"
       inkscape:vp_z="1 : 0.5 : 1"
       inkscape:persp3d-origin="0.5 : 0.33333333 : 1"
       id="perspective4309" />
    <inkscape:perspective
       sodipodi:type="inkscape:persp3d"
       inkscape:vp_x="0 : 0.5 : 1"
       inkscape:vp_y="0 : 1000 : 0"
       inkscape:vp_z="1 : 0.5 : 1"
       inkscape:persp3d-origin="0.5 : 0.33333333 : 1"
       id="perspective4274-2" />
    <inkscape:perspective
       sodipodi:type="inkscape:persp3d"
       inkscape:vp_x="0 : 0.5 : 1"
       inkscape:vp_y="0 : 1000 : 0"
       inkscape:vp_z="1 : 0.5 : 1"
       inkscape:persp3d-origin="0.5 : 0.33333333 : 1"
       id="perspective4274" />
    <inkscape:perspective
       sodipodi:type="inkscape:persp3d"
       inkscape:vp_x="0 : 0.5 : 1"
       inkscape:vp_y="0 : 1000 : 0"
       inkscape:vp_z="1 : 0.5 : 1"
       inkscape:persp3d-origin="0.5 : 0.33333333 : 1"
       id="perspective4243-6" />
    <inkscape:perspective
       sodipodi:type="inkscape:persp3d"
       inkscape:vp_x="0 : 0.5 : 1"
       inkscape:vp_y="0 : 1000 : 0"
       inkscape:vp_z="1 : 0.5 : 1"
       inkscape:persp3d-origin="0.5 : 0.33333333 : 1"
       id="perspective4243" />
    <inkscape:perspective
       sodipodi:type="inkscape:persp3d"
       inkscape:vp_x="0 : 0.5 : 1"
       inkscape:vp_y="0 : 1000 : 0"
       inkscape:vp_z="1 : 0.5 : 1"
       inkscape:persp3d-origin="0.5 : 0.33333333 : 1"
       id="perspective4221" />
    <inkscape:perspective
       sodipodi:type="inkscape:persp3d"
       inkscape:vp_x="0 : 0.5 : 1"
       inkscape:vp_y="0 : 1000 : 0"
       inkscape:vp_z="1 : 0.5 : 1"
       inkscape:persp3d-origin="0.5 : 0.33333333 : 1"
       id="perspective4199" />
    <inkscape:perspective
       sodipodi:type="inkscape:persp3d"
       inkscape:vp_x="0 : 0.5 : 1"
       inkscape:vp_y="0 : 1000 : 0"
       inkscape:vp_z="1 : 0.5 : 1"
       inkscape:persp3d-origin="0.5 : 0.33333333 : 1"
       id="perspective4069-16" />
    <inkscape:perspective
       sodipodi:type="inkscape:persp3d"
       inkscape:vp_x="0 : 0.5 : 1"
       inkscape:vp_y="0 : 1000 : 0"
       inkscape:vp_z="1 : 0.5 : 1"
       inkscape:persp3d-origin="0.5 : 0.33333333 : 1"
       id="perspective4069-72" />
    <inkscape:perspective
       sodipodi:type="inkscape:persp3d"
       inkscape:vp_x="0 : 0.5 : 1"
       inkscape:vp_y="0 : 1000 : 0"
       inkscape:vp_z="1 : 0.5 : 1"
       inkscape:persp3d-origin="0.5 : 0.33333333 : 1"
       id="perspective4069-0" />
    <inkscape:perspective
       sodipodi:type="inkscape:persp3d"
       inkscape:vp_x="0 : 0.5 : 1"
       inkscape:vp_y="0 : 1000 : 0"
       inkscape:vp_z="1 : 0.5 : 1"
       inkscape:persp3d-origin="0.5 : 0.33333333 : 1"
       id="perspective4069-8" />
    <inkscape:perspective
       sodipodi:type="inkscape:persp3d"
       inkscape:vp_x="0 : 0.5 : 1"
       inkscape:vp_y="0 : 1000 : 0"
       inkscape:vp_z="1 : 0.5 : 1"
       inkscape:persp3d-origin="0.5 : 0.33333333 : 1"
       id="perspective4069-70" />
    <inkscape:perspective
       sodipodi:type="inkscape:persp3d"
       inkscape:vp_x="0 : 0.5 : 1"
       inkscape:vp_y="0 : 1000 : 0"
       inkscape:vp_z="1 : 0.5 : 1"
       inkscape:persp3d-origin="0.5 : 0.33333333 : 1"
       id="perspective4069-6" />
    <inkscape:perspective
       sodipodi:type="inkscape:persp3d"
       inkscape:vp_x="0 : 0.5 : 1"
       inkscape:vp_y="0 : 1000 : 0"
       inkscape:vp_z="1 : 0.5 : 1"
       inkscape:persp3d-origin="0.5 : 0.33333333 : 1"
       id="perspective4069-75" />
    <inkscape:perspective
       sodipodi:type="inkscape:persp3d"
       inkscape:vp_x="0 : 0.5 : 1"
       inkscape:vp_y="0 : 1000 : 0"
       inkscape:vp_z="1 : 0.5 : 1"
       inkscape:persp3d-origin="0.5 : 0.33333333 : 1"
       id="perspective4069-3" />
    <inkscape:perspective
       sodipodi:type="inkscape:persp3d"
       inkscape:vp_x="0 : 0.5 : 1"
       inkscape:vp_y="0 : 1000 : 0"
       inkscape:vp_z="1 : 0.5 : 1"
       inkscape:persp3d-origin="0.5 : 0.33333333 : 1"
       id="perspective4069-5" />
    <inkscape:perspective
       sodipodi:type="inkscape:persp3d"
       inkscape:vp_x="0 : 0.5 : 1"
       inkscape:vp_y="0 : 1000 : 0"
       inkscape:vp_z="1 : 0.5 : 1"
       inkscape:persp3d-origin="0.5 : 0.33333333 : 1"
       id="perspective4069-2" />
    <inkscape:perspective
       sodipodi:type="inkscape:persp3d"
       inkscape:vp_x="0 : 0.5 : 1"
       inkscape:vp_y="0 : 1000 : 0"
       inkscape:vp_z="1 : 0.5 : 1"
       inkscape:persp3d-origin="0.5 : 0.33333333 : 1"
       id="perspective4069-7" />
    <inkscape:perspective
       sodipodi:type="inkscape:persp3d"
       inkscape:vp_x="0 : 0.5 : 1"
       inkscape:vp_y="0 : 1000 : 0"
       inkscape:vp_z="1 : 0.5 : 1"
       inkscape:persp3d-origin="0.5 : 0.33333333 : 1"
       id="perspective4069-1" />
    <inkscape:perspective
       sodipodi:type="inkscape:persp3d"
       inkscape:vp_x="0 : 0.5 : 1"
       inkscape:vp_y="0 : 1000 : 0"
       inkscape:vp_z="1 : 0.5 : 1"
       inkscape:persp3d-origin="0.5 : 0.33333333 : 1"
       id="perspective4069" />
    <inkscape:perspective
       id="perspective481"
       inkscape:persp3d-origin="400.5 : 308 : 1"
       inkscape:vp_z="801 : 462 : 1"
       inkscape:vp_y="0 : 1000 : 0"
       inkscape:vp_x="0 : 462 : 1"
       sodipodi:type="inkscape:persp3d" />
  </defs>
  <sodipodi:namedview
     id="base"
     pagecolor="#ffffff"
     bordercolor="#666666"
     borderopacity="1.0"
     inkscape:pageopacity="0.0"
     inkscape:pageshadow="2"
     inkscape:zoom="0.49497475"
     inkscape:cx="122.68415"
     inkscape:cy="294.71108"
     inkscape:document-units="px"
     inkscape:current-layer="layer2"
     showgrid="false"
     showguides="true"
     inkscape:guide-bbox="true"
     inkscape:window-width="1366"
     inkscape:window-height="663"
     inkscape:window-x="-8"
     inkscape:window-y="1592"
     inkscape:window-maximized="1">
    <sodipodi:guide
       orientation="1,0"
       position="40,325"
       id="guide3764" />
    <sodipodi:guide
       orientation="0,1"
       position="450,610"
       id="guide3766" />
    <sodipodi:guide
       orientation="1,0"
       position="860,325"
       id="guide3768" />
    <sodipodi:guide
       orientation="0,1"
       position="450,40"
       id="guide3770" />
  </sodipodi:namedview>
  <metadata
     id="metadata7">
    <rdf:RDF>
      <cc:Work
         rdf:about="">
        <dc:format>image/svg+xml</dc:format>
        <dc:type
           rdf:resource="http://purl.org/dc/dcmitype/StillImage" />
        <dc:title></dc:title>
      </cc:Work>
    </rdf:RDF>
  </metadata>
  <g
     inkscape:label="bg"
     inkscape:groupmode="layer"
     id="layer1"
     transform="translate(0,-402.36217)"
     sodipodi:insensitive="true">
    <rect
       style="color:#000000;fill:#2c3e50;fill-opacity:1;fill-rule:nonzero;stroke:none;stroke-width:11.27552605;marker:none;visibility:visible;display:inline;overflow:visible;enable-background:accumulate"
       id="rect2985"
       width="900"
       height="650"
       x="0"
       y="402.36218" />
  </g>
  <g
     inkscape:groupmode="layer"
     id="layer2"
     inkscape:label="nederland">
    <g
       style="font-style:normal;font-weight:normal;fill:#d35400;fill-opacity:1;stroke:none;font-family:Dialog"
       id="g3990"
       transform="matrix(0.93870583,0,0,0.93870583,163.72422,36.189171)">
      <path
         style="fill:#d35400;fill-opacity:1;fill-rule:evenodd;stroke:none"
         d="m 492.95834,23.1875 c -20.13001,7.999734 -55.57864,14.083898 -68.07029,15.722816 1.69872,-2.021228 -9.63784,5.172701 2.07029,5.277184 -10.232,2.882191 10.03149,6.904096 -6,8 -0.64142,-32.395748 -47.21366,-4.901217 -66.95379,4.263504 -22.73738,9.229995 -40.03886,36.809091 -35.14705,57.497706 -7.17128,-8.4381 12.35813,31.47552 -3.95211,35.89643 6.86028,19.5606 44.5305,2.72853 41.76213,11.8191 -23.03102,15.91053 -11.65395,57.73773 18.17596,47.48401 2.10064,6.61527 9.73981,22.8478 1.71495,30.70719 15.9755,-26.60919 -33.02015,-37.44224 -45.69321,-17.73532 -6.15593,19.04264 -57.19246,28.59983 -41.83121,47.70394 21.92729,5.34946 47.94814,30.75632 53.95746,-6.28081 6.95851,-10.16947 29.17445,-11.40164 31.3366,-16.72007 -21.41135,10.6261 -30.97843,33.95347 -51.83413,41.06753 -18.37105,-12.58329 -39.10608,-14.88596 -56.71313,-23.56962 -8.11894,-6.29427 20.79107,-12.29578 8.33252,-24.02757 10.24049,-8.66848 -18.87231,-48.00441 11.43146,-33.10602 18.08745,-1.33679 29.67791,-38.11003 2.41356,-26 -10.08834,-10.59103 -3.10602,-51.24965 -28.54262,-31.41794 -16.76887,5.60464 -24.16179,-33.61064 -29.06823,-5.46056 -7.08885,29.00589 -13.58352,58.0336 -15.80653,87.8682 -3.82531,14.1441 -14.80287,42.15171 -28.87455,64.85976 -13.03193,22.74498 -35.47843,39.28713 -51.82943,53.77881 -4.30717,10.51724 11.45065,1.70386 4.75753,15.75804 14.42964,16.18413 34.11144,27.2798 56.17947,35.92387 10.89544,4.78397 36.61091,-6.43384 12.33852,5.18178 -21.85134,-6.37249 -36.67971,21.35921 -60.23633,7.84719 -4.71073,8.14953 21.03903,10.74876 -3.16437,8.60412 -28.56926,2.43141 5.45451,19.72978 13.69355,23.47262 15.01261,23.65003 -22.77034,12.46006 -23.36453,-4.01872 -14.29692,-9.8849 -35.214476,-3.37426 -44.51929,-3.58232 -2.828262,-28.59368 -50.512382,-3.36013 -23.304168,10.50901 3.812958,17.13392 36.175838,-1.10039 23.253233,5.47544 7.831048,19.85269 30.066505,15.60343 37.949875,0.60369 19.10549,12.85592 41.71368,20.39924 60.51489,20.57283 -13.48657,-11.74219 7.4453,-34.09762 16.65631,-20.1123 2.22038,19.79743 25.00252,-1.72271 32.02467,-8.65843 10.93524,1.1528 9.98976,23.30379 -1.31973,17.21289 15.23177,7.8172 29.83424,1.43473 36.54274,-12.34471 14.16081,6.72136 -1.53902,38.81994 23.75898,35.68673 4.30514,31.48442 45.44482,-14.80289 45.74478,17.77907 14.02308,17.05209 48.04953,6.45714 35.62301,29.29973 -11.98835,13.3508 -4.66822,29.92023 -16.00777,40.1612 -16.28823,9.77133 -0.40848,25.93821 2.67028,32.50046 9.66807,-10.91729 32.67592,10.11152 41.39596,-3.48629 -12.78423,-11.16826 24.28914,-24.84294 -1.57946,-38.22146 2.90202,-12.64063 -29.38994,-2.16149 -16.97953,-22.97876 12.2598,12.03522 23.20855,-18.6696 36.8277,-22.84252 6.1848,-12.82578 -20.25547,7.75025 -11.79105,-14.46865 19.5337,-21.27726 28.75246,-54.5502 5.8968,-77.24813 -6.74449,-6.28976 1.16461,-18.51319 -13.21547,-19.79731 5.7379,-13.59886 -15.00972,-9.81107 -7.21891,-24.18279 -15.07996,-20.37593 41.52196,-3.13624 18.60585,-22.65376 12.73835,1.17955 26.46923,11.44308 39.3576,12.79257 -8.34442,-14.34646 18.03472,0.40824 23.86414,-12.70694 12.56626,-3.57179 33.77816,-2.15738 29.66106,-22.20809 -12.20091,-7.36849 -23.77864,-13.43555 -7.52191,-23.49993 12.00361,-2.95912 26.88129,-24.27596 37.62091,-30.26663 -6.30044,-15.77054 8.85998,-31.62568 -7.59397,-45.3182 -8.22332,3.57352 -45.73961,3.91276 -40.58105,-20.7041 14.82007,-0.0832 -8.80687,-28.36684 15.58105,-20.70947 16.81173,0.64686 39.50628,6.12695 31.92502,-20.37586 -5.14763,-24.31027 18.60421,-40.14617 17.39774,-63.6664 C 545.89693,97.305933 566.39066,70.177929 537.80256,66.220074 541.46747,49.275195 503.59832,60.086102 510.49775,34.237426 512.40153,23.591915 498.96991,27.340769 492.95834,23.1875 z m 25,29 c 0.43277,3.487032 2.1994,-1.313787 0,0 z m 36,20 c 2.24641,-3.263745 -3.16185,-1.004438 0,0 z m -298.00001,399 c -3.80322,-1.98906 -1.11576,2.99162 0,0 z m -172.999996,-44 c 6.452868,15.82591 22.870746,10.70294 34.767556,4.99039 -4.1906,-14.37144 -25.030098,-4.84081 -34.767556,-4.99039 z m 57.999996,-53 c -3.48703,0.43277 1.3138,2.1994 0,0 z m 101,-240 c 1.3138,-2.1994 -3.48703,-0.43277 0,0 z m 22,128 c -1.31378,2.1994 3.48703,0.43277 0,0 z m 86.00001,2 c -2.12407,-2.31712 -2.12884,0.51742 0,0 z m -54.60417,-13 1.04578,-0.77487 -1.04578,0.77487 z m 20.60416,-145 c -5.47293,2.60844 -4.87077,7.38315 0,0 z m 7,-20 c 1.23805,-2.79922 -2.79922,1.238034 0,0 z m 103.00001,-37 c -0.54515,2.501367 2.67902,2.500267 0,0 z m -6,6 c 2.1994,-1.313787 0.43277,3.487032 0,0 z m -2,1 c 2.79922,-1.23803 -1.23805,2.799221 0,0 z m -98.00001,60 c 2.79923,-1.23803 -1.23803,2.79923 0,0 z m -41.39583,76.79167 -0.45309,0.31914 0.45309,-0.31914 z m -2.91667,2.04166 -0.20849,0.18396 0.20849,-0.18396 z m -0.20833,0.54167 -3.03685,1.57227 3.03685,-1.57227 z m 87.52084,15.625 c 0.3976,5.9488 7.84255,-1.59017 0,0 z m -82.00001,29 c -5.22175,8.75526 10.75915,-0.21322 0,0 z m -89,140 c 2.79923,-1.23803 -1.23803,2.79923 0,0 z"
         id="path17"
         inkscape:connector-curvature="0" />
      <path
         style="fill:#d35400;fill-opacity:1;fill-rule:evenodd;stroke:none"
         d="m 404.96708,27.18733 c -1.85123,7.405635 -2.74538,-4.142203 0,0 z"
         id="path65"
         inkscape:connector-curvature="0" />
      <path
         style="fill:#d35400;fill-opacity:1;fill-rule:evenodd;stroke:none"
         d="m 362.96708,26.18733 c 12.46222,-1.064205 46.32196,-2.74064 15.45229,3.044714 -11.69577,7.214462 -41.56835,2.513869 -24.62571,-4.061076 2.95382,0.993849 6.14023,0.581861 9.17342,1.016362 z"
         id="path71"
         inkscape:connector-curvature="0" />
      <path
         style="fill:#d35400;fill-opacity:1;fill-rule:evenodd;stroke:none"
         d="m 441.96708,15.18733 c -7.79399,4.912926 -37.54953,18.135322 -25.14121,1.821416 8.47761,0.565448 16.72111,-1.850961 25.14121,-1.821416 z"
         id="path99"
         inkscape:connector-curvature="0" />
      <path
         style="fill:#d35400;fill-opacity:1;fill-rule:evenodd;stroke:none"
         d="m 299.96708,72.18733 c 1.16968,-2.349003 2.99677,-0.38447 0,0 z"
         id="path105"
         inkscape:connector-curvature="0" />
      <path
         style="fill:#d35400;fill-opacity:1;fill-rule:evenodd;stroke:none"
         d="m 323.96708,38.18733 c -9.03675,1.858759 -48.6966,22.926485 -28.02966,1.477935 10.24733,0.258002 44.59835,-16.998566 41.09685,-7.014925 -6.6084,0.380693 -7.63847,3.736441 -13.06719,5.53699 z"
         id="path107"
         inkscape:connector-curvature="0" />
      <path
         style="fill:#d35400;fill-opacity:1;fill-rule:evenodd;stroke:none"
         d="m 288.96708,61.18733 c -5.49603,6.146818 -8.81932,-0.443876 0,0 z"
         id="path109"
         inkscape:connector-curvature="0" />
      <path
         style="fill:#d35400;fill-opacity:1;fill-rule:evenodd;stroke:none"
         d="m 275.96708,62.18733 c -5.23928,6.558137 -37.04936,29.031536 -20.26344,10.602945 2.83944,-4.031488 27.78712,-19.007237 20.26344,-10.602945 z"
         id="path111"
         inkscape:connector-curvature="0" />
      <path
         style="fill:#d35400;fill-opacity:1;fill-rule:evenodd;stroke:none"
         d="m 227.96708,131.18733 c -9.94867,8.2139 -2.12307,-6.72388 0.58105,-0.29052 l -0.58105,0.29052 z"
         id="path415"
         inkscape:connector-curvature="0" />
      <path
         style="fill:#d35400;fill-opacity:1;fill-rule:evenodd;stroke:none"
         d="m 249.96708,116.18733 c -14.53122,17.33398 -26.96862,11.13406 -14.7727,-11.56043 6.73279,-11.873438 19.09934,-27.491385 20.07619,-0.96263 -0.26206,4.68613 -2.94238,8.67166 -5.30349,12.52306 z"
         id="path417"
         inkscape:connector-curvature="0" />
      <path
         style="fill:#d35400;fill-opacity:1;fill-rule:evenodd;stroke:none"
         d="m 289.96708,126.18733 c -23.83156,20.12804 -13.42439,11.54335 0,0 z"
         id="path433"
         inkscape:connector-curvature="0" />
      <path
         style="fill:#d35400;fill-opacity:1;fill-rule:evenodd;stroke:none"
         d="m 256.96708,150.18733 c -9.29522,-4.51259 31.23999,-18.08415 9.65865,-2.48536 -3.08949,1.26084 -6.35971,2.03095 -9.65865,2.48536 z"
         id="path435"
         inkscape:connector-curvature="0" />
      <path
         style="fill:#d35400;fill-opacity:1;fill-rule:evenodd;stroke:none"
         d="m 133.95833,372.1875 c -4.19247,-0.18768 0.45936,2.78605 0,0 z m 0,1 c -16.64322,-2.72437 -27.45159,20.88945 -6.54621,8.4481 13.12694,3.76161 6.28558,26.75905 25.34035,24.01558 8.9782,18.03356 49.61266,-2.28022 19.85454,-3.44139 -10.24903,-13.64135 -28.22916,-17.53567 -38.64868,-29.02229 z m -19,14 c -8.29214,5.26338 4.20887,9.34658 0,0 z"
         id="path479"
         inkscape:connector-curvature="0" />
      <path
         style="fill:#d35400;fill-opacity:1;fill-rule:evenodd;stroke:none"
         d="m 126.96709,387.18733 c -5.2362,5.26076 -8.94541,-5.55682 0,0 z"
         id="path483"
         inkscape:connector-curvature="0" />
      <path
         style="fill:#d35400;fill-opacity:1;fill-rule:evenodd;stroke:none"
         d="m 172.96708,394.18733 c 17.60855,5.14083 -9.91953,5.52511 -4.1135,-1.01769 l 4.1135,1.01769 z"
         id="path547"
         inkscape:connector-curvature="0" />
      <path
         style="fill:#d35400;fill-opacity:1;fill-rule:evenodd;stroke:none"
         d="m 63.958334,466.1875 c -28.920515,-4.76798 -19.426936,47.79989 1.771298,31.69024 6.109544,-17.95327 39.227558,-1.84308 39.904448,11.91167 18.9655,-0.71647 47.14533,-8.33264 55.90204,-31.61041 -8.98925,-12.0728 -4.0321,14.12105 -14.12874,-1.10006 5.07511,15.10171 -23.20191,-25.4156 -23.44905,-0.89144 -20.55276,15.6592 -39.590665,-7.43475 -59.999996,-10 z m 90.999996,14 c -1.11003,-3.23856 -3.70224,2.3841 0,0 z m -1,-1 c 8.68718,1.44839 -8.83639,-7.33357 0,0 z m 2,-3 c 3.48703,0.43277 -1.31378,2.1994 0,0 z m 2,0 c 2.79923,-1.23803 -1.23803,2.79923 0,0 z m -7,7 c 3.17019,-0.7569 -0.7569,3.17019 0,0 z"
         id="path625"
         inkscape:connector-curvature="0" />
      <path
         style="fill:#d35400;fill-opacity:1;fill-rule:evenodd;stroke:none"
         d="m 289.96708,126.18733 c 8.37254,-10.19071 31.0656,-24.2654 8.39574,-7.68246 -3.16147,2.16417 -5.68057,5.03063 -8.39574,7.68246 z"
         id="path651"
         inkscape:connector-curvature="0" />
      <path
         style="fill:#d35400;fill-opacity:1;fill-rule:evenodd;stroke:none"
         d="m 89.967095,437.18733 c -4.00238,-5.89617 3.504409,1.40398 0,0 z"
         id="path659"
         inkscape:connector-curvature="0" />
      <path
         style="fill:#d35400;fill-opacity:1;fill-rule:evenodd;stroke:none"
         d="m 94.967095,414.18733 c -2.530109,11.95373 -8.84049,6.11064 -0.917164,0.40958 l 0.917164,-0.40958 z"
         id="path661"
         inkscape:connector-curvature="0" />
      <path
         style="fill:#d35400;fill-opacity:1;fill-rule:evenodd;stroke:none"
         d="m 304.96708,192.18733 c 15.45988,2.50676 29.03179,24.73007 18.51915,35.08491 11.9453,-13.51878 -6.98986,-34.2438 -18.51915,-35.08491 z"
         id="path861"
         inkscape:connector-curvature="0" />
      <path
         style="fill:#d35400;fill-opacity:1;fill-rule:evenodd;stroke:none"
         d="m 441.96708,15.18733 c 5.78564,-1.741931 -1.8495,5.10915 0,0 z"
         id="path869"
         inkscape:connector-curvature="0" />
      <path
         style="fill:#d35400;fill-opacity:1;fill-rule:evenodd;stroke:none"
         d="m 459.96708,6.1873306 c 3.25959,14.7995024 -13.48894,-4.4820072 0,0 z"
         id="path871"
         inkscape:connector-curvature="0" />
      <path
         style="fill:#d35400;fill-opacity:1;fill-rule:evenodd;stroke:none"
         d="m 469.96708,7.1873306 c 12.42678,-2.2490787 0.37136,4.2754334 0,0 z"
         id="path873"
         inkscape:connector-curvature="0" />
      <path
         style="fill:#d35400;fill-opacity:1;fill-rule:evenodd;stroke:none"
         d="m 120.96709,396.18733 c 0.85803,-3.67919 5.14318,3.00514 0,0 z"
         id="path907"
         inkscape:connector-curvature="0" />
      <path
         style="fill:#d35400;fill-opacity:1;fill-rule:evenodd;stroke:none"
         d="m 157.96708,418.18733 c -6.67452,-2.94757 -4.9054,-7.4278 -1.55026,-3.71421 l 1.61047,1.60441 -0.0602,2.1098 z"
         id="path909"
         inkscape:connector-curvature="0" />
      <path
         style="fill:#d35400;fill-opacity:1;fill-rule:evenodd;stroke:none"
         d="m 129.96709,392.18733 c 6.39986,0.98955 2.00341,12.86739 0,0 z"
         id="path911"
         inkscape:connector-curvature="0" />
      <path
         style="fill:#d35400;fill-opacity:1;fill-rule:evenodd;stroke:none"
         d="m 126.96709,394.18733 c -5.32797,3.31545 -1.32546,-1.14204 0,0 z"
         id="path913"
         inkscape:connector-curvature="0" />
      <path
         style="fill:#d35400;fill-opacity:1;fill-rule:evenodd;stroke:none"
         d="m 123.96709,418.18733 c -7.68579,-4.30737 -22.31243,-23.14463 -27.999995,-4 -18.281706,-20.09739 16.807925,-24.62194 26.341895,-17.41225 12.48033,1.99626 16.60403,18.08424 31.95393,13.54661 -9.44938,-2.42209 -19.81533,22.57387 -30.29583,7.86564 z"
         id="path915"
         inkscape:connector-curvature="0" />
      <path
         style="fill:#d35400;fill-opacity:1;fill-rule:evenodd;stroke:none"
         d="m 113.96709,438.18733 c -0.16094,-0.39651 -0.16094,-0.39651 0,0 z"
         id="path929"
         inkscape:connector-curvature="0" />
      <path
         style="fill:#d35400;fill-opacity:1;fill-rule:evenodd;stroke:none"
         d="m 186.96708,405.18733 c 0.35716,2.24843 -3.75096,1.10625 0,0 z"
         id="path949"
         inkscape:connector-curvature="0" />
    </g>
  </g>
  <g
     inkscape:groupmode="layer"
     id="layer3"
     inkscape:label="text">
    <text
       xml:space="preserve"
       style="font-size:28px;font-style:normal;font-variant:normal;font-weight:normal;font-stretch:normal;line-height:125%;letter-spacing:0px;word-spacing:0px;fill:#000000;fill-opacity:1;stroke:none;font-family:Segoe UI Emoji;-inkscape-font-specification:Segoe UI Emoji"
       x="155.56349"
       y="171.1877"
       id="text4263"
       sodipodi:linespacing="125%"><tspan
         sodipodi:role="line"
         id="tspan4265"
         x="155.56349"
         y="171.1877" /></text>
  </g>
</svg>
