<?xml version="1.0" encoding="UTF-8" standalone="no"?>
<!-- Created with Inkscape (http://www.inkscape.org/) -->

<svg
   xmlns:dc="http://purl.org/dc/elements/1.1/"
   xmlns:cc="http://creativecommons.org/ns#"
   xmlns:rdf="http://www.w3.org/1999/02/22-rdf-syntax-ns#"
   xmlns:svg="http://www.w3.org/2000/svg"
   xmlns="http://www.w3.org/2000/svg"
   xmlns:sodipodi="http://sodipodi.sourceforge.net/DTD/sodipodi-0.dtd"
   xmlns:inkscape="http://www.inkscape.org/namespaces/inkscape"
   width="800"
   height="600"
   id="svg2"
   version="1.1"
   inkscape:version="0.48.4 r9939"
   sodipodi:docname="maptime_thumb.png">
  <defs
     id="defs4" />
  <sodipodi:namedview
     id="base"
     pagecolor="#ffffff"
     bordercolor="#666666"
     borderopacity="1.0"
     inkscape:pageopacity="0.0"
     inkscape:pageshadow="2"
     inkscape:zoom="0.70910507"
     inkscape:cx="345.71429"
     inkscape:cy="294.0689"
     inkscape:document-units="px"
     inkscape:current-layer="layer1"
     showgrid="false"
     showguides="true"
     inkscape:guide-bbox="true"
     inkscape:window-width="1366"
     inkscape:window-height="705"
     inkscape:window-x="-8"
     inkscape:window-y="-8"
     inkscape:window-maximized="1">
    <sodipodi:guide
       orientation="1,0"
       position="400,157.53447"
       id="guide3199" />
    <sodipodi:guide
       orientation="0,1"
       position="206.00662,550"
       id="guide3201" />
    <sodipodi:guide
       orientation="0,1"
       position="-1.8643133,50"
       id="guide3203" />
    <sodipodi:guide
       orientation="1,0"
       position="50,652.936"
       id="guide3223" />
    <sodipodi:guide
       orientation="1,0"
       position="750,445.63212"
       id="guide3225" />
    <sodipodi:guide
       orientation="0,1"
       position="0,300"
       id="guide3227" />
  </sodipodi:namedview>
  <metadata
     id="metadata7">
    <rdf:RDF>
      <cc:Work
         rdf:about="">
        <dc:format>image/svg+xml</dc:format>
        <dc:type
           rdf:resource="http://purl.org/dc/dcmitype/StillImage" />
        <dc:title></dc:title>
      </cc:Work>
    </rdf:RDF>
  </metadata>
  <g
     inkscape:groupmode="layer"
     id="layer2"
     inkscape:label="Layer"
     transform="translate(0,200)"
     sodipodi:insensitive="true">
    <rect
       style="color:#000000;fill:#800080;fill-opacity:1;fill-rule:nonzero;stroke:none;stroke-width:1.25;marker:none;visibility:visible;display:inline;overflow:visible;enable-background:accumulate"
       id="rect3206"
       width="800"
       height="600"
       x="0"
       y="-200" />
  </g>
  <g
     inkscape:label="Layer 1"
     inkscape:groupmode="layer"
     id="layer1"
     transform="translate(0,-452.36218)"
     style="display:inline">
    <g
       transform="matrix(5.4302442,0,0,5.4302442,-774.54864,-730.60014)"
       style="font-size:64px;font-style:normal;font-variant:normal;font-weight:normal;font-stretch:normal;line-height:125%;letter-spacing:0px;word-spacing:0px;fill:#ffffff;fill-opacity:1;stroke:none;font-family:Open Sans;-inkscape-font-specification:Open Sans"
       id="flowRoot3208">
      <path
         d="m 167.78125,255.13253 c 4.49997,3e-5 7.99476,1.53649 10.48437,4.60937 2.48955,3.07295 3.73434,7.4219 3.73438,13.04688 -4e-5,5.62501 -1.25524,9.9948 -3.76563,13.10937 -2.51044,3.11459 -5.99481,4.67188 -10.45312,4.67188 -2.22919,0 -4.26564,-0.41146 -6.10938,-1.23438 -1.84376,-0.82291 -3.39063,-2.08854 -4.64062,-3.79687 l -0.375,0 -1.09375,4.40625 -3.71875,0 0,-48.625 5.1875,0 0,11.8125 c -1e-5,2.64586 -0.0833,5.02086 -0.25,7.125 l 0.25,0 c 2.41665,-3.41664 5.99998,-5.12497 10.75,-5.125 z m -0.75,4.34375 c -3.54168,3e-5 -6.09376,1.01565 -7.65625,3.04687 -1.56251,2.03128 -2.34376,5.45315 -2.34375,10.26563 -1e-5,4.81251 0.80207,8.25521 2.40625,10.32812 1.60415,2.07292 4.17707,3.10938 7.71875,3.10938 3.18748,0 5.56247,-1.16146 7.125,-3.48438 1.56247,-2.3229 2.34372,-5.66144 2.34375,-10.01562 -3e-5,-4.45831 -0.78128,-7.78123 -2.34375,-9.96875 -1.56253,-2.18747 -3.97919,-3.28122 -7.25,-3.28125 z"
         id="path3217"
         inkscape:connector-curvature="0" />
      <path
         d="m 234.75,289.94503 0,-22.28125 c -5e-5,-2.72914 -0.58338,-4.77602 -1.75,-6.14063 -1.16671,-1.36455 -2.97921,-2.04684 -5.4375,-2.04687 -3.22921,3e-5 -5.61462,0.92711 -7.15625,2.78125 -1.5417,1.85419 -2.31253,4.70835 -2.3125,8.5625 l 0,19.125 -5.1875,0 0,-22.28125 c -3e-5,-2.72914 -0.58336,-4.77602 -1.75,-6.14063 -1.16669,-1.36455 -2.98961,-2.04684 -5.46875,-2.04687 -3.25002,3e-5 -5.63022,0.97399 -7.14063,2.92187 -1.51042,1.94794 -2.26563,5.14065 -2.26562,9.57813 l 0,17.96875 -5.1875,0 0,-34.25 4.21875,0 0.84375,4.6875 0.25,0 c 0.97915,-1.66664 2.35936,-2.96872 4.14062,-3.90625 1.78124,-0.93747 3.77603,-1.40622 5.98438,-1.40625 5.35414,3e-5 8.85414,1.93753 10.5,5.8125 l 0.25,0 c 1.0208,-1.79164 2.49997,-3.2083 4.4375,-4.25 1.93746,-1.04163 4.14579,-1.56247 6.625,-1.5625 3.87495,3e-5 6.77599,0.99482 8.70312,2.98437 1.92703,1.98962 2.89058,5.1719 2.89063,9.54688 l 0,22.34375 z"
         id="path3219"
         inkscape:connector-curvature="0" />
      <path
         d="m 266.53125,290.57003 c -2.22919,0 -4.26564,-0.41146 -6.10938,-1.23438 -1.84376,-0.82291 -3.39063,-2.08854 -4.64062,-3.79687 l -0.375,0 c 0.24999,2 0.37499,3.89583 0.375,5.6875 l 0,14.09375 -5.1875,0 0,-49.625 4.21875,0 0.71875,4.6875 0.25,0 c 1.33332,-1.87497 2.8854,-3.22914 4.65625,-4.0625 1.77082,-0.8333 3.80206,-1.24997 6.09375,-1.25 4.54164,3e-5 8.04685,1.55211 10.51562,4.65625 2.46872,3.10419 3.70309,7.45835 3.70313,13.0625 -4e-5,5.62501 -1.25524,9.9948 -3.76563,13.10937 -2.51044,3.11459 -5.99481,4.67188 -10.45312,4.67188 z m -0.75,-31.09375 c -3.50002,3e-5 -6.03126,0.96878 -7.59375,2.90625 -1.56251,1.93752 -2.36459,5.02085 -2.40625,9.25 l 0,1.15625 c -1e-5,4.81251 0.80207,8.25521 2.40625,10.32812 1.60415,2.07292 4.17707,3.10938 7.71875,3.10938 2.95831,0 5.27602,-1.19791 6.95312,-3.59375 1.67706,-2.39583 2.5156,-5.69791 2.51563,-9.90625 -3e-5,-4.27081 -0.83857,-7.54685 -2.51563,-9.82813 -1.6771,-2.28122 -4.03648,-3.42184 -7.07812,-3.42187 z"
         id="path3221"
         inkscape:connector-curvature="0" />
    </g>
  </g>
</svg>
