<?xml version="1.0" encoding="UTF-8" standalone="no"?>
<!-- Created with Inkscape (http://www.inkscape.org/) -->

<svg
   xmlns:dc="http://purl.org/dc/elements/1.1/"
   xmlns:cc="http://creativecommons.org/ns#"
   xmlns:rdf="http://www.w3.org/1999/02/22-rdf-syntax-ns#"
   xmlns:svg="http://www.w3.org/2000/svg"
   xmlns="http://www.w3.org/2000/svg"
   xmlns:sodipodi="http://sodipodi.sourceforge.net/DTD/sodipodi-0.dtd"
   xmlns:inkscape="http://www.inkscape.org/namespaces/inkscape"
   width="800"
   height="600"
   id="svg2"
   version="1.1"
   inkscape:version="0.48.4 r9939"
   sodipodi:docname="maptime_thumb.png">
  <defs
     id="defs4" />
  <sodipodi:namedview
     id="base"
     pagecolor="#ffffff"
     bordercolor="#666666"
     borderopacity="1.0"
     inkscape:pageopacity="0.0"
     inkscape:pageshadow="2"
     inkscape:zoom="1.0727811"
     inkscape:cx="345.71429"
     inkscape:cy="368.97482"
     inkscape:document-units="px"
     inkscape:current-layer="layer1"
     showgrid="false"
     showguides="true"
     inkscape:guide-bbox="true"
     inkscape:window-width="1366"
     inkscape:window-height="705"
     inkscape:window-x="-8"
     inkscape:window-y="-8"
     inkscape:window-maximized="1">
    <sodipodi:guide
       orientation="1,0"
       position="400,157.53447"
       id="guide3199" />
    <sodipodi:guide
       orientation="0,1"
       position="206.00662,550"
       id="guide3201" />
    <sodipodi:guide
       orientation="0,1"
       position="-1.8643133,50"
       id="guide3203" />
  </sodipodi:namedview>
  <metadata
     id="metadata7">
    <rdf:RDF>
      <cc:Work
         rdf:about="">
        <dc:format>image/svg+xml</dc:format>
        <dc:type
           rdf:resource="http://purl.org/dc/dcmitype/StillImage" />
        <dc:title></dc:title>
      </cc:Work>
    </rdf:RDF>
  </metadata>
  <g
     inkscape:groupmode="layer"
     id="layer2"
     inkscape:label="Layer"
     transform="translate(0,200)">
    <rect
       style="color:#000000;fill:#6fa8dc;fill-opacity:1;fill-rule:nonzero;stroke:none;stroke-width:1.25;marker:none;visibility:visible;display:inline;overflow:visible;enable-background:accumulate"
       id="rect3206"
       width="800"
       height="600"
       x="0"
       y="-200" />
  </g>
  <g
     inkscape:label="Layer 1"
     inkscape:groupmode="layer"
     id="layer1"
     transform="translate(0,-452.36218)">
    <g
       style="fill:none;stroke:none"
       id="g3159"
       transform="matrix(1.7856748,0,0,1.7856748,150,502.37321)">
      <g
         id="g3077"
         clip-path="url(#p.0)">
        <path
           id="path3079"
           d="m 0,0 280,0 0,280 -280,0 z"
           inkscape:connector-curvature="0"
           style="fill:#000000;fill-opacity:0;fill-rule:nonzero" />
        <path
           id="path3081"
           d="m 79.13132,7.400525 121.74158,0 0,0 c 8.0722,0 15.8138,3.206673 21.52171,8.914588 5.70792,5.707914 8.91458,13.449507 8.91458,21.521717 l 0,196.27643 c 0,21.25418 -17.22992,38.48412 -38.48411,38.48412 l -105.645952,0 c -21.25418,0 -38.484108,-17.22994 -38.484108,-38.48412 l 0,-196.27643 0,0 c 0,-16.809507 13.626797,-30.436306 30.436302,-30.436306 z"
           inkscape:connector-curvature="0"
           style="fill:#783f04;fill-rule:nonzero" />
        <path
           id="path3083"
           d="m 79.13132,7.400525 121.74158,0 0,0 c 8.0722,0 15.8138,3.206673 21.52171,8.914588 5.70792,5.707914 8.91458,13.449507 8.91458,21.521717 l 0,196.27643 c 0,21.25418 -17.22992,38.48412 -38.48411,38.48412 l -105.645952,0 c -21.25418,0 -38.484108,-17.22994 -38.484108,-38.48412 l 0,-196.27643 0,0 c 0,-16.809507 13.626797,-30.436306 30.436302,-30.436306 z"
           inkscape:connector-curvature="0"
           style="stroke:#000000;stroke-width:2;stroke-linecap:butt;stroke-linejoin:round" />
        <path
           id="path3085"
           d="M 164.30902,7.8420296 182.43315,41.018155"
           inkscape:connector-curvature="0"
           style="fill:#000000;fill-opacity:0;fill-rule:nonzero" />
        <path
           id="path3087"
           d="M 164.30902,7.8420296 182.43315,41.018155"
           inkscape:connector-curvature="0"
           style="stroke:#000000;stroke-width:2;stroke-linecap:butt;stroke-linejoin:round" />
        <path
           id="path3089"
           d="M 196.70853,7.8420296 219.46291,40.239094"
           inkscape:connector-curvature="0"
           style="fill:#000000;fill-opacity:0;fill-rule:nonzero" />
        <path
           id="path3091"
           d="M 196.70853,7.8420296 219.46291,40.239094"
           inkscape:connector-curvature="0"
           style="stroke:#000000;stroke-width:2;stroke-linecap:butt;stroke-linejoin:round" />
        <path
           id="path3093"
           d="M 111.4678,7.8420296 95.269272,41.018155"
           inkscape:connector-curvature="0"
           style="fill:#000000;fill-opacity:0;fill-rule:nonzero" />
        <path
           id="path3095"
           d="M 111.4678,7.8420296 95.269272,41.018155"
           inkscape:connector-curvature="0"
           style="stroke:#000000;stroke-width:2;stroke-linecap:butt;stroke-linejoin:round" />
        <path
           id="path3097"
           d="M 84.469025,7.8420296 61.332463,41.400334"
           inkscape:connector-curvature="0"
           style="fill:#000000;fill-opacity:0;fill-rule:nonzero" />
        <path
           id="path3099"
           d="M 84.469025,7.8420296 61.332463,41.400334"
           inkscape:connector-curvature="0"
           style="stroke:#000000;stroke-width:2;stroke-linecap:butt;stroke-linejoin:round" />
        <path
           id="path3101"
           d="m 140.01,272.61893 0,-265.21786"
           inkscape:connector-curvature="0"
           style="fill:#000000;fill-opacity:0;fill-rule:nonzero" />
        <path
           id="path3103"
           d="m 140.01,272.61893 0,-265.21786"
           inkscape:connector-curvature="0"
           style="stroke:#000000;stroke-width:2;stroke-linecap:butt;stroke-linejoin:round" />
        <path
           id="path3105"
           d="m 181.92801,47.430683 0,182.431917"
           inkscape:connector-curvature="0"
           style="fill:#000000;fill-opacity:0;fill-rule:nonzero" />
        <path
           id="path3107"
           d="m 181.92801,47.430683 0,182.431917"
           inkscape:connector-curvature="0"
           style="stroke:#000000;stroke-width:2;stroke-linecap:butt;stroke-linejoin:round" />
        <path
           id="path3109"
           d="m 219.84999,50.27008 0,175.87607"
           inkscape:connector-curvature="0"
           style="fill:#000000;fill-opacity:0;fill-rule:nonzero" />
        <path
           id="path3111"
           d="m 219.84999,50.27008 0,175.87607"
           inkscape:connector-curvature="0"
           style="stroke:#000000;stroke-width:2;stroke-linecap:butt;stroke-linejoin:round" />
        <path
           id="path3113"
           d="m 95.26804,46.41276 0,182.82881"
           inkscape:connector-curvature="0"
           style="fill:#000000;fill-opacity:0;fill-rule:nonzero" />
        <path
           id="path3115"
           d="m 95.26804,46.41276 0,182.82881"
           inkscape:connector-curvature="0"
           style="stroke:#000000;stroke-width:2;stroke-linecap:butt;stroke-linejoin:round" />
        <path
           id="path3117"
           d="m 61.32634,49.11252 0,175.87607"
           inkscape:connector-curvature="0"
           style="fill:#000000;fill-opacity:0;fill-rule:nonzero" />
        <path
           id="path3119"
           d="m 61.32634,49.11252 0,175.87607"
           inkscape:connector-curvature="0"
           style="stroke:#000000;stroke-width:2;stroke-linecap:butt;stroke-linejoin:round" />
        <path
           id="path3121"
           d="m 183.98024,230.77885 -14.65512,42.43663"
           inkscape:connector-curvature="0"
           style="fill:#000000;fill-opacity:0;fill-rule:nonzero" />
        <path
           id="path3123"
           d="m 183.98024,230.77885 -14.65512,42.43663"
           inkscape:connector-curvature="0"
           style="stroke:#000000;stroke-width:2;stroke-linecap:butt;stroke-linejoin:round" />
        <path
           id="path3125"
           d="m 219.84999,234.63617 -21.99002,38.18857"
           inkscape:connector-curvature="0"
           style="fill:#000000;fill-opacity:0;fill-rule:nonzero" />
        <path
           id="path3127"
           d="m 219.84999,234.63617 -21.99002,38.18857"
           inkscape:connector-curvature="0"
           style="stroke:#000000;stroke-width:2;stroke-linecap:butt;stroke-linejoin:round" />
        <path
           id="path3129"
           d="m 95.26804,234.25032 15.43417,38.57072"
           inkscape:connector-curvature="0"
           style="fill:#000000;fill-opacity:0;fill-rule:nonzero" />
        <path
           id="path3131"
           d="m 95.26804,234.25032 15.43417,38.57072"
           inkscape:connector-curvature="0"
           style="stroke:#000000;stroke-width:2;stroke-linecap:butt;stroke-linejoin:round" />
        <path
           id="path3133"
           d="m 62.483902,235.79251 18.521004,36.64514"
           inkscape:connector-curvature="0"
           style="fill:#000000;fill-opacity:0;fill-rule:nonzero" />
        <path
           id="path3135"
           d="m 62.483902,235.79251 18.521004,36.64514"
           inkscape:connector-curvature="0"
           style="stroke:#000000;stroke-width:2;stroke-linecap:butt;stroke-linejoin:round" />
        <path
           id="path3137"
           d="m 48.695015,36.85502 182.614175,0 0,17.637794 -182.614175,0 z"
           inkscape:connector-curvature="0"
           style="fill:#434343;fill-rule:nonzero" />
        <path
           id="path3139"
           d="m 48.695015,219.65385 182.614175,0 0,17.63779 -182.614175,0 z"
           inkscape:connector-curvature="0"
           style="fill:#434343;fill-rule:nonzero" />
        <path
           id="path3141"
           d="m 49.94095,54.893963 182.61418,0 0,52.944877 -182.61418,0 z"
           inkscape:connector-curvature="0"
           style="fill:#000000;fill-opacity:0;fill-rule:nonzero" />
        <path
           id="path3143"
           d="m 113.72023,76.82827 -10.76562,21.765625 -5.29688,0 -10.71875,-21.765625 0,25.07813 -8.890625,0 0,-39.843751 12.015625,0 10.26563,21.890621 10.3125,-21.890621 11.96875,0 0,39.843751 -8.89063,0 0,-25.07813 z m 47.39426,25.07813 -3.70313,-8.60938 -16.70312,0 -3.70313,8.60938 -9.45312,0 17.20312,-39.843751 8.60938,0 17.21875,39.843751 -9.46875,0 z m -12.01563,-27.98438 -5.01562,11.5625 9.96875,0 -4.95313,-11.5625 z m 40.42829,-11.859371 q 9.17187,0 13.35937,3.562496 4.1875,3.5625 4.1875,10.953125 0,7.375 -4.29687,10.796875 -4.29688,3.421875 -13.14063,3.421875 l -5.29687,0 0,11.10938 -8.89063,0 0,-39.843751 14.07813,0 z m 0.79687,21.031246 q 4.4375,0 6.03125,-1.796875 1.60938,-1.796875 1.60938,-5.234375 0,-3.453125 -2.09375,-4.90625 -2.07813,-1.453125 -6.46875,-1.453125 l -5.0625,0 0,13.390625 5.98437,0 z"
           inkscape:connector-curvature="0"
           style="fill:#ffffff;fill-rule:nonzero" />
        <path
           id="path3145"
           d="m 49.867725,104.95265 182.614175,0 0,59.40158 -182.614175,0 z"
           inkscape:connector-curvature="0"
           style="fill:#000000;fill-opacity:0;fill-rule:nonzero" />
        <path
           id="path3147"
           d="m 94.89014,124.24532 0,29.32812 -8.109375,0 0,-29.32812 -10.296875,0 0,-7.01563 28.70313,0 0,7.01563 -10.29688,0 z m 16.2254,-7.01563 8.10938,0 0,36.34375 -8.10938,0 0,-36.34375 z m 49.61852,13.46875 -9.82813,19.85938 -4.84375,0 -9.78125,-19.85938 0,22.875 -8.10937,0 0,-36.34375 10.96875,0 9.35937,19.96875 9.42188,-19.96875 10.92187,0 0,36.34375 -8.10937,0 0,-22.875 z m 43.26428,-13.46875 0,7.21875 -18.10937,0 0,7.5 16.28125,0 0,6.90625 -16.28125,0 0,7.54688 18.67187,0 0,7.17187 -26.78124,0 0,-36.34375 26.21874,0 z"
           inkscape:connector-curvature="0"
           style="fill:#ffffff;fill-rule:nonzero" />
        <path
           id="path3149"
           d="m 48.695015,159.88417 182.614175,0 0,56.31496 -182.614175,0 z"
           inkscape:connector-curvature="0"
           style="fill:#000000;fill-opacity:0;fill-rule:nonzero" />
        <path
           id="path3151"
           d="m 79.48865,213.10164 0,-48.23438 10.765625,0 0,38.64063 20.562505,0 0,9.59375 -31.32813,0 z m 74.14397,-48.23438 0,9.59375 -24,0 0,9.9375 21.59375,0 0,9.17188 -21.59375,0 0,10.01562 24.76562,0 0,9.51563 -35.53124,0 0,-48.23438 34.76562,0 z m 37.68433,0 12.96875,0 -15.03125,23.25 16.28125,24.98438 -13.10938,0 -10.28125,-15.875 -10.21876,15.875 -12.96875,0 16.21875,-24.70313 -15.10938,-23.53125 12.90625,0 9.17189,14.28125 9.17188,-14.28125 z"
           inkscape:connector-curvature="0"
           style="fill:#6fa8dc;fill-rule:nonzero" />
      </g>
    </g>
  </g>
</svg>
